Behrens-Antiqua.ufo
<glyph name="exclam" format="1">
  <advance width="254"/>
  <unicode hex="0021"/>
  <outline>
    <contour>
      <point x="93" y="156" type="curve" smooth="yes"/>
      <point x="127" y="186"/>
      <point x="199" y="245"/>
      <point x="199" y="305" type="curve"/>
      <point x="199" y="695" type="line"/>
      <point x="199" y="698"/>
      <point x="197" y="700"/>
      <point x="194" y="700" type="curve"/>
      <point x="60" y="700" type="line"/>
      <point x="54" y="700"/>
      <point x="50" y="696"/>
      <point x="50" y="690" type="curve"/>
      <point x="50" y="684" type="line"/>
      <point x="50" y="678"/>
      <point x="54" y="674"/>
      <point x="60" y="674" type="curve"/>
      <point x="90" y="674" type="line"/>
      <point x="93" y="674"/>
      <point x="95" y="672"/>
      <point x="95" y="669" type="curve"/>
      <point x="95" y="226" type="line"/>
      <point x="95" y="193"/>
      <point x="83" y="180"/>
      <point x="76" y="173" type="curve" smooth="yes"/>
      <point x="69" y="166"/>
      <point x="70" y="162"/>
      <point x="74" y="158" type="curve" smooth="yes"/>
      <point x="77" y="155" type="line" smooth="yes"/>
      <point x="81" y="151"/>
      <point x="85" y="149"/>
    </contour>
    <contour>
      <point x="143" y="-5" type="curve" smooth="yes"/>
      <point x="177" y="-5"/>
      <point x="204" y="22"/>
      <point x="204" y="55" type="curve" smooth="yes"/>
      <point x="204" y="88"/>
      <point x="177" y="116"/>
      <point x="143" y="116" type="curve" smooth="yes"/>
      <point x="111" y="116"/>
      <point x="83" y="88"/>
      <point x="83" y="55" type="curve" smooth="yes"/>
      <point x="83" y="22"/>
      <point x="111" y="-5"/>
    </contour>
  </outline>
</glyph>
<glyph name="quotedbl" format="1">
  <advance width="390.0"/>
  <unicode hex="0022"/>
  <outline>
    <contour>
      <point x="262.0" y="469.0" type="curve"/>
      <point x="305.0" y="482.0"/>
      <point x="431.0" y="513.0"/>
      <point x="431.0" y="695.0" type="curve"/>
      <point x="431.0" y="698.0"/>
      <point x="429.0" y="700.0"/>
      <point x="426.0" y="700.0" type="curve"/>
      <point x="300.0" y="700.0" type="line"/>
      <point x="295.0" y="700.0"/>
      <point x="291.0" y="696.0"/>
      <point x="291.0" y="691.0" type="curve"/>
      <point x="291.0" y="683.0" type="line"/>
      <point x="291.0" y="678.0"/>
      <point x="295.0" y="674.0"/>
      <point x="300.0" y="674.0" type="curve"/>
      <point x="316.0" y="674.0" type="line"/>
      <point x="324.0" y="674.0"/>
      <point x="331.0" y="669.0"/>
      <point x="331.0" y="662.0" type="curve"/>
      <point x="331.0" y="587.0"/>
      <point x="323.0" y="534.0"/>
      <point x="246.0" y="491.0" type="curve"/>
      <point x="238.0" y="486.0"/>
      <point x="238.0" y="477.0"/>
      <point x="243.0" y="472.0" type="curve"/>
      <point x="247.0" y="468.0"/>
      <point x="256.0" y="468.0"/>
    </contour>
    <contour>
      <point x="72.0" y="469.0" type="curve"/>
      <point x="115.0" y="482.0"/>
      <point x="241.0" y="513.0"/>
      <point x="241.0" y="695.0" type="curve"/>
      <point x="241.0" y="698.0"/>
      <point x="239.0" y="700.0"/>
      <point x="236.0" y="700.0" type="curve"/>
      <point x="110.0" y="700.0" type="line"/>
      <point x="105.0" y="700.0"/>
      <point x="101.0" y="696.0"/>
      <point x="101.0" y="691.0" type="curve"/>
      <point x="101.0" y="683.0" type="line"/>
      <point x="101.0" y="678.0"/>
      <point x="105.0" y="674.0"/>
      <point x="110.0" y="674.0" type="curve"/>
      <point x="126.0" y="674.0" type="line"/>
      <point x="134.0" y="674.0"/>
      <point x="141.0" y="669.0"/>
      <point x="141.0" y="662.0" type="curve"/>
      <point x="141.0" y="587.0"/>
      <point x="133.0" y="534.0"/>
      <point x="56.0" y="491.0" type="curve"/>
      <point x="48.0" y="486.0"/>
      <point x="48.0" y="477.0"/>
      <point x="53.0" y="472.0" type="curve"/>
      <point x="57.0" y="468.0"/>
      <point x="66.0" y="468.0"/>
    </contour>
  </outline>
</glyph>
<glyph name="ampersand" format="1">
  <advance width="638.546397818"/>
  <unicode hex="0026"/>
  <outline>
    <contour>
      <point x="181.0" y="465.0" type="curve"/>
      <point x="181.0" y="486.0"/>
      <point x="197.0" y="506.0"/>
      <point x="220.0" y="506.0" type="curve"/>
      <point x="267.0" y="506.0"/>
      <point x="287.0" y="469.0"/>
      <point x="287.0" y="428.0" type="curve"/>
      <point x="287.0" y="404.0"/>
      <point x="265.0" y="385.0"/>
      <point x="258.0" y="385.0" type="curve"/>
      <point x="248.0" y="385.0"/>
      <point x="243.0" y="386.0"/>
      <point x="237.0" y="392.0" type="curve"/>
      <point x="193.0" y="436.0" type="line"/>
      <point x="184.0" y="445.0"/>
      <point x="181.0" y="454.0"/>
    </contour>
    <contour>
      <point x="344.0" y="96"/>
      <point x="279.0" y="52.0"/>
      <point x="229.0" y="52.0" type="curve"/>
      <point x="161.0" y="52.0"/>
      <point x="103.0" y="118.0"/>
      <point x="103.0" y="180.0" type="curve"/>
      <point x="103.0" y="229.0"/>
      <point x="124.0" y="266.0"/>
      <point x="170.0" y="312.0" type="curve"/>
      <point x="174.0" y="316.0"/>
      <point x="182.0" y="315.0"/>
      <point x="185.0" y="312.0" type="curve"/>
      <point x="379.0" y="118" type="line"/>
      <point x="383.0" y="135" type="line"/>
    </contour>
    <contour>
      <point x="509.0" y="-12.0" type="line"/>
      <point x="513.0" y="-16.0"/>
      <point x="516.0" y="-18.0"/>
      <point x="520.0" y="-18.0" type="curve"/>
      <point x="524.0" y="-18.0"/>
      <point x="527.0" y="-16.0"/>
      <point x="531.0" y="-12.0" type="curve"/>
      <point x="609.0" y="66.0" type="line"/>
      <point x="613.0" y="70.0"/>
      <point x="614.0" y="74.0"/>
      <point x="610.0" y="78.0" type="curve" smooth="yes"/>
      <point x="595.0" y="93.0" type="line" smooth="yes"/>
      <point x="591.0" y="97.0"/>
      <point x="587.0" y="98.0"/>
      <point x="582.0" y="93.0" type="curve"/>
      <point x="566.0" y="77.0" type="line"/>
      <point x="563.0" y="74.0"/>
      <point x="561.0" y="73.0"/>
      <point x="559.0" y="73.0" type="curve"/>
      <point x="557.0" y="73.0"/>
      <point x="555.0" y="74.0"/>
      <point x="552.0" y="77.0" type="curve"/>
      <point x="448.0" y="182" type="line"/>
      <point x="451.0" y="162" type="line"/>
      <point x="472.0" y="177"/>
      <point x="490.0" y="203"/>
      <point x="498.0" y="220" type="curve"/>
      <point x="500.0" y="222"/>
      <point x="500.0" y="225"/>
      <point x="498.0" y="227" type="curve"/>
      <point x="482.0" y="235" type="line"/>
      <point x="480.0" y="237"/>
      <point x="477.0" y="237"/>
      <point x="475.0" y="235" type="curve"/>
      <point x="465.0" y="221"/>
      <point x="451.0" y="200"/>
      <point x="433.0" y="182" type="curve"/>
      <point x="443.0" y="186" type="line"/>
      <point x="285.0" y="344.0" type="line"/>
      <point x="281.0" y="348.0"/>
      <point x="278.0" y="352.0"/>
      <point x="278.0" y="357.0" type="curve"/>
      <point x="278.0" y="361.0"/>
      <point x="282.0" y="365.0"/>
      <point x="286.0" y="369.0" type="curve" smooth="yes"/>
      <point x="304.0" y="387.0"/>
      <point x="338.0" y="416.0"/>
      <point x="338.0" y="454.0" type="curve"/>
      <point x="338.0" y="499.0"/>
      <point x="304.0" y="545.0"/>
      <point x="246.0" y="545.0" type="curve"/>
      <point x="194.0" y="545.0"/>
      <point x="127.0" y="487.0"/>
      <point x="127.0" y="427.0" type="curve"/>
      <point x="127.0" y="390.0"/>
      <point x="152.0" y="365.0"/>
      <point x="152.0" y="345.0" type="curve"/>
      <point x="152.0" y="337.0"/>
      <point x="149.0" y="331.0"/>
      <point x="145.0" y="327.0" type="curve"/>
      <point x="128.0" y="315.0" type="line"/>
      <point x="96.0" y="295.0"/>
      <point x="26.0" y="225.0"/>
      <point x="26.0" y="146.0" type="curve"/>
      <point x="26.0" y="93.0"/>
      <point x="39.0" y="-19.0"/>
      <point x="187.0" y="-19.0" type="curve"/>
      <point x="254.0" y="-19.0"/>
      <point x="342.0" y="50"/>
      <point x="405.0" y="113" type="curve"/>
      <point x="389.0" y="108" type="line"/>
    </contour>
  </outline>
</glyph>
<glyph name="quotesingle" format="1">
  <advance width="220.0"/>
  <unicode hex="0027"/>
  <outline>
    <contour>
      <point x="42.0" y="469.0" type="curve"/>
      <point x="85.0" y="482.0"/>
      <point x="211.0" y="513.0"/>
      <point x="211.0" y="695.0" type="curve"/>
      <point x="211.0" y="698.0"/>
      <point x="209.0" y="700.0"/>
      <point x="206.0" y="700.0" type="curve"/>
      <point x="80.0" y="700.0" type="line"/>
      <point x="75.0" y="700.0"/>
      <point x="71.0" y="696.0"/>
      <point x="71.0" y="691.0" type="curve"/>
      <point x="71.0" y="683.0" type="line"/>
      <point x="71.0" y="678.0"/>
      <point x="75.0" y="674.0"/>
      <point x="80.0" y="674.0" type="curve"/>
      <point x="96.0" y="674.0" type="line"/>
      <point x="104.0" y="674.0"/>
      <point x="111.0" y="669.0"/>
      <point x="111.0" y="662.0" type="curve"/>
      <point x="111.0" y="587.0"/>
      <point x="103.0" y="534.0"/>
      <point x="26.0" y="491.0" type="curve"/>
      <point x="18.0" y="486.0"/>
      <point x="18.0" y="477.0"/>
      <point x="23.0" y="472.0" type="curve"/>
      <point x="27.0" y="468.0"/>
      <point x="36.0" y="468.0"/>
    </contour>
  </outline>
</glyph>
<glyph name="parenleft" format="1">
  <advance width="215.196938457"/>
  <unicode hex="0028"/>
  <outline>
    <contour>
      <point x="79" y="603"/>
      <point x="30" y="458" name="inserted"/>
      <point x="30" y="280" type="curve"/>
      <point x="30" y="102" name="inserted"/>
      <point x="79" y="-41"/>
      <point x="149" y="-158" type="curve" smooth="yes"/>
      <point x="160" y="-176"/>
      <point x="164" y="-178"/>
      <point x="174" y="-178" type="curve"/>
      <point x="194" y="-178" type="line"/>
      <point x="199" y="-178"/>
      <point x="202" y="-175"/>
      <point x="199" y="-168" type="curve" smooth="yes"/>
      <point x="144" y="-37" name="inserted"/>
      <point x="113" y="114"/>
      <point x="113" y="280" type="curve"/>
      <point x="113" y="446"/>
      <point x="144" y="599" name="inserted"/>
      <point x="199" y="730" type="curve" smooth="yes"/>
      <point x="202" y="737"/>
      <point x="199" y="740"/>
      <point x="194" y="740" type="curve"/>
      <point x="174" y="740" type="line"/>
      <point x="164" y="740"/>
      <point x="160" y="738"/>
      <point x="149" y="720" type="curve" smooth="yes"/>
    </contour>
  </outline>
</glyph>
<glyph name="parenright" format="1">
  <advance width="215.196938457"/>
  <unicode hex="0029"/>
  <outline>
    <contour>
      <point x="185.196938457" y="458" name="inserted"/>
      <point x="136.196938457" y="603"/>
      <point x="66.1969384567" y="720" type="curve" smooth="yes"/>
      <point x="55.1969384567" y="738"/>
      <point x="51.1969384567" y="740"/>
      <point x="41.1969384567" y="740" type="curve"/>
      <point x="21.1969384567" y="740" type="line"/>
      <point x="16.1969384567" y="740"/>
      <point x="13.1969384567" y="737"/>
      <point x="16.1969384567" y="730" type="curve" smooth="yes"/>
      <point x="71.1969384567" y="599" name="inserted"/>
      <point x="102.196938457" y="446"/>
      <point x="102.196938457" y="280" type="curve"/>
      <point x="102.196938457" y="114"/>
      <point x="71.1969384567" y="-37" name="inserted"/>
      <point x="16.1969384567" y="-168" type="curve" smooth="yes"/>
      <point x="13.1969384567" y="-175"/>
      <point x="16.1969384567" y="-178"/>
      <point x="21.1969384567" y="-178" type="curve"/>
      <point x="41.1969384567" y="-178" type="line"/>
      <point x="51.1969384567" y="-178"/>
      <point x="55.1969384567" y="-176"/>
      <point x="66.1969384567" y="-158" type="curve" smooth="yes"/>
      <point x="136.196938457" y="-41"/>
      <point x="185.196938457" y="102" name="inserted"/>
      <point x="185.196938457" y="280" type="curve"/>
    </contour>
  </outline>
</glyph>
<glyph name="asterisk" format="1">
  <advance width="432.367044797"/>
  <unicode hex="002A"/>
  <outline>
    <contour>
      <point x="165" y="389"/>
      <point x="186" y="410"/>
      <point x="186" y="435" type="curve" smooth="yes"/>
      <point x="186" y="457"/>
      <point x="171" y="477"/>
      <point x="160" y="488" type="curve" smooth="yes"/>
      <point x="150" y="499"/>
      <point x="145" y="522"/>
      <point x="150" y="529" type="curve"/>
      <point x="151" y="530"/>
      <point x="153" y="531"/>
      <point x="154" y="531" type="curve"/>
      <point x="161" y="532"/>
      <point x="179" y="517"/>
      <point x="184" y="502" type="curve" smooth="yes"/>
      <point x="188" y="487"/>
      <point x="198" y="464"/>
      <point x="217" y="453" type="curve" smooth="yes"/>
      <point x="238" y="441"/>
      <point x="267" y="448"/>
      <point x="280" y="469" type="curve" smooth="yes"/>
      <point x="292" y="490"/>
      <point x="284" y="519"/>
      <point x="262" y="532" type="curve" smooth="yes"/>
      <point x="243" y="543"/>
      <point x="219" y="540"/>
      <point x="204" y="536" type="curve" smooth="yes"/>
      <point x="189" y="532"/>
      <point x="166" y="540"/>
      <point x="163" y="548" type="curve" smooth="yes"/>
      <point x="163" y="550" type="line" smooth="yes"/>
      <point x="166" y="559"/>
      <point x="189" y="566"/>
      <point x="204" y="562" type="curve" smooth="yes"/>
      <point x="220" y="559"/>
      <point x="244" y="556"/>
      <point x="263" y="568" type="curve" smooth="yes"/>
      <point x="284" y="580"/>
      <point x="292" y="607"/>
      <point x="280" y="629" type="curve" smooth="yes"/>
      <point x="268" y="650"/>
      <point x="239" y="658"/>
      <point x="217" y="646" type="curve" smooth="yes"/>
      <point x="198" y="634"/>
      <point x="189" y="612"/>
      <point x="184" y="598" type="curve" smooth="yes"/>
      <point x="180" y="583"/>
      <point x="163" y="567"/>
      <point x="154" y="568" type="curve"/>
      <point x="152" y="569"/>
      <point x="151" y="570"/>
      <point x="150" y="571" type="curve"/>
      <point x="144" y="577"/>
      <point x="150" y="600"/>
      <point x="160" y="611" type="curve" smooth="yes"/>
      <point x="171" y="622"/>
      <point x="186" y="642"/>
      <point x="186" y="664" type="curve" smooth="yes"/>
      <point x="186" y="689"/>
      <point x="166" y="710"/>
      <point x="140" y="710" type="curve" smooth="yes"/>
      <point x="116" y="710"/>
      <point x="95" y="689"/>
      <point x="95" y="664" type="curve" smooth="yes"/>
      <point x="95" y="642"/>
      <point x="110" y="622"/>
      <point x="121" y="611" type="curve" smooth="yes"/>
      <point x="131" y="600"/>
      <point x="136" y="577"/>
      <point x="131" y="571" type="curve"/>
      <point x="131" y="570"/>
      <point x="128" y="568"/>
      <point x="127" y="568" type="curve"/>
      <point x="120" y="567"/>
      <point x="102" y="583"/>
      <point x="97" y="598" type="curve" smooth="yes"/>
      <point x="93" y="613"/>
      <point x="83" y="635"/>
      <point x="64" y="646" type="curve" smooth="yes"/>
      <point x="43" y="658"/>
      <point x="14" y="652"/>
      <point x="1" y="630" type="curve" smooth="yes"/>
      <point x="-11" y="609"/>
      <point x="-3" y="580"/>
      <point x="19" y="568" type="curve" smooth="yes"/>
      <point x="38" y="556"/>
      <point x="62" y="559"/>
      <point x="77" y="563" type="curve" smooth="yes"/>
      <point x="92" y="567"/>
      <point x="115" y="559"/>
      <point x="118" y="551" type="curve" smooth="yes"/>
      <point x="118" y="549" type="line" smooth="yes"/>
      <point x="115" y="541"/>
      <point x="92" y="533"/>
      <point x="77" y="537" type="curve" smooth="yes"/>
      <point x="61" y="541"/>
      <point x="37" y="543"/>
      <point x="18" y="532" type="curve" smooth="yes"/>
      <point x="-3" y="520"/>
      <point x="-11" y="492"/>
      <point x="1" y="470" type="curve" smooth="yes"/>
      <point x="13" y="449"/>
      <point x="42" y="441"/>
      <point x="64" y="454" type="curve" smooth="yes"/>
      <point x="83" y="465"/>
      <point x="92" y="487"/>
      <point x="97" y="502" type="curve" smooth="yes"/>
      <point x="101" y="517"/>
      <point x="118" y="532"/>
      <point x="127" y="531" type="curve"/>
      <point x="128" y="531"/>
      <point x="129" y="530"/>
      <point x="130" y="529" type="curve"/>
      <point x="136" y="523"/>
      <point x="131" y="499"/>
      <point x="121" y="488" type="curve" smooth="yes"/>
      <point x="110" y="477"/>
      <point x="95" y="457"/>
      <point x="95" y="435" type="curve" smooth="yes"/>
      <point x="95" y="410"/>
      <point x="115" y="389"/>
      <point x="141" y="389" type="curve" smooth="yes"/>
    </contour>
  </outline>
</glyph>
<glyph name="plus" format="1">
  <advance width="500"/>
  <unicode hex="002B"/>
  <outline>
    <contour>
      <point x="286" y="48"/>
      <point x="290" y="52"/>
      <point x="290" y="58" type="curve"/>
      <point x="290" y="194" type="line"/>
      <point x="426" y="194" type="line"/>
      <point x="432" y="194"/>
      <point x="436" y="198"/>
      <point x="436" y="204" type="curve"/>
      <point x="436" y="256" type="line"/>
      <point x="436" y="262"/>
      <point x="432" y="266"/>
      <point x="426" y="266" type="curve"/>
      <point x="290" y="266" type="line"/>
      <point x="290" y="402" type="line"/>
      <point x="290" y="408"/>
      <point x="286" y="412"/>
      <point x="280" y="412" type="curve"/>
      <point x="228" y="412" type="line"/>
      <point x="222" y="412"/>
      <point x="218" y="408"/>
      <point x="218" y="402" type="curve"/>
      <point x="218" y="266" type="line"/>
      <point x="82" y="266" type="line"/>
      <point x="76" y="266"/>
      <point x="72" y="262"/>
      <point x="72" y="256" type="curve"/>
      <point x="72" y="204" type="line"/>
      <point x="72" y="198"/>
      <point x="76" y="194"/>
      <point x="82" y="194" type="curve"/>
      <point x="218" y="194" type="line"/>
      <point x="218" y="58" type="line"/>
      <point x="218" y="52"/>
      <point x="222" y="48"/>
      <point x="228" y="48" type="curve"/>
      <point x="280" y="48" type="line"/>
    </contour>
  </outline>
</glyph>
<glyph name="comma" format="1">
  <advance width="291.440491736"/>
  <unicode hex="002C"/>
  <outline>
    <contour>
      <point x="72.4404917363" y="-115" type="curve"/>
      <point x="115.440491736" y="-102"/>
      <point x="241.440491736" y="-71"/>
      <point x="241.440491736" y="111" type="curve"/>
      <point x="241.440491736" y="114"/>
      <point x="239.440491736" y="116"/>
      <point x="236.440491736" y="116" type="curve"/>
      <point x="110.440491736" y="116" type="line"/>
      <point x="105.440491736" y="116"/>
      <point x="101.440491736" y="112"/>
      <point x="101.440491736" y="107" type="curve"/>
      <point x="101.440491736" y="99" type="line"/>
      <point x="101.440491736" y="94"/>
      <point x="105.440491736" y="90"/>
      <point x="110.440491736" y="90" type="curve"/>
      <point x="126.440491736" y="90" type="line"/>
      <point x="134.440491736" y="90"/>
      <point x="141.440491736" y="85"/>
      <point x="141.440491736" y="78" type="curve"/>
      <point x="141.440491736" y="3"/>
      <point x="133.440491736" y="-50"/>
      <point x="56.4404917363" y="-93" type="curve"/>
      <point x="48.4404917363" y="-98"/>
      <point x="48.4404917363" y="-107"/>
      <point x="53.4404917363" y="-112" type="curve"/>
      <point x="57.4404917363" y="-116"/>
      <point x="66.4404917363" y="-116"/>
    </contour>
  </outline>
</glyph>
<glyph name="hyphen" format="1">
  <advance width="386.5"/>
  <unicode hex="002D"/>
  <outline>
    <contour>
      <point x="40.75" y="184"/>
      <point x="42.75" y="184"/>
      <point x="42.75" y="185" type="curve"/>
      <point x="64.75" y="207" type="line"/>
      <point x="305.75" y="207" type="line"/>
      <point x="355.75" y="273" type="line"/>
      <point x="356.75" y="274"/>
      <point x="356.75" y="275"/>
      <point x="355.75" y="276" type="curve"/>
      <point x="346.75" y="285" type="line"/>
      <point x="345.75" y="286"/>
      <point x="343.75" y="286"/>
      <point x="343.75" y="285" type="curve"/>
      <point x="321.75" y="263" type="line"/>
      <point x="80.75" y="263" type="line"/>
      <point x="30.75" y="197" type="line"/>
      <point x="29.75" y="196"/>
      <point x="29.75" y="195"/>
      <point x="30.75" y="194" type="curve"/>
      <point x="39.75" y="185" type="line"/>
    </contour>
  </outline>
</glyph>
<glyph name="period" format="1">
  <advance width="221"/>
  <unicode hex="002E"/>
  <outline>
    <contour>
      <point x="110" y="-5" type="curve" smooth="yes"/>
      <point x="144" y="-5"/>
      <point x="171" y="22"/>
      <point x="171" y="55" type="curve" smooth="yes"/>
      <point x="171" y="88"/>
      <point x="144" y="116"/>
      <point x="110" y="116" type="curve" smooth="yes"/>
      <point x="78" y="116"/>
      <point x="50" y="88"/>
      <point x="50" y="55" type="curve" smooth="yes"/>
      <point x="50" y="22"/>
      <point x="78" y="-5"/>
    </contour>
  </outline>
</glyph>
<glyph name="zero" format="1">
  <advance width="546"/>
  <unicode hex="0030"/>
  <outline>
    <contour>
      <point x="274" y="-5" type="curve" smooth="yes"/>
      <point x="137" y="-5"/>
      <point x="50" y="82"/>
      <point x="50" y="229" type="curve" smooth="yes"/>
      <point x="50" y="356"/>
      <point x="137" y="465"/>
      <point x="274" y="465" type="curve"/>
      <point x="419" y="465"/>
      <point x="496" y="356"/>
      <point x="496" y="229" type="curve" smooth="yes"/>
      <point x="496" y="82"/>
      <point x="411" y="-5"/>
    </contour>
    <contour>
      <point x="274" y="25" type="curve" smooth="yes"/>
      <point x="376" y="25"/>
      <point x="401" y="132"/>
      <point x="401" y="229" type="curve" smooth="yes"/>
      <point x="401" y="321"/>
      <point x="376" y="433"/>
      <point x="274" y="433" type="curve" smooth="yes"/>
      <point x="172" y="433"/>
      <point x="152" y="321"/>
      <point x="152" y="229" type="curve" smooth="yes"/>
      <point x="152" y="132"/>
      <point x="172" y="25"/>
    </contour>
  </outline>
</glyph>
<glyph name="one" format="1">
  <advance width="265.0"/>
  <unicode hex="0031"/>
  <outline>
    <contour>
      <point x="25.0" y="3.0"/>
      <point x="28.0" y="0.0"/>
      <point x="35.0" y="0.0" type="curve"/>
      <point x="230.0" y="0.0" type="line"/>
      <point x="237.0" y="0.0"/>
      <point x="240.0" y="3.0"/>
      <point x="240.0" y="10.0" type="curve"/>
      <point x="240.0" y="16.0" type="line"/>
      <point x="240.0" y="23.0"/>
      <point x="237.0" y="26.0"/>
      <point x="230.0" y="26.0" type="curve"/>
      <point x="185.0" y="26.0" type="line"/>
      <point x="182.0" y="26.0"/>
      <point x="180.0" y="28.0"/>
      <point x="180.0" y="31.0" type="curve"/>
      <point x="180.0" y="429.0" type="line"/>
      <point x="180.0" y="432.0"/>
      <point x="182.0" y="434.0"/>
      <point x="185.0" y="434.0" type="curve"/>
      <point x="230.0" y="434.0" type="line"/>
      <point x="237.0" y="434.0"/>
      <point x="240.0" y="437.0"/>
      <point x="240.0" y="444.0" type="curve"/>
      <point x="240.0" y="450.0" type="line"/>
      <point x="240.0" y="457.0"/>
      <point x="237.0" y="460.0"/>
      <point x="230.0" y="460.0" type="curve"/>
      <point x="35.0" y="460.0" type="line"/>
      <point x="28.0" y="460.0"/>
      <point x="25.0" y="457.0"/>
      <point x="25.0" y="450.0" type="curve"/>
      <point x="25.0" y="444.0" type="line"/>
      <point x="25.0" y="437.0"/>
      <point x="28.0" y="434.0"/>
      <point x="35.0" y="434.0" type="curve"/>
      <point x="80.0" y="434.0" type="line"/>
      <point x="83.0" y="434.0"/>
      <point x="85.0" y="432.0"/>
      <point x="85.0" y="429.0" type="curve"/>
      <point x="85.0" y="31.0" type="line"/>
      <point x="85.0" y="28.0"/>
      <point x="83.0" y="26.0"/>
      <point x="80.0" y="26.0" type="curve"/>
      <point x="35.0" y="26.0" type="line"/>
      <point x="28.0" y="26.0"/>
      <point x="25.0" y="23.0"/>
      <point x="25.0" y="16.0" type="curve"/>
      <point x="25.0" y="10.0" type="line"/>
    </contour>
  </outline>
</glyph>
<glyph name="two" format="1">
  <advance width="414.393876913"/>
  <unicode hex="0032"/>
  <outline>
    <contour>
      <point x="395.0" y="93"/>
      <point x="395.0" y="90"/>
      <point x="393.0" y="86" type="curve" smooth="yes"/>
      <point x="344.0" y="9" type="line" smooth="yes"/>
      <point x="339.0" y="1"/>
      <point x="336.0" y="0"/>
      <point x="328.0" y="0" type="curve"/>
      <point x="56.0" y="0" type="line"/>
      <point x="49.0" y="0"/>
      <point x="46.0" y="3"/>
      <point x="46.0" y="10" type="curve"/>
      <point x="46.0" y="16" type="line"/>
      <point x="46.0" y="21"/>
      <point x="46.0" y="25"/>
      <point x="56.0" y="31" type="curve" smooth="yes"/>
      <point x="115.0" y="70"/>
      <point x="246.0" y="170"/>
      <point x="246.0" y="299" type="curve" smooth="yes"/>
      <point x="246.0" y="365"/>
      <point x="219.0" y="420"/>
      <point x="159.0" y="420" type="curve" smooth="yes"/>
      <point x="95.0" y="420"/>
      <point x="56.0" y="363"/>
      <point x="56.0" y="287" type="curve" smooth="yes"/>
      <point x="56.0" y="284"/>
      <point x="54.0" y="282"/>
      <point x="51.0" y="282" type="curve" smooth="yes"/>
      <point x="25.0" y="282" type="line" smooth="yes"/>
      <point x="22.0" y="282"/>
      <point x="20.0" y="284"/>
      <point x="20.0" y="287" type="curve"/>
      <point x="20.0" y="391"/>
      <point x="87.0" y="470"/>
      <point x="201.0" y="470" type="curve" smooth="yes"/>
      <point x="304.0" y="470"/>
      <point x="349.0" y="391"/>
      <point x="349.0" y="319" type="curve" smooth="yes"/>
      <point x="349.0" y="201"/>
      <point x="278.0" y="131"/>
      <point x="146.0" y="47" type="curve" smooth="yes"/>
      <point x="143.0" y="45"/>
      <point x="141.0" y="44"/>
      <point x="141.0" y="41" type="curve" smooth="yes"/>
      <point x="141.0" y="38"/>
      <point x="143.0" y="36"/>
      <point x="146.0" y="36" type="curve"/>
      <point x="186.0" y="36" type="line"/>
      <point x="256.0" y="37"/>
      <point x="335.0" y="62"/>
      <point x="372.0" y="100" type="curve"/>
      <point x="375.0" y="103"/>
      <point x="378.0" y="102"/>
      <point x="380.0" y="101" type="curve" smooth="yes"/>
      <point x="392.0" y="95" type="line" smooth="yes"/>
    </contour>
  </outline>
</glyph>
<glyph name="three" format="1">
  <advance width="449.154700538"/>
  <unicode hex="0033"/>
  <outline>
    <contour>
      <point x="75.1547005384" y="232.0" type="line" smooth="yes"/>
      <point x="69.1547005384" y="226.0"/>
      <point x="67.1547005384" y="222.0"/>
      <point x="67.1547005384" y="217.0" type="curve" smooth="yes"/>
      <point x="67.1547005384" y="212.0"/>
      <point x="71.1547005384" y="208.0"/>
      <point x="77.1547005384" y="208.0" type="curve" smooth="yes"/>
      <point x="165.154700538" y="213.0" type="line" smooth="yes"/>
      <point x="252.154700538" y="219.0"/>
      <point x="326.154700538" y="160.0"/>
      <point x="326.154700538" y="39.0" type="curve"/>
      <point x="325.154700538" y="-68.0"/>
      <point x="227.154700538" y="-146.0"/>
      <point x="113.154700538" y="-137.0" type="curve" smooth="yes"/>
      <point x="49.1547005384" y="-132.0" type="line"/>
      <point x="46.1547005384" y="-132.0"/>
      <point x="44.1547005384" y="-134.0"/>
      <point x="44.1547005384" y="-137.0" type="curve"/>
      <point x="44.1547005384" y="-146.0" type="line"/>
      <point x="44.1547005384" y="-151.0"/>
      <point x="47.1547005384" y="-152.0"/>
      <point x="54.1547005384" y="-154.0" type="curve" smooth="yes"/>
      <point x="68.1547005384" y="-158.0"/>
      <point x="107.154700538" y="-170.0"/>
      <point x="161.154700538" y="-170.0" type="curve"/>
      <point x="332.154700538" y="-170.0"/>
      <point x="429.154700538" y="-72.0"/>
      <point x="429.154700538" y="44.0" type="curve"/>
      <point x="429.154700538" y="193.0"/>
      <point x="319.154700538" y="269.0"/>
      <point x="186.154700538" y="259.0" type="curve" smooth="yes"/>
      <point x="180.154700538" y="259.0"/>
      <point x="173.154700538" y="261.0"/>
      <point x="173.154700538" y="269.0" type="curve" smooth="yes"/>
      <point x="173.154700538" y="276.0"/>
      <point x="178.154700538" y="280.0"/>
      <point x="186.154700538" y="288.0" type="curve" smooth="yes"/>
      <point x="338.154700538" y="440.0" type="line" smooth="yes"/>
      <point x="342.154700538" y="444.0"/>
      <point x="345.154700538" y="447.0"/>
      <point x="345.154700538" y="450.0" type="curve" smooth="yes"/>
      <point x="345.154700538" y="456.0"/>
      <point x="341.154700538" y="460.0"/>
      <point x="335.154700538" y="460.0" type="curve"/>
      <point x="107.154700538" y="460.0" type="line" smooth="yes"/>
      <point x="102.154700538" y="460.0"/>
      <point x="100.154700538" y="459.0"/>
      <point x="96.1547005384" y="455.0" type="curve" smooth="yes"/>
      <point x="21.1547005384" y="380.0" type="line" smooth="yes"/>
      <point x="19.1547005384" y="378.0"/>
      <point x="20.1547005384" y="376.0"/>
      <point x="21.1547005384" y="375.0" type="curve" smooth="yes"/>
      <point x="30.1547005384" y="366.0" type="line" smooth="yes"/>
      <point x="31.1547005384" y="365.0"/>
      <point x="33.1547005384" y="364.0"/>
      <point x="35.1547005384" y="366.0" type="curve" smooth="yes"/>
      <point x="64.1547005384" y="395.0" type="line" smooth="yes"/>
      <point x="68.1547005384" y="399.0"/>
      <point x="70.1547005384" y="400.0"/>
      <point x="79.1547005384" y="400.0" type="curve" smooth="yes"/>
      <point x="219.154700538" y="400.0" type="line" smooth="yes"/>
      <point x="226.154700538" y="400.0"/>
      <point x="229.154700538" y="396.0"/>
      <point x="229.154700538" y="390.0" type="curve"/>
      <point x="229.154700538" y="386.0"/>
      <point x="226.154700538" y="383.0"/>
      <point x="219.154700538" y="376.0" type="curve" smooth="yes"/>
    </contour>
  </outline>
</glyph>
<glyph name="four" format="1">
  <advance width="472.0"/>
  <unicode hex="0034"/>
  <outline>
    <contour>
      <point x="360" y="-53" type="line" smooth="yes"/>
      <point x="364" y="-49"/>
      <point x="369" y="-45"/>
      <point x="369" y="-36" type="curve" smooth="yes"/>
      <point x="369.0" y="31.0" type="line"/>
      <point x="369.0" y="34.0"/>
      <point x="371.0" y="36.0"/>
      <point x="374.0" y="36.0" type="curve"/>
      <point x="403.0" y="36.0" type="line"/>
      <point x="408.0" y="36.0"/>
      <point x="416.0" y="39.0"/>
      <point x="421.0" y="44.0" type="curve" smooth="yes"/>
      <point x="443.0" y="66.0" type="line" smooth="yes"/>
      <point x="448.0" y="71.0"/>
      <point x="452.0" y="75.0"/>
      <point x="452.0" y="78.0" type="curve"/>
      <point x="452.0" y="80.0"/>
      <point x="451.0" y="82.0"/>
      <point x="448.0" y="82.0" type="curve"/>
      <point x="376.0" y="82.0" type="line"/>
      <point x="372.0" y="82.0"/>
      <point x="370.0" y="84.0"/>
      <point x="370.0" y="88.0" type="curve"/>
      <point x="370.0" y="449.0" type="line"/>
      <point x="370.0" y="469.0"/>
      <point x="363.0" y="475.0"/>
      <point x="356.0" y="475.0" type="curve"/>
      <point x="347.0" y="475.0"/>
      <point x="342.0" y="473.0"/>
      <point x="325.0" y="451.0" type="curve" smooth="yes"/>
      <point x="30.0" y="65.0" type="line" smooth="yes"/>
      <point x="23.0" y="56.0"/>
      <point x="20.0" y="51.0"/>
      <point x="20.0" y="46.0" type="curve"/>
      <point x="20.0" y="39.0"/>
      <point x="23.0" y="36.0"/>
      <point x="30.0" y="36.0" type="curve"/>
      <point x="259.0" y="36.0" type="line"/>
      <point x="262.0" y="36.0"/>
      <point x="264.0" y="34.0"/>
      <point x="264.0" y="31.0" type="curve"/>
      <point x="264.0" y="-75.0" type="line"/>
      <point x="264.0" y="-98.0"/>
      <point x="258.0" y="-103.0"/>
      <point x="254.0" y="-107.0" type="curve"/>
      <point x="234.0" y="-127.0" type="line" smooth="yes"/>
      <point x="230.0" y="-131.0"/>
      <point x="230.0" y="-135.0"/>
      <point x="232.0" y="-137.0" type="curve"/>
      <point x="248" y="-153" type="line" smooth="yes"/>
      <point x="252" y="-157"/>
      <point x="256" y="-157"/>
      <point x="259" y="-154" type="curve"/>
    </contour>
    <contour>
      <point x="259.0" y="85.0" type="curve"/>
      <point x="104.0" y="85.0" type="line"/>
      <point x="99.0" y="85.0"/>
      <point x="97.0" y="88.0"/>
      <point x="97.0" y="92.0" type="curve"/>
      <point x="97.0" y="95.0"/>
      <point x="100.0" y="98.0"/>
      <point x="104.0" y="103.0" type="curve"/>
      <point x="250.0" y="288.0" type="line" smooth="yes"/>
      <point x="255.0" y="296.0"/>
      <point x="264.0" y="294.0"/>
      <point x="264.0" y="285.0" type="curve"/>
      <point x="264.0" y="91.0" type="line"/>
      <point x="264.0" y="88.0"/>
      <point x="262.0" y="85.0"/>
    </contour>
  </outline>
</glyph>
<glyph name="five" format="1">
  <advance width="425"/>
  <unicode hex="0035"/>
  <outline>
    <contour>
      <point x="106" y="259"/>
      <point x="87" y="238"/>
      <point x="87" y="256" type="curve" smooth="yes"/>
      <point x="87" y="395" type="line"/>
      <point x="87" y="398"/>
      <point x="89" y="400"/>
      <point x="92" y="400" type="curve"/>
      <point x="300" y="400" type="line"/>
      <point x="309" y="400"/>
      <point x="317" y="408"/>
      <point x="322" y="413" type="curve"/>
      <point x="329" y="420"/>
      <point x="355" y="444"/>
      <point x="355" y="450" type="curve"/>
      <point x="355" y="457"/>
      <point x="352" y="460"/>
      <point x="345" y="460" type="curve"/>
      <point x="53" y="460" type="line"/>
      <point x="46" y="460"/>
      <point x="43" y="457"/>
      <point x="43" y="450" type="curve"/>
      <point x="43" y="217" type="line"/>
      <point x="43" y="212"/>
      <point x="47" y="208"/>
      <point x="53" y="208" type="curve" smooth="yes"/>
      <point x="141" y="213" type="line" smooth="yes"/>
      <point x="228" y="219"/>
      <point x="302" y="160"/>
      <point x="302" y="39" type="curve"/>
      <point x="301" y="-68"/>
      <point x="203" y="-146"/>
      <point x="89" y="-137" type="curve" smooth="yes"/>
      <point x="25" y="-132" type="line"/>
      <point x="22" y="-132"/>
      <point x="20" y="-134"/>
      <point x="20" y="-137" type="curve"/>
      <point x="20" y="-146" type="line"/>
      <point x="20" y="-151"/>
      <point x="23" y="-152"/>
      <point x="30" y="-154" type="curve" smooth="yes"/>
      <point x="44" y="-158"/>
      <point x="83" y="-170"/>
      <point x="137" y="-170" type="curve"/>
      <point x="308" y="-170"/>
      <point x="405" y="-72"/>
      <point x="405" y="44" type="curve"/>
      <point x="405" y="193"/>
      <point x="295" y="259"/>
      <point x="162" y="259" type="curve" smooth="yes"/>
    </contour>
  </outline>
</glyph>
<glyph name="six" format="1">
  <advance width="546.0"/>
  <unicode hex="0036"/>
  <outline>
    <contour>
      <point x="218.0" y="28"/>
      <point x="156.0" y="120.0"/>
      <point x="156.0" y="205.0" type="curve" smooth="yes"/>
      <point x="156.0" y="285.0"/>
      <point x="184.0" y="359"/>
      <point x="264.0" y="359" type="curve" smooth="yes"/>
      <point x="354.0" y="359"/>
      <point x="411.0" y="257.0"/>
      <point x="411.0" y="177.0" type="curve" smooth="yes"/>
      <point x="411.0" y="88.0"/>
      <point x="375.0" y="28"/>
      <point x="308.0" y="28" type="curve" smooth="yes"/>
    </contour>
    <contour>
      <point x="45.0" y="83.0"/>
      <point x="148.0" y="-10"/>
      <point x="273.0" y="-10" type="curve" smooth="yes"/>
      <point x="393.0" y="-10"/>
      <point x="501.0" y="91.0"/>
      <point x="501.0" y="226.0" type="curve" smooth="yes"/>
      <point x="501.0" y="341.0"/>
      <point x="425.0" y="416"/>
      <point x="305.0" y="416" type="curve"/>
      <point x="234.0" y="416"/>
      <point x="203.0" y="389"/>
      <point x="164.0" y="351" type="curve"/>
      <point x="162.0" y="349"/>
      <point x="161.0" y="348"/>
      <point x="158.0" y="349" type="curve" smooth="yes"/>
      <point x="156.0" y="350"/>
      <point x="156.0" y="351"/>
      <point x="156.0" y="355" type="curve"/>
      <point x="167.0" y="474"/>
      <point x="304.0" y="569.0"/>
      <point x="385.0" y="604.0" type="curve" smooth="yes"/>
      <point x="394.0" y="608.0"/>
      <point x="395.0" y="614.0"/>
      <point x="393.0" y="619.0" type="curve" smooth="yes"/>
      <point x="388.0" y="631.0" type="line" smooth="yes"/>
      <point x="386.0" y="635.0"/>
      <point x="383.0" y="636.0"/>
      <point x="376.0" y="635.0" type="curve" smooth="yes"/>
      <point x="299.0" y="624.0"/>
      <point x="45.0" y="474.0"/>
      <point x="45.0" y="222.0" type="curve"/>
    </contour>
  </outline>
</glyph>
<glyph name="seven" format="1">
  <advance width="330"/>
  <unicode hex="0037"/>
  <outline>
    <contour>
      <point x="15.0" y="-138.0" type="line" smooth="yes"/>
      <point x="13" y="-144"/>
      <point x="11" y="-148"/>
      <point x="11" y="-153" type="curve" smooth="yes"/>
      <point x="11" y="-158"/>
      <point x="15" y="-162"/>
      <point x="21" y="-162" type="curve"/>
      <point x="28" y="-162" type="line"/>
      <point x="43" y="-162"/>
      <point x="46.0" y="-160.0"/>
      <point x="55.0" y="-143.0" type="curve" smooth="yes"/>
      <point x="313.0" y="435.0" type="line" smooth="yes"/>
      <point x="316.0" y="440.0"/>
      <point x="320.0" y="447.0"/>
      <point x="320.0" y="450.0" type="curve" smooth="yes"/>
      <point x="320.0" y="456.0"/>
      <point x="316.0" y="460.0"/>
      <point x="310.0" y="460.0" type="curve"/>
      <point x="72.0" y="460.0" type="line" smooth="yes"/>
      <point x="67.0" y="460.0"/>
      <point x="65.0" y="459.0"/>
      <point x="61.0" y="455.0" type="curve" smooth="yes"/>
      <point x="21.0" y="380.0" type="line" smooth="yes"/>
      <point x="19.0" y="378.0"/>
      <point x="20.0" y="376.0"/>
      <point x="21.0" y="375.0" type="curve" smooth="yes"/>
      <point x="30.0" y="366.0" type="line" smooth="yes"/>
      <point x="31.0" y="365.0"/>
      <point x="33.0" y="364.0"/>
      <point x="35.0" y="366.0" type="curve" smooth="yes"/>
      <point x="59.0" y="395.0" type="line" smooth="yes"/>
      <point x="63.0" y="399.0"/>
      <point x="65.0" y="400.0"/>
      <point x="74.0" y="400.0" type="curve" smooth="yes"/>
      <point x="189" y="400" type="line" smooth="yes"/>
      <point x="196" y="400"/>
      <point x="199" y="396"/>
      <point x="199" y="390" type="curve"/>
      <point x="199" y="386"/>
      <point x="199" y="385"/>
      <point x="194" y="376" type="curve" smooth="yes"/>
    </contour>
  </outline>
</glyph>
<glyph name="eight" format="1">
  <advance width="464.0"/>
  <unicode hex="0038"/>
  <outline>
    <contour>
      <point x="419.0" y="194" type="curve" smooth="yes"/>
      <point x="419.0" y="65" name="inserted"/>
      <point x="355.0" y="-10.0"/>
      <point x="228.0" y="-10.0" type="curve" smooth="yes"/>
      <point x="118.0" y="-10.0"/>
      <point x="45.0" y="69.0"/>
      <point x="45.0" y="172.0" type="curve" smooth="yes"/>
      <point x="45.0" y="239.0"/>
      <point x="85.0" y="286"/>
      <point x="157.0" y="334" type="curve" smooth="yes"/>
      <point x="160.0" y="336"/>
      <point x="162.0" y="337"/>
      <point x="162.0" y="340" type="curve" smooth="yes"/>
      <point x="162.0" y="342"/>
      <point x="161.0" y="344.0"/>
      <point x="158.0" y="346.0" type="curve" smooth="yes"/>
      <point x="105.0" y="392.0"/>
      <point x="80.0" y="440.0"/>
      <point x="80.0" y="493.0" type="curve" smooth="yes"/>
      <point x="80.0" y="580.0"/>
      <point x="135.0" y="640"/>
      <point x="231.0" y="640.0" type="curve" smooth="yes"/>
      <point x="310.0" y="640"/>
      <point x="374.0" y="585.0"/>
      <point x="373.0" y="509.0" type="curve" smooth="yes"/>
      <point x="373.0" y="459.0"/>
      <point x="349.0" y="420.0"/>
      <point x="300.0" y="388.0" type="curve" smooth="yes"/>
      <point x="296.0" y="385.0"/>
      <point x="295.0" y="382.0"/>
      <point x="295.0" y="379.0" type="curve" smooth="yes"/>
      <point x="295.0" y="376.0"/>
      <point x="297.25" y="372.75"/>
      <point x="300.0" y="370.0" type="curve"/>
      <point x="372.0" y="299.0" type="line" smooth="yes"/>
      <point x="402.0" y="269.0" name="inserted"/>
      <point x="419.0" y="231"/>
    </contour>
    <contour>
      <point x="309.0" y="507.0" type="curve" smooth="yes"/>
      <point x="309.0" y="563.0" name="inserted"/>
      <point x="277.0" y="605.0"/>
      <point x="226.0" y="605.0" type="curve" smooth="yes"/>
      <point x="186.0" y="606.0"/>
      <point x="150.0" y="574.0"/>
      <point x="150.0" y="533.0" type="curve" smooth="yes"/>
      <point x="150.0" y="510.0" name="inserted"/>
      <point x="160.0" y="482.0"/>
      <point x="189.0" y="458.0" type="curve" smooth="yes"/>
      <point x="250.0" y="408.0" type="line"/>
      <point x="252.75" y="405.75"/>
      <point x="258.0" y="403.0"/>
      <point x="261.0" y="403.0" type="curve" smooth="yes"/>
      <point x="264.0" y="403.0"/>
      <point x="267.0" y="405.0"/>
      <point x="270.0" y="408.0" type="curve" smooth="yes"/>
      <point x="291.0" y="434.0"/>
      <point x="309.0" y="475.0"/>
    </contour>
    <contour>
      <point x="343.0" y="128.0" type="curve" smooth="yes"/>
      <point x="343.0" y="161.0" name="inserted"/>
      <point x="328.0" y="198.0"/>
      <point x="289.0" y="232.0" type="curve" smooth="yes"/>
      <point x="205.0" y="305.0" type="line"/>
      <point x="202.25" y="307.5"/>
      <point x="198.0" y="310.0"/>
      <point x="194.0" y="310.0" type="curve" smooth="yes"/>
      <point x="190.0" y="310.0"/>
      <point x="185.0" y="308.0"/>
      <point x="181.0" y="305.0" type="curve" smooth="yes"/>
      <point x="135.0" y="266.0"/>
      <point x="120.0" y="241.0"/>
      <point x="120.0" y="169.0" type="curve" smooth="yes"/>
      <point x="120.0" y="74.0" name="inserted"/>
      <point x="161.0" y="25.0"/>
      <point x="228.0" y="25.0" type="curve" smooth="yes"/>
      <point x="291.0" y="25.0"/>
      <point x="343.0" y="71.0"/>
    </contour>
  </outline>
</glyph>
<glyph name="nine" format="1">
  <advance width="576"/>
  <unicode hex="0039"/>
  <outline>
    <contour>
      <point x="516" y="363"/>
      <point x="413" y="465"/>
      <point x="288" y="465" type="curve" smooth="yes"/>
      <point x="168" y="465"/>
      <point x="60" y="375"/>
      <point x="60" y="205" type="curve" smooth="yes"/>
      <point x="60" y="90"/>
      <point x="136" y="-10"/>
      <point x="256" y="-10" type="curve"/>
      <point x="327" y="-10"/>
      <point x="358" y="17"/>
      <point x="397" y="55" type="curve"/>
      <point x="399" y="57"/>
      <point x="400" y="58"/>
      <point x="403" y="57" type="curve" smooth="yes"/>
      <point x="405" y="56"/>
      <point x="405" y="55"/>
      <point x="405" y="51" type="curve"/>
      <point x="394" y="-68"/>
      <point x="257" y="-163"/>
      <point x="176" y="-198" type="curve" smooth="yes"/>
      <point x="167" y="-202"/>
      <point x="166" y="-208"/>
      <point x="168" y="-213" type="curve" smooth="yes"/>
      <point x="173" y="-225" type="line" smooth="yes"/>
      <point x="175" y="-229"/>
      <point x="178" y="-230"/>
      <point x="185" y="-229" type="curve" smooth="yes"/>
      <point x="262" y="-218"/>
      <point x="516" y="-43"/>
      <point x="516" y="209" type="curve"/>
    </contour>
    <contour>
      <point x="343" y="427"/>
      <point x="405" y="311"/>
      <point x="405" y="226" type="curve" smooth="yes"/>
      <point x="405" y="146"/>
      <point x="377" y="47"/>
      <point x="297" y="47" type="curve" smooth="yes"/>
      <point x="207" y="47"/>
      <point x="150" y="174"/>
      <point x="150" y="254" type="curve" smooth="yes"/>
      <point x="150" y="353"/>
      <point x="186" y="427"/>
      <point x="253" y="427" type="curve" smooth="yes"/>
    </contour>
  </outline>
</glyph>
<glyph name="colon" format="1">
  <advance width="221"/>
  <unicode hex="003A"/>
  <outline>
    <contour>
      <point x="110" y="290" type="curve" smooth="yes"/>
      <point x="144" y="290"/>
      <point x="171" y="317"/>
      <point x="171" y="350" type="curve" smooth="yes"/>
      <point x="171" y="383"/>
      <point x="144" y="411"/>
      <point x="110" y="411" type="curve" smooth="yes"/>
      <point x="78" y="411"/>
      <point x="50" y="383"/>
      <point x="50" y="350" type="curve" smooth="yes"/>
      <point x="50" y="317"/>
      <point x="78" y="290"/>
    </contour>
    <contour>
      <point x="110" y="-10" type="curve" smooth="yes"/>
      <point x="144" y="-10"/>
      <point x="171" y="17"/>
      <point x="171" y="50" type="curve" smooth="yes"/>
      <point x="171" y="83"/>
      <point x="144" y="111"/>
      <point x="110" y="111" type="curve" smooth="yes"/>
      <point x="78" y="111"/>
      <point x="50" y="83"/>
      <point x="50" y="50" type="curve" smooth="yes"/>
      <point x="50" y="17"/>
      <point x="78" y="-10"/>
    </contour>
  </outline>
</glyph>
<glyph name="semicolon" format="1">
  <advance width="291.440491736"/>
  <unicode hex="003B"/>
  <outline>
    <contour>
      <point x="72" y="-115" type="curve"/>
      <point x="115" y="-102"/>
      <point x="241" y="-71"/>
      <point x="241" y="111" type="curve"/>
      <point x="241" y="114"/>
      <point x="239" y="116"/>
      <point x="236" y="116" type="curve"/>
      <point x="110" y="116" type="line"/>
      <point x="105" y="116"/>
      <point x="101" y="112"/>
      <point x="101" y="107" type="curve"/>
      <point x="101" y="99" type="line"/>
      <point x="101" y="94"/>
      <point x="105" y="90"/>
      <point x="110" y="90" type="curve"/>
      <point x="126" y="90" type="line"/>
      <point x="134" y="90"/>
      <point x="141" y="85"/>
      <point x="141" y="78" type="curve"/>
      <point x="141" y="3"/>
      <point x="133" y="-50"/>
      <point x="56" y="-93" type="curve"/>
      <point x="48" y="-98"/>
      <point x="48" y="-107"/>
      <point x="53" y="-112" type="curve"/>
      <point x="57" y="-116"/>
      <point x="66" y="-116"/>
    </contour>
    <contour>
      <point x="170" y="290" type="curve" smooth="yes"/>
      <point x="204" y="290"/>
      <point x="231" y="317"/>
      <point x="231" y="350" type="curve" smooth="yes"/>
      <point x="231" y="383"/>
      <point x="204" y="411"/>
      <point x="170" y="411" type="curve" smooth="yes"/>
      <point x="138" y="411"/>
      <point x="110" y="383"/>
      <point x="110" y="350" type="curve" smooth="yes"/>
      <point x="110" y="317"/>
      <point x="138" y="290"/>
    </contour>
  </outline>
</glyph>
<glyph name="equal" format="1">
  <advance width="500"/>
  <unicode hex="003D"/>
  <outline>
    <contour>
      <point x="430" y="122" type="line"/>
      <point x="436" y="122"/>
      <point x="440" y="126"/>
      <point x="440" y="132" type="curve"/>
      <point x="440" y="184" type="line"/>
      <point x="440" y="190"/>
      <point x="436" y="194"/>
      <point x="430" y="194" type="curve"/>
      <point x="86" y="194" type="line"/>
      <point x="80" y="194"/>
      <point x="76" y="190"/>
      <point x="76" y="184" type="curve"/>
      <point x="76" y="132" type="line"/>
      <point x="76" y="126"/>
      <point x="80" y="122"/>
      <point x="86" y="122" type="curve"/>
    </contour>
    <contour>
      <point x="430" y="266" type="line"/>
      <point x="436" y="266"/>
      <point x="440" y="270"/>
      <point x="440" y="276" type="curve"/>
      <point x="440" y="328" type="line"/>
      <point x="440" y="334"/>
      <point x="436" y="338"/>
      <point x="430" y="338" type="curve"/>
      <point x="86" y="338" type="line"/>
      <point x="80" y="338"/>
      <point x="76" y="334"/>
      <point x="76" y="328" type="curve"/>
      <point x="76" y="276" type="line"/>
      <point x="76" y="270"/>
      <point x="80" y="266"/>
      <point x="86" y="266" type="curve"/>
    </contour>
  </outline>
</glyph>
<glyph name="question" format="1">
  <advance width="480.0"/>
  <unicode hex="003F"/>
  <outline>
    <contour>
      <point x="269.0" y="-5.0" type="curve" smooth="yes"/>
      <point x="303.0" y="-5.0"/>
      <point x="330.0" y="22.0"/>
      <point x="330.0" y="55.0" type="curve" smooth="yes"/>
      <point x="330.0" y="88.0"/>
      <point x="303.0" y="116.0"/>
      <point x="269.0" y="116.0" type="curve" smooth="yes"/>
      <point x="237.0" y="116.0"/>
      <point x="209.0" y="88.0"/>
      <point x="209.0" y="55.0" type="curve" smooth="yes"/>
      <point x="209.0" y="22.0"/>
      <point x="237.0" y="-5.0"/>
    </contour>
    <contour>
      <point x="278.0" y="264"/>
      <point x="307.0" y="244"/>
      <point x="346.0" y="227" type="curve" smooth="yes"/>
      <point x="356.0" y="222"/>
      <point x="354.0" y="215.0"/>
      <point x="346.0" y="207.0" type="curve"/>
      <point x="302.0" y="167" type="line"/>
      <point x="298.0" y="163"/>
      <point x="292.0" y="162.0"/>
      <point x="289.0" y="162.0" type="curve"/>
      <point x="271.0" y="162.0"/>
      <point x="204.0" y="211.0"/>
      <point x="204.0" y="237.0" type="curve"/>
      <point x="204.0" y="241.0"/>
      <point x="204.0" y="244"/>
      <point x="212.0" y="254" type="curve"/>
      <point x="275.0" y="334" type="line" smooth="yes"/>
      <point x="303.0" y="370"/>
      <point x="340.0" y="405.0"/>
      <point x="340.0" y="496.0" type="curve"/>
      <point x="340.0" y="576.0"/>
      <point x="299.0" y="638.0"/>
      <point x="221.0" y="638.0" type="curve"/>
      <point x="136.0" y="638.0"/>
      <point x="84.0" y="584.0"/>
      <point x="84.0" y="519.0" type="curve"/>
      <point x="84.0" y="516.0"/>
      <point x="82.0" y="514"/>
      <point x="79.0" y="514" type="curve"/>
      <point x="55.0" y="514.0" type="line"/>
      <point x="51.0" y="514.0"/>
      <point x="50.0" y="516.0"/>
      <point x="50.0" y="519.0" type="curve"/>
      <point x="50.0" y="593.0"/>
      <point x="117.0" y="690.0"/>
      <point x="241.0" y="690.0" type="curve" smooth="yes"/>
      <point x="366.0" y="690.0"/>
      <point x="430.0" y="617.0"/>
      <point x="430.0" y="541.0" type="curve"/>
      <point x="430.0" y="459.0"/>
      <point x="392.0" y="422"/>
      <point x="362.0" y="392" type="curve"/>
      <point x="290.0" y="321" type="line"/>
      <point x="282.0" y="313"/>
      <point x="278.0" y="303"/>
      <point x="278.0" y="296" type="curve"/>
    </contour>
  </outline>
</glyph>
<glyph name="at" format="1">
  <advance width="908"/>
  <unicode hex="0040"/>
  <outline>
    <contour>
      <point x="697" y="-45" type="curve" smooth="yes"/>
      <point x="817" y="-45"/>
      <point x="868" y="72"/>
      <point x="868" y="247" type="curve" smooth="yes"/>
      <point x="868" y="498"/>
      <point x="737" y="636"/>
      <point x="506" y="636" type="curve" smooth="yes"/>
      <point x="272" y="636"/>
      <point x="90" y="513"/>
      <point x="90" y="220" type="curve" smooth="yes"/>
      <point x="90" y="-165"/>
      <point x="349" y="-221"/>
      <point x="570" y="-221" type="curve" smooth="yes"/>
      <point x="663" y="-221"/>
      <point x="775" y="-167"/>
      <point x="817" y="-146" type="curve" smooth="yes"/>
      <point x="824" y="-142"/>
      <point x="827" y="-132"/>
      <point x="823" y="-128" type="curve" smooth="yes"/>
      <point x="805" y="-108" type="line" smooth="yes"/>
      <point x="801" y="-103"/>
      <point x="792" y="-102"/>
      <point x="784" y="-106" type="curve" smooth="yes"/>
      <point x="743" y="-127"/>
      <point x="647" y="-165"/>
      <point x="570" y="-165" type="curve" smooth="yes"/>
      <point x="350" y="-165"/>
      <point x="186" y="-72"/>
      <point x="185" y="220" type="curve" smooth="yes"/>
      <point x="184" y="441"/>
      <point x="342" y="572"/>
      <point x="520" y="572" type="curve" smooth="yes"/>
      <point x="666" y="572"/>
      <point x="817" y="453"/>
      <point x="817" y="245" type="curve" smooth="yes"/>
      <point x="817" y="100"/>
      <point x="761" y="6"/>
      <point x="696" y="6" type="curve" smooth="yes"/>
      <point x="675" y="6"/>
      <point x="662" y="20"/>
      <point x="662" y="36" type="curve" smooth="yes"/>
      <point x="662" y="325" type="line" smooth="yes"/>
      <point x="662" y="380"/>
      <point x="642" y="400"/>
      <point x="587" y="400" type="curve"/>
      <point x="417" y="395" type="line"/>
      <point x="414" y="395"/>
      <point x="412" y="393"/>
      <point x="412" y="390" type="curve"/>
      <point x="412" y="374" type="line"/>
      <point x="412" y="371"/>
      <point x="414" y="369"/>
      <point x="417" y="369" type="curve"/>
      <point x="532" y="371" type="line" smooth="yes"/>
      <point x="552" y="371"/>
      <point x="567" y="356"/>
      <point x="567" y="331" type="curve" smooth="yes"/>
      <point x="567" y="290" type="line"/>
      <point x="567" y="287"/>
      <point x="565" y="285"/>
      <point x="562" y="285" type="curve"/>
      <point x="422" y="290" type="line"/>
      <point x="367" y="290"/>
      <point x="332" y="255"/>
      <point x="332" y="200" type="curve" smooth="yes"/>
      <point x="332" y="75" type="line" smooth="yes"/>
      <point x="332" y="30"/>
      <point x="377" y="-5"/>
      <point x="447" y="-5" type="curve" smooth="yes"/>
      <point x="502" y="-5"/>
      <point x="559" y="44"/>
      <point x="563" y="44" type="curve" smooth="yes"/>
      <point x="565" y="44"/>
      <point x="567" y="42"/>
      <point x="567" y="38" type="curve"/>
      <point x="567" y="30" type="line" smooth="yes"/>
      <point x="567" y="3"/>
      <point x="618" y="-45"/>
    </contour>
    <contour>
      <point x="547" y="62"/>
      <point x="518" y="41"/>
      <point x="493" y="41" type="curve" smooth="yes"/>
      <point x="463" y="41"/>
      <point x="427" y="57"/>
      <point x="427" y="92" type="curve"/>
      <point x="427" y="205" type="line"/>
      <point x="427" y="235"/>
      <point x="447" y="260"/>
      <point x="477" y="260" type="curve" smooth="yes"/>
      <point x="562" y="260" type="line"/>
      <point x="565" y="260"/>
      <point x="567" y="258"/>
      <point x="567" y="255" type="curve"/>
      <point x="567" y="97" type="line"/>
      <point x="567" y="88"/>
      <point x="567" y="82"/>
      <point x="562" y="77" type="curve"/>
    </contour>
  </outline>
</glyph>
<glyph name="A" format="1">
  <advance width="719"/>
  <unicode hex="0041"/>
  <outline>
    <contour>
      <point x="516.0" y="155.0" type="line"/>
      <point x="516.0" y="218.0" type="line"/>
      <point x="454.0" y="218.0" type="line"/>
      <point x="459.0" y="207.0"/>
      <point x="459.0" y="206.0"/>
      <point x="447.0" y="206.0" type="curve"/>
      <point x="186.0" y="206.0" type="line"/>
      <point x="179.0" y="206.0"/>
      <point x="179.0" y="208.0"/>
      <point x="181.0" y="214.0" type="curve"/>
      <point x="150.0" y="214.0" type="line"/>
      <point x="150.0" y="155.0" type="line"/>
      <point x="158.0" y="155.0" type="line"/>
      <point x="164.0" y="170.0"/>
      <point x="168" y="170"/>
      <point x="181" y="170" type="curve"/>
      <point x="466.0" y="170.0" type="line"/>
      <point x="476.0" y="170.0"/>
      <point x="479.0" y="164.0"/>
      <point x="483.0" y="155.0" type="curve"/>
    </contour>
    <contour>
      <point x="163" y="0"/>
      <point x="167" y="4"/>
      <point x="167" y="10" type="curve"/>
      <point x="167" y="16" type="line"/>
      <point x="167" y="22"/>
      <point x="163" y="26"/>
      <point x="157" y="26" type="curve"/>
      <point x="139" y="26" type="line"/>
      <point x="125" y="26"/>
      <point x="118" y="34"/>
      <point x="118" y="46" type="curve" smooth="yes"/>
      <point x="118" y="51"/>
      <point x="119" y="55"/>
      <point x="121" y="60" type="curve" smooth="yes"/>
      <point x="303" y="527" type="line" smooth="yes"/>
      <point x="304" y="529"/>
      <point x="305" y="530"/>
      <point x="307" y="530" type="curve"/>
      <point x="309" y="530"/>
      <point x="310" y="529"/>
      <point x="311" y="527" type="curve" smooth="yes"/>
      <point x="552" y="6" type="line"/>
      <point x="554" y="2"/>
      <point x="558" y="0"/>
      <point x="563" y="0" type="curve"/>
      <point x="710" y="0" type="line"/>
      <point x="716" y="0"/>
      <point x="720" y="4"/>
      <point x="720" y="10" type="curve"/>
      <point x="720" y="16" type="line"/>
      <point x="720" y="22"/>
      <point x="716" y="26"/>
      <point x="710" y="26" type="curve"/>
      <point x="686" y="26" type="line"/>
      <point x="676" y="26"/>
      <point x="672" y="30"/>
      <point x="668" y="38" type="curve"/>
      <point x="364" y="690" type="line"/>
      <point x="362" y="698"/>
      <point x="358" y="700"/>
      <point x="350" y="700" type="curve"/>
      <point x="198" y="700" type="line"/>
      <point x="190" y="700"/>
      <point x="188" y="696"/>
      <point x="188" y="690" type="curve"/>
      <point x="188" y="684" type="line"/>
      <point x="188" y="678"/>
      <point x="190" y="674"/>
      <point x="198" y="674" type="curve"/>
      <point x="208" y="674" type="line"/>
      <point x="242" y="674"/>
      <point x="249" y="656"/>
      <point x="265" y="622" type="curve" smooth="yes"/>
      <point x="276" y="599"/>
      <point x="277" y="597"/>
      <point x="277" y="594" type="curve"/>
      <point x="277" y="591"/>
      <point x="276" y="588"/>
      <point x="274" y="583" type="curve" smooth="yes"/>
      <point x="66" y="52" type="line" smooth="yes"/>
      <point x="59" y="34"/>
      <point x="46" y="26"/>
      <point x="26" y="26" type="curve"/>
      <point x="16" y="26" type="line"/>
      <point x="10" y="26"/>
      <point x="6" y="22"/>
      <point x="6" y="16" type="curve"/>
      <point x="6" y="10" type="line"/>
      <point x="6" y="4"/>
      <point x="10" y="0"/>
      <point x="16" y="0" type="curve"/>
      <point x="157" y="0" type="line"/>
    </contour>
  </outline>
</glyph>
<glyph name="B" format="1">
  <advance width="569.0"/>
  <unicode hex="0042"/>
  <outline>
    <contour>
      <point x="425.0" y="68.0"/>
      <point x="364.0" y="26"/>
      <point x="265.0" y="26.0" type="curve" smooth="yes"/>
      <point x="170.0" y="26" type="line"/>
      <point x="167.0" y="26"/>
      <point x="165.0" y="28"/>
      <point x="165.0" y="31" type="curve"/>
      <point x="165.0" y="669.0" type="line" smooth="yes"/>
      <point x="165.0" y="672"/>
      <point x="167.0" y="674.0"/>
      <point x="170.0" y="674.0" type="curve" smooth="yes"/>
      <point x="260.0" y="674.0" type="line" smooth="yes"/>
      <point x="350.0" y="674.0"/>
      <point x="392.0" y="618.0"/>
      <point x="392.0" y="550.0" type="curve" smooth="yes"/>
      <point x="392.0" y="451.0"/>
      <point x="367.0" y="406.0"/>
      <point x="260.0" y="406.0" type="curve"/>
      <point x="170.0" y="406.0" type="line"/>
      <point x="167.0" y="406.0"/>
      <point x="165.0" y="408.0"/>
      <point x="165.0" y="411.0" type="curve"/>
      <point x="157.0" y="411.0" type="line"/>
      <point x="157.0" y="371.0" type="line"/>
      <point x="165.0" y="371.0" type="line"/>
      <point x="165.0" y="374.0"/>
      <point x="167.0" y="376.0"/>
      <point x="170.0" y="376.0" type="curve"/>
      <point x="265.0" y="376.0" type="line"/>
      <point x="368.0" y="376.0"/>
      <point x="425.0" y="314.0"/>
      <point x="425.0" y="195.0" type="curve" smooth="yes"/>
    </contour>
    <contour>
      <point x="315.0" y="0.0" type="line" smooth="yes"/>
      <point x="448.0" y="0.0"/>
      <point x="545.0" y="55"/>
      <point x="545.0" y="195" type="curve" smooth="yes"/>
      <point x="545.0" y="303"/>
      <point x="498.0" y="367"/>
      <point x="388.0" y="390" type="curve"/>
      <point x="385.0" y="391"/>
      <point x="383.0" y="391"/>
      <point x="383.0" y="393" type="curve"/>
      <point x="383.0" y="395"/>
      <point x="385.0" y="395"/>
      <point x="388.0" y="396" type="curve"/>
      <point x="480.0" y="417"/>
      <point x="510.0" y="468"/>
      <point x="510.0" y="550" type="curve" smooth="yes"/>
      <point x="510.0" y="635"/>
      <point x="440.0" y="700.0"/>
      <point x="310.0" y="700.0" type="curve" smooth="yes"/>
      <point x="30.0" y="700.0" type="line"/>
      <point x="24.0" y="700.0"/>
      <point x="20.0" y="696.0"/>
      <point x="20.0" y="690.0" type="curve"/>
      <point x="20.0" y="684.0" type="line"/>
      <point x="20.0" y="678.0"/>
      <point x="24.0" y="674.0"/>
      <point x="30.0" y="674.0" type="curve"/>
      <point x="55.0" y="674.0" type="line"/>
      <point x="58.0" y="674.0"/>
      <point x="60.0" y="672.0"/>
      <point x="60.0" y="669.0" type="curve"/>
      <point x="60.0" y="31" type="line"/>
      <point x="60.0" y="28"/>
      <point x="58.0" y="26"/>
      <point x="55.0" y="26" type="curve"/>
      <point x="30.0" y="26.0" type="line"/>
      <point x="24.0" y="26.0"/>
      <point x="20.0" y="22.0"/>
      <point x="20.0" y="16.0" type="curve"/>
      <point x="20.0" y="10.0" type="line"/>
      <point x="20.0" y="4.0"/>
      <point x="24.0" y="0.0"/>
      <point x="30.0" y="0.0" type="curve"/>
    </contour>
  </outline>
</glyph>
<glyph name="C" format="1">
  <advance width="744.63825924"/>
  <unicode hex="0043"/>
  <outline>
    <contour>
      <point x="660" y="127" type="curve"/>
      <point x="596" y="62"/>
      <point x="554" y="31"/>
      <point x="420" y="30" type="curve"/>
      <point x="305" y="32"/>
      <point x="146" y="110"/>
      <point x="145" y="355" type="curve"/>
      <point x="145" y="590"/>
      <point x="260" y="680"/>
      <point x="395" y="679" type="curve"/>
      <point x="454" y="679"/>
      <point x="513" y="655"/>
      <point x="535" y="606" type="curve"/>
      <point x="570" y="529" type="line"/>
      <point x="573" y="521"/>
      <point x="575" y="519"/>
      <point x="583" y="519" type="curve"/>
      <point x="700" y="519" type="line"/>
      <point x="706" y="519"/>
      <point x="710" y="523"/>
      <point x="710" y="529" type="curve"/>
      <point x="710" y="535" type="line"/>
      <point x="710" y="541"/>
      <point x="706" y="545"/>
      <point x="700" y="545" type="curve"/>
      <point x="690" y="545" type="line"/>
      <point x="685" y="545"/>
      <point x="681" y="547"/>
      <point x="680" y="550" type="curve"/>
      <point x="635" y="670" type="line"/>
      <point x="634" y="673"/>
      <point x="630" y="675"/>
      <point x="625" y="675" type="curve"/>
      <point x="583" y="675" type="line"/>
      <point x="576" y="675"/>
      <point x="574" y="676"/>
      <point x="565" y="680" type="curve" smooth="yes"/>
      <point x="515" y="704"/>
      <point x="458" y="715"/>
      <point x="395" y="715" type="curve" smooth="yes"/>
      <point x="225" y="715"/>
      <point x="25" y="600"/>
      <point x="25" y="355" type="curve" smooth="yes"/>
      <point x="25" y="110"/>
      <point x="210" y="-15"/>
      <point x="420" y="-15" type="curve" smooth="yes"/>
      <point x="552" y="-15"/>
      <point x="625" y="34"/>
      <point x="685" y="102" type="curve"/>
      <point x="694" y="111"/>
      <point x="692" y="115"/>
      <point x="685" y="122" type="curve" smooth="yes"/>
      <point x="680" y="127" type="line" smooth="yes"/>
      <point x="674" y="133"/>
      <point x="668" y="135"/>
    </contour>
  </outline>
</glyph>
<glyph name="D" format="1">
  <advance width="730"/>
  <unicode hex="0044"/>
  <outline>
    <contour>
      <point x="36" y="0" type="curve"/>
      <point x="30" y="0"/>
      <point x="26" y="4"/>
      <point x="26" y="10" type="curve"/>
      <point x="26" y="16" type="line"/>
      <point x="26" y="22"/>
      <point x="30" y="26"/>
      <point x="36" y="26" type="curve"/>
      <point x="61" y="26" type="line"/>
      <point x="64" y="26"/>
      <point x="66" y="28"/>
      <point x="66" y="31" type="curve"/>
      <point x="66" y="669" type="line"/>
      <point x="66" y="672"/>
      <point x="64" y="674"/>
      <point x="61" y="674" type="curve"/>
      <point x="36" y="674" type="line"/>
      <point x="30" y="674"/>
      <point x="26" y="678"/>
      <point x="26" y="684" type="curve"/>
      <point x="26" y="690" type="line"/>
      <point x="26" y="696"/>
      <point x="30" y="700"/>
      <point x="36" y="700" type="curve"/>
      <point x="36" y="700"/>
      <point x="321" y="700"/>
      <point x="321" y="700" type="curve"/>
      <point x="541" y="700"/>
      <point x="706" y="570"/>
      <point x="706" y="350" type="curve" smooth="yes"/>
      <point x="706" y="155"/>
      <point x="551" y="0"/>
      <point x="336" y="0" type="curve" smooth="yes"/>
      <point x="336" y="0"/>
      <point x="145" y="0"/>
    </contour>
    <contour>
      <point x="176" y="26" type="curve"/>
      <point x="291" y="26" type="line"/>
      <point x="446" y="26"/>
      <point x="586" y="120"/>
      <point x="586" y="350" type="curve" smooth="yes"/>
      <point x="586" y="565"/>
      <point x="456" y="674"/>
      <point x="316" y="674" type="curve"/>
      <point x="176" y="674" type="line"/>
      <point x="173" y="674"/>
      <point x="171" y="672"/>
      <point x="171" y="669" type="curve"/>
      <point x="171" y="31" type="line"/>
      <point x="171" y="28"/>
      <point x="173" y="26"/>
    </contour>
  </outline>
</glyph>
<glyph name="E" format="1">
  <advance width="555.0"/>
  <unicode hex="0045"/>
  <outline>
    <contour>
      <point x="535" y="3"/>
      <point x="532" y="1"/>
      <point x="528" y="0" type="curve"/>
      <point x="40" y="0" type="line"/>
      <point x="34" y="0"/>
      <point x="30" y="4"/>
      <point x="30" y="10" type="curve"/>
      <point x="30" y="16" type="line"/>
      <point x="30" y="22"/>
      <point x="34" y="26"/>
      <point x="40" y="26" type="curve"/>
      <point x="65" y="26" type="line"/>
      <point x="68" y="26"/>
      <point x="70" y="28"/>
      <point x="70" y="31" type="curve"/>
      <point x="70" y="669" type="line"/>
      <point x="70" y="672"/>
      <point x="68" y="674"/>
      <point x="65" y="674" type="curve"/>
      <point x="40" y="674" type="line"/>
      <point x="34" y="674"/>
      <point x="30" y="677"/>
      <point x="30" y="684" type="curve"/>
      <point x="30" y="690" type="line"/>
      <point x="30" y="697"/>
      <point x="33" y="700"/>
      <point x="40" y="700" type="curve"/>
      <point x="518" y="700" type="line"/>
      <point x="522" y="700"/>
      <point x="525" y="697"/>
      <point x="525" y="693" type="curve"/>
      <point x="525" y="585" type="line"/>
      <point x="525" y="580"/>
      <point x="523" y="578"/>
      <point x="519" y="578" type="curve"/>
      <point x="515" y="578"/>
      <point x="513" y="581"/>
      <point x="508" y="585" type="curve" smooth="yes"/>
      <point x="424" y="669" type="line"/>
      <point x="424" y="669"/>
      <point x="419" y="674"/>
      <point x="414" y="674" type="curve"/>
      <point x="180" y="674" type="line"/>
      <point x="177" y="674"/>
      <point x="175" y="672"/>
      <point x="175" y="669" type="curve"/>
      <point x="175" y="411" type="line"/>
      <point x="175" y="408"/>
      <point x="177" y="406"/>
      <point x="180" y="406" type="curve"/>
      <point x="345" y="406" type="line"/>
      <point x="350" y="406"/>
      <point x="356" y="408"/>
      <point x="360" y="411" type="curve" smooth="yes"/>
      <point x="418" y="456" type="line" smooth="yes"/>
      <point x="423" y="460"/>
      <point x="425" y="462"/>
      <point x="429" y="462" type="curve"/>
      <point x="433" y="462"/>
      <point x="435" y="459"/>
      <point x="435" y="455" type="curve"/>
      <point x="435" y="327" type="line"/>
      <point x="435" y="322"/>
      <point x="433" y="320"/>
      <point x="429" y="320" type="curve"/>
      <point x="426" y="320"/>
      <point x="423" y="322"/>
      <point x="418" y="326" type="curve" smooth="yes"/>
      <point x="360" y="371" type="line" smooth="yes"/>
      <point x="356" y="374"/>
      <point x="350" y="376"/>
      <point x="345" y="376" type="curve"/>
      <point x="180" y="376" type="line"/>
      <point x="177" y="376"/>
      <point x="175" y="374"/>
      <point x="175" y="371" type="curve"/>
      <point x="175" y="31" type="line"/>
      <point x="175" y="28"/>
      <point x="177" y="26"/>
      <point x="180" y="26" type="curve"/>
      <point x="410" y="26" type="line"/>
      <point x="414" y="26"/>
      <point x="418" y="29"/>
      <point x="420" y="31" type="curve"/>
      <point x="518" y="129" type="line" smooth="yes"/>
      <point x="523" y="134"/>
      <point x="526" y="138"/>
      <point x="529" y="138" type="curve"/>
      <point x="533" y="138"/>
      <point x="535" y="136"/>
      <point x="535" y="131" type="curve"/>
      <point x="535" y="7" type="line"/>
    </contour>
  </outline>
</glyph>
<glyph name="F" format="1">
  <advance width="510"/>
  <unicode hex="0046"/>
  <outline>
    <contour>
      <point x="75" y="-74"/>
      <point x="77" y="-71"/>
      <point x="82" y="-67" type="curve" smooth="yes"/>
      <point x="166" y="17" type="line" smooth="yes"/>
      <point x="169" y="20"/>
      <point x="170" y="23"/>
      <point x="170" y="32" type="curve"/>
      <point x="170" y="371" type="line"/>
      <point x="170" y="374"/>
      <point x="172" y="376"/>
      <point x="175" y="376" type="curve"/>
      <point x="340" y="376" type="line"/>
      <point x="345" y="376"/>
      <point x="351" y="374"/>
      <point x="355" y="371" type="curve" smooth="yes"/>
      <point x="413" y="326" type="line" smooth="yes"/>
      <point x="418" y="322"/>
      <point x="421" y="320"/>
      <point x="424" y="320" type="curve"/>
      <point x="428" y="320"/>
      <point x="430" y="322"/>
      <point x="430" y="327" type="curve"/>
      <point x="430" y="455" type="line"/>
      <point x="430" y="459"/>
      <point x="428" y="462"/>
      <point x="424" y="462" type="curve"/>
      <point x="420" y="462"/>
      <point x="418" y="460"/>
      <point x="413" y="456" type="curve" smooth="yes"/>
      <point x="355" y="411" type="line" smooth="yes"/>
      <point x="351" y="408"/>
      <point x="345" y="406"/>
      <point x="340" y="406" type="curve"/>
      <point x="175" y="406" type="line"/>
      <point x="172" y="406"/>
      <point x="170" y="408"/>
      <point x="170" y="411" type="curve"/>
      <point x="170" y="669" type="line"/>
      <point x="170" y="672"/>
      <point x="172" y="674"/>
      <point x="175" y="674" type="curve"/>
      <point x="409" y="674" type="line"/>
      <point x="414" y="674"/>
      <point x="419" y="669"/>
      <point x="419" y="669" type="curve"/>
      <point x="503" y="585" type="line" smooth="yes"/>
      <point x="508" y="581"/>
      <point x="510" y="578"/>
      <point x="514" y="578" type="curve"/>
      <point x="518" y="578"/>
      <point x="520" y="580"/>
      <point x="520" y="585" type="curve"/>
      <point x="520" y="693" type="line"/>
      <point x="520" y="697"/>
      <point x="517" y="700"/>
      <point x="513" y="700" type="curve"/>
      <point x="35" y="700" type="line"/>
      <point x="28" y="700"/>
      <point x="25" y="697"/>
      <point x="25" y="690" type="curve"/>
      <point x="25" y="684" type="line"/>
      <point x="25" y="677"/>
      <point x="29" y="674"/>
      <point x="35" y="674" type="curve"/>
      <point x="60" y="674" type="line"/>
      <point x="63" y="674"/>
      <point x="65" y="672"/>
      <point x="65" y="669" type="curve"/>
      <point x="65" y="-67" type="line"/>
      <point x="65" y="-72"/>
      <point x="67" y="-74"/>
      <point x="71" y="-74" type="curve"/>
    </contour>
  </outline>
</glyph>
<glyph name="G" format="1">
  <advance width="788"/>
  <unicode hex="0047"/>
  <outline>
    <contour>
      <point x="523" y="-15"/>
      <point x="603" y="41"/>
      <point x="652" y="80" type="curve" smooth="yes"/>
      <point x="664" y="89"/>
      <point x="677" y="100"/>
      <point x="702" y="100" type="curve" smooth="yes"/>
      <point x="759" y="100" type="line"/>
      <point x="762" y="100"/>
      <point x="764" y="102"/>
      <point x="764" y="105" type="curve"/>
      <point x="764" y="395" type="line"/>
      <point x="764" y="398"/>
      <point x="762" y="400"/>
      <point x="759" y="400" type="curve"/>
      <point x="629" y="400" type="line"/>
      <point x="623" y="400"/>
      <point x="619" y="395"/>
      <point x="619" y="390" type="curve"/>
      <point x="619" y="380" type="line"/>
      <point x="619" y="374"/>
      <point x="623" y="370"/>
      <point x="629" y="370" type="curve"/>
      <point x="650" y="370" type="line"/>
      <point x="653" y="370"/>
      <point x="655" y="368"/>
      <point x="655" y="365" type="curve"/>
      <point x="655" y="156" type="line"/>
      <point x="655" y="138"/>
      <point x="653" y="127"/>
      <point x="634" y="110" type="curve" smooth="yes"/>
      <point x="585" y="66"/>
      <point x="530" y="30"/>
      <point x="421" y="30" type="curve"/>
      <point x="306" y="32"/>
      <point x="147" y="110"/>
      <point x="146" y="355" type="curve"/>
      <point x="146" y="590"/>
      <point x="261" y="680"/>
      <point x="416" y="679" type="curve"/>
      <point x="500" y="679"/>
      <point x="562" y="665"/>
      <point x="589" y="605" type="curve" smooth="yes"/>
      <point x="624" y="528" type="line"/>
      <point x="627" y="520"/>
      <point x="629" y="518"/>
      <point x="637" y="518" type="curve"/>
      <point x="754" y="518" type="line"/>
      <point x="760" y="518"/>
      <point x="764" y="522"/>
      <point x="764" y="528" type="curve"/>
      <point x="764" y="534" type="line"/>
      <point x="764" y="540"/>
      <point x="760" y="544"/>
      <point x="754" y="544" type="curve"/>
      <point x="744" y="544" type="line"/>
      <point x="739" y="544"/>
      <point x="735" y="546"/>
      <point x="734" y="549" type="curve"/>
      <point x="689" y="669" type="line"/>
      <point x="688" y="672"/>
      <point x="684" y="674"/>
      <point x="679" y="674" type="curve"/>
      <point x="637" y="674" type="line"/>
      <point x="630" y="674"/>
      <point x="628" y="675"/>
      <point x="619" y="679" type="curve" smooth="yes"/>
      <point x="559" y="703"/>
      <point x="514" y="715"/>
      <point x="416" y="715" type="curve" smooth="yes"/>
      <point x="226" y="715"/>
      <point x="26" y="600"/>
      <point x="26" y="355" type="curve" smooth="yes"/>
      <point x="26" y="110"/>
      <point x="211" y="-15"/>
      <point x="421" y="-15" type="curve" smooth="yes"/>
    </contour>
  </outline>
</glyph>
<glyph name="H" format="1">
  <advance width="715.0"/>
  <unicode hex="0048"/>
  <outline>
    <contour>
      <point x="675.0" y="0" type="curve"/>
      <point x="535.0" y="0" type="line"/>
      <point x="532.0" y="0"/>
      <point x="530.0" y="2"/>
      <point x="530.0" y="5" type="curve"/>
      <point x="530.0" y="360.0" type="line"/>
      <point x="530.0" y="366.0"/>
      <point x="526.0" y="370.0"/>
      <point x="520.0" y="370.0" type="curve"/>
      <point x="186" y="370" type="line"/>
      <point x="180" y="370"/>
      <point x="176" y="366"/>
      <point x="176" y="360" type="curve"/>
      <point x="175.0" y="31" type="line"/>
      <point x="175.0" y="28"/>
      <point x="177.0" y="26"/>
      <point x="180.0" y="26" type="curve"/>
      <point x="205.0" y="26.0" type="line"/>
      <point x="211.0" y="26.0"/>
      <point x="215.0" y="22.0"/>
      <point x="215.0" y="16.0" type="curve"/>
      <point x="215.0" y="10.0" type="line"/>
      <point x="215.0" y="4.0"/>
      <point x="211.0" y="0.0"/>
      <point x="205.0" y="0.0" type="curve"/>
      <point x="75.0" y="0" type="line"/>
      <point x="72.0" y="0"/>
      <point x="70.0" y="2"/>
      <point x="70.0" y="5" type="curve"/>
      <point x="72" y="670" type="line"/>
      <point x="72" y="670"/>
      <point x="72" y="670"/>
      <point x="64" y="670" type="curve"/>
      <point x="40" y="670" type="line"/>
      <point x="32" y="670"/>
      <point x="32" y="678"/>
      <point x="32" y="686" type="curve"/>
      <point x="32" y="686" type="line"/>
      <point x="32" y="694"/>
      <point x="32" y="702"/>
      <point x="40" y="702" type="curve"/>
      <point x="168" y="702" type="line"/>
      <point x="176" y="702"/>
      <point x="176" y="694"/>
      <point x="176" y="694" type="curve"/>
      <point x="176" y="410" type="line"/>
      <point x="176" y="404"/>
      <point x="180" y="400"/>
      <point x="186" y="400" type="curve"/>
      <point x="520.0" y="400.0" type="line"/>
      <point x="526.0" y="400.0"/>
      <point x="530.0" y="404.0"/>
      <point x="530.0" y="410.0" type="curve"/>
      <point x="530.0" y="669" type="line"/>
      <point x="530.0" y="672"/>
      <point x="528.0" y="674"/>
      <point x="525.0" y="674" type="curve"/>
      <point x="500.0" y="674.0" type="line"/>
      <point x="494.0" y="674.0"/>
      <point x="490.0" y="678.0"/>
      <point x="490.0" y="684.0" type="curve"/>
      <point x="490.0" y="690.0" type="line"/>
      <point x="490.0" y="696.0"/>
      <point x="494.0" y="700.0"/>
      <point x="500.0" y="700.0" type="curve"/>
      <point x="630.0" y="700" type="line"/>
      <point x="633.0" y="700"/>
      <point x="635.0" y="698"/>
      <point x="635.0" y="695" type="curve"/>
      <point x="635.0" y="31" type="line"/>
      <point x="635.0" y="28"/>
      <point x="637.0" y="26"/>
      <point x="640.0" y="26" type="curve"/>
      <point x="675.0" y="26.0" type="line"/>
      <point x="681.0" y="26.0"/>
      <point x="685.0" y="22.0"/>
      <point x="685.0" y="16.0" type="curve"/>
      <point x="685.0" y="10.0" type="line"/>
      <point x="685.0" y="4.0"/>
      <point x="681.0" y="0"/>
    </contour>
  </outline>
</glyph>
<glyph name="I" format="1">
  <advance width="255.0"/>
  <unicode hex="0049"/>
  <outline>
    <contour>
      <point x="75" y="2"/>
      <point x="77" y="0"/>
      <point x="80" y="0" type="curve"/>
      <point x="215" y="0" type="line"/>
      <point x="221" y="0"/>
      <point x="225" y="4"/>
      <point x="225" y="10" type="curve"/>
      <point x="225" y="16" type="line"/>
      <point x="225" y="22"/>
      <point x="221" y="26"/>
      <point x="215" y="26" type="curve"/>
      <point x="185" y="26" type="line"/>
      <point x="182" y="26"/>
      <point x="180" y="28"/>
      <point x="180" y="31" type="curve"/>
      <point x="180" y="695" type="line"/>
      <point x="180" y="698"/>
      <point x="178" y="700"/>
      <point x="175" y="700" type="curve"/>
      <point x="40" y="700" type="line"/>
      <point x="34" y="700"/>
      <point x="30" y="696"/>
      <point x="30" y="690" type="curve"/>
      <point x="30" y="684" type="line"/>
      <point x="30" y="678"/>
      <point x="34" y="674"/>
      <point x="40" y="674" type="curve"/>
      <point x="70" y="674" type="line"/>
      <point x="73" y="674"/>
      <point x="75" y="672"/>
      <point x="75" y="669" type="curve"/>
      <point x="75" y="5" type="line"/>
    </contour>
  </outline>
</glyph>
<glyph name="J" format="1">
  <advance width="375.0"/>
  <unicode hex="004A"/>
  <outline>
    <contour>
      <point x="10" y="7" type="curve" smooth="yes"/>
      <point x="27" y="-10"/>
      <point x="63" y="-31"/>
      <point x="115" y="-31" type="curve"/>
      <point x="214" y="-31"/>
      <point x="252.0" y="7.0"/>
      <point x="295.0" y="65.0" type="curve" smooth="yes"/>
      <point x="298.0" y="69.0"/>
      <point x="300.0" y="70.0"/>
      <point x="305.0" y="70.0" type="curve"/>
      <point x="340.0" y="70.0" type="line"/>
      <point x="343.0" y="70.0"/>
      <point x="345.0" y="72.0"/>
      <point x="345.0" y="75.0" type="curve"/>
      <point x="345.0" y="695.0" type="line"/>
      <point x="345.0" y="698.0"/>
      <point x="343.0" y="700.0"/>
      <point x="340.0" y="700.0" type="curve"/>
      <point x="205.0" y="700.0" type="line"/>
      <point x="199.0" y="700.0"/>
      <point x="195.0" y="696.0"/>
      <point x="195.0" y="690.0" type="curve"/>
      <point x="195.0" y="684.0" type="line"/>
      <point x="195.0" y="678.0"/>
      <point x="199.0" y="674.0"/>
      <point x="205.0" y="674.0" type="curve"/>
      <point x="235.0" y="674.0" type="line"/>
      <point x="238.0" y="674.0"/>
      <point x="240.0" y="677.0"/>
      <point x="240.0" y="674.0" type="curve"/>
      <point x="240.0" y="161.0" type="line"/>
      <point x="240.0" y="85.0"/>
      <point x="198" y="2"/>
      <point x="115" y="2" type="curve"/>
      <point x="79" y="2"/>
      <point x="52" y="12"/>
      <point x="30" y="26" type="curve" smooth="yes"/>
      <point x="22" y="31"/>
      <point x="18" y="32"/>
      <point x="13" y="27" type="curve" smooth="yes"/>
      <point x="9" y="23" type="line" smooth="yes"/>
      <point x="4" y="18"/>
      <point x="3" y="14"/>
    </contour>
  </outline>
</glyph>
<glyph name="K" format="1">
  <advance width="587"/>
  <unicode hex="004B"/>
  <outline>
    <contour>
      <point x="221" y="0"/>
      <point x="225" y="4"/>
      <point x="225" y="10" type="curve" smooth="yes"/>
      <point x="225" y="16" type="line" smooth="yes"/>
      <point x="225" y="22"/>
      <point x="221" y="26"/>
      <point x="215" y="26" type="curve" smooth="yes"/>
      <point x="185" y="26" type="line" smooth="yes"/>
      <point x="182" y="26"/>
      <point x="180" y="28"/>
      <point x="180" y="31" type="curve" smooth="yes"/>
      <point x="180" y="335" type="line"/>
      <point x="180" y="340"/>
      <point x="186" y="341"/>
      <point x="190" y="335" type="curve" smooth="yes"/>
      <point x="417" y="5" type="line" smooth="yes"/>
      <point x="419" y="2"/>
      <point x="422" y="0"/>
      <point x="427" y="0" type="curve"/>
      <point x="557" y="0" type="line" smooth="yes"/>
      <point x="563" y="0"/>
      <point x="567" y="4"/>
      <point x="567" y="10" type="curve" smooth="yes"/>
      <point x="567" y="16" type="line" smooth="yes"/>
      <point x="567" y="22"/>
      <point x="563" y="26"/>
      <point x="557" y="26" type="curve" smooth="yes"/>
      <point x="537" y="26" type="line" smooth="yes"/>
      <point x="532" y="26"/>
      <point x="529" y="28"/>
      <point x="527" y="31" type="curve" smooth="yes"/>
      <point x="268" y="401" type="line" smooth="yes"/>
      <point x="263" y="408"/>
      <point x="263" y="416"/>
      <point x="268" y="421" type="curve" smooth="yes"/>
      <point x="521" y="674" type="line" smooth="yes"/>
      <point x="528" y="681"/>
      <point x="531" y="684"/>
      <point x="531" y="690" type="curve" smooth="yes"/>
      <point x="531" y="696"/>
      <point x="527" y="700"/>
      <point x="521" y="700" type="curve"/>
      <point x="397" y="700" type="line"/>
      <point x="391" y="700"/>
      <point x="387" y="696"/>
      <point x="387" y="690" type="curve"/>
      <point x="387" y="684"/>
      <point x="389" y="682"/>
      <point x="397" y="674" type="curve" smooth="yes"/>
      <point x="426" y="645" type="line" smooth="yes"/>
      <point x="433" y="638"/>
      <point x="433" y="636"/>
      <point x="426" y="629" type="curve" smooth="yes"/>
      <point x="190" y="393" type="line"/>
      <point x="185" y="388"/>
      <point x="180" y="388"/>
      <point x="180" y="393" type="curve"/>
      <point x="180" y="695" type="line"/>
      <point x="180" y="698"/>
      <point x="178" y="700"/>
      <point x="175" y="700" type="curve"/>
      <point x="40" y="700" type="line"/>
      <point x="35" y="700"/>
      <point x="30" y="695"/>
      <point x="30" y="690" type="curve"/>
      <point x="30" y="684" type="line"/>
      <point x="30" y="679"/>
      <point x="35" y="674"/>
      <point x="40" y="674" type="curve"/>
      <point x="70" y="674" type="line"/>
      <point x="73" y="674"/>
      <point x="75" y="672"/>
      <point x="75" y="669" type="curve"/>
      <point x="75" y="5" type="line" smooth="yes"/>
      <point x="75" y="2"/>
      <point x="77" y="0"/>
      <point x="80" y="0" type="curve" smooth="yes"/>
      <point x="215" y="0" type="line" smooth="yes"/>
    </contour>
  </outline>
</glyph>
<glyph name="L" format="1">
  <advance width="476"/>
  <unicode hex="004C"/>
  <outline>
    <contour>
      <point x="30" y="4"/>
      <point x="34" y="0"/>
      <point x="40" y="0" type="curve"/>
      <point x="465" y="0" type="line"/>
      <point x="468" y="0"/>
      <point x="470" y="2"/>
      <point x="470" y="5" type="curve"/>
      <point x="470" y="131" type="line" smooth="yes"/>
      <point x="470" y="136"/>
      <point x="468" y="138"/>
      <point x="464" y="138" type="curve"/>
      <point x="461" y="138"/>
      <point x="458" y="134"/>
      <point x="453" y="129" type="curve" smooth="yes"/>
      <point x="355" y="31" type="line"/>
      <point x="353" y="29"/>
      <point x="349" y="26"/>
      <point x="345" y="26" type="curve"/>
      <point x="175" y="26" type="line"/>
      <point x="172" y="26"/>
      <point x="170" y="28"/>
      <point x="170" y="31" type="curve"/>
      <point x="170" y="695" type="line"/>
      <point x="170" y="698"/>
      <point x="168" y="700"/>
      <point x="165" y="700" type="curve"/>
      <point x="40" y="700" type="line"/>
      <point x="34" y="700"/>
      <point x="30" y="696"/>
      <point x="30" y="690" type="curve"/>
      <point x="30" y="684" type="line"/>
      <point x="30" y="678"/>
      <point x="34" y="674"/>
      <point x="40" y="674" type="curve"/>
      <point x="65" y="674" type="line"/>
      <point x="68" y="674"/>
      <point x="70" y="672"/>
      <point x="70" y="669" type="curve"/>
      <point x="70" y="31" type="line"/>
      <point x="70" y="28"/>
      <point x="68" y="26"/>
      <point x="65" y="26" type="curve"/>
      <point x="40" y="26" type="line"/>
      <point x="34" y="26"/>
      <point x="30" y="22"/>
      <point x="30" y="16" type="curve"/>
      <point x="30" y="10" type="line"/>
    </contour>
  </outline>
</glyph>
<glyph name="M" format="1">
  <advance width="803"/>
  <unicode hex="004D"/>
  <outline>
    <contour>
      <point x="206.0" y="0.0"/>
      <point x="210.0" y="4.0"/>
      <point x="210.0" y="10.0" type="curve"/>
      <point x="210.0" y="16.0" type="line"/>
      <point x="210.0" y="22.0"/>
      <point x="206.0" y="26.0"/>
      <point x="200.0" y="26.0" type="curve"/>
      <point x="170.0" y="26.0" type="line"/>
      <point x="167.0" y="26.0"/>
      <point x="165.0" y="28.0"/>
      <point x="165.0" y="31.0" type="curve"/>
      <point x="165.0" y="453.0" type="line"/>
      <point x="165.0" y="459.0"/>
      <point x="170.0" y="464.0"/>
      <point x="179.0" y="453.0" type="curve" smooth="yes"/>
      <point x="389.0" y="217.0" type="line" smooth="yes"/>
      <point x="402.0" y="203.0"/>
      <point x="410.0" y="203.0"/>
      <point x="420.0" y="217.0" type="curve"/>
      <point x="632" y="508" type="line" smooth="yes"/>
      <point x="638" y="516"/>
      <point x="648" y="516"/>
      <point x="648" y="506" type="curve"/>
      <point x="648" y="6" type="line"/>
      <point x="648" y="2"/>
      <point x="650" y="0"/>
      <point x="652" y="0" type="curve"/>
      <point x="796" y="0" type="line"/>
      <point x="802" y="0"/>
      <point x="806" y="4"/>
      <point x="806" y="10" type="curve"/>
      <point x="806" y="16" type="line"/>
      <point x="806" y="22"/>
      <point x="802" y="26"/>
      <point x="796" y="26" type="curve"/>
      <point x="766" y="26" type="line"/>
      <point x="762" y="26"/>
      <point x="760" y="28"/>
      <point x="760" y="32" type="curve"/>
      <point x="760" y="696" type="line"/>
      <point x="760" y="698"/>
      <point x="758" y="700"/>
      <point x="756" y="700" type="curve"/>
      <point x="612" y="700" type="line"/>
      <point x="606" y="700"/>
      <point x="602" y="696"/>
      <point x="602" y="690" type="curve"/>
      <point x="602" y="682" type="line"/>
      <point x="602" y="676"/>
      <point x="606" y="672"/>
      <point x="612" y="672" type="curve"/>
      <point x="642" y="672" type="line"/>
      <point x="646" y="672"/>
      <point x="648" y="670"/>
      <point x="648" y="668" type="curve"/>
      <point x="648" y="624" type="line"/>
      <point x="648" y="608"/>
      <point x="642" y="602"/>
      <point x="638" y="596" type="curve" smooth="yes"/>
      <point x="443.0" y="333.0" type="line" smooth="yes"/>
      <point x="433.0" y="320.0"/>
      <point x="425.0" y="320.0"/>
      <point x="414.0" y="333.0" type="curve" smooth="yes"/>
      <point x="175.0" y="604.0" type="line" smooth="yes"/>
      <point x="168.0" y="612.0"/>
      <point x="165.0" y="614.0"/>
      <point x="165.0" y="624.0" type="curve" smooth="yes"/>
      <point x="165.0" y="695.0" type="line"/>
      <point x="165.0" y="698.0"/>
      <point x="163.0" y="700.0"/>
      <point x="160.0" y="700.0" type="curve"/>
      <point x="25.0" y="700.0" type="line"/>
      <point x="19.0" y="700.0"/>
      <point x="15.0" y="696.0"/>
      <point x="15.0" y="690.0" type="curve"/>
      <point x="15.0" y="684.0" type="line"/>
      <point x="15.0" y="678.0"/>
      <point x="19.0" y="674.0"/>
      <point x="25.0" y="674.0" type="curve"/>
      <point x="55.0" y="674.0" type="line"/>
      <point x="58.0" y="674.0"/>
      <point x="60.0" y="672.0"/>
      <point x="60.0" y="669.0" type="curve"/>
      <point x="60.0" y="5.0" type="line"/>
      <point x="60.0" y="2.0"/>
      <point x="62.0" y="0.0"/>
      <point x="65.0" y="0.0" type="curve"/>
      <point x="200.0" y="0.0" type="line"/>
    </contour>
  </outline>
</glyph>
<glyph name="N" format="1">
  <advance width="715"/>
  <unicode hex="004E"/>
  <outline>
    <contour>
      <point x="226" y="0"/>
      <point x="230" y="4"/>
      <point x="230" y="10" type="curve"/>
      <point x="230" y="16" type="line"/>
      <point x="230" y="22"/>
      <point x="226" y="26"/>
      <point x="220" y="26" type="curve"/>
      <point x="190" y="26" type="line"/>
      <point x="186" y="26"/>
      <point x="184" y="28"/>
      <point x="184" y="32" type="curve"/>
      <point x="184" y="508" type="line"/>
      <point x="184" y="514"/>
      <point x="190" y="514"/>
      <point x="194" y="510" type="curve" smooth="yes"/>
      <point x="518" y="118" type="line" smooth="yes"/>
      <point x="524" y="112"/>
      <point x="528" y="106"/>
      <point x="528" y="96" type="curve"/>
      <point x="528" y="6" type="line"/>
      <point x="528" y="2"/>
      <point x="530" y="0"/>
      <point x="532" y="0" type="curve"/>
      <point x="676" y="0" type="line"/>
      <point x="682" y="0"/>
      <point x="686" y="4"/>
      <point x="686" y="10" type="curve"/>
      <point x="686" y="16" type="line"/>
      <point x="686" y="22"/>
      <point x="682" y="26"/>
      <point x="676" y="26" type="curve"/>
      <point x="646" y="26" type="line"/>
      <point x="642" y="26"/>
      <point x="640" y="28"/>
      <point x="640" y="32" type="curve"/>
      <point x="640" y="696" type="line"/>
      <point x="640" y="698"/>
      <point x="638" y="700"/>
      <point x="636" y="700" type="curve"/>
      <point x="498" y="700" type="line"/>
      <point x="492" y="700"/>
      <point x="488" y="696"/>
      <point x="488" y="690" type="curve"/>
      <point x="488" y="682" type="line"/>
      <point x="488" y="676"/>
      <point x="492" y="672"/>
      <point x="498" y="672" type="curve"/>
      <point x="520" y="672" type="line"/>
      <point x="526" y="672"/>
      <point x="528" y="668"/>
      <point x="528" y="664" type="curve"/>
      <point x="528" y="198" type="line"/>
      <point x="528" y="188"/>
      <point x="522" y="190"/>
      <point x="516" y="196" type="curve" smooth="yes"/>
      <point x="190" y="586" type="line" smooth="yes"/>
      <point x="186" y="590"/>
      <point x="184" y="592"/>
      <point x="184" y="598" type="curve"/>
      <point x="184" y="696" type="line"/>
      <point x="184" y="698"/>
      <point x="182" y="700"/>
      <point x="180" y="700" type="curve"/>
      <point x="36" y="700" type="line"/>
      <point x="30" y="700"/>
      <point x="26" y="696"/>
      <point x="26" y="690" type="curve"/>
      <point x="26" y="684" type="line"/>
      <point x="26" y="678"/>
      <point x="30" y="674"/>
      <point x="36" y="674" type="curve"/>
      <point x="66" y="674" type="line"/>
      <point x="70" y="674"/>
      <point x="72" y="672"/>
      <point x="72" y="670" type="curve"/>
      <point x="72" y="6" type="line"/>
      <point x="72" y="2"/>
      <point x="74" y="0"/>
      <point x="76" y="0" type="curve"/>
      <point x="220" y="0" type="line"/>
    </contour>
  </outline>
</glyph>
<glyph name="O" format="1">
  <advance width="797"/>
  <unicode hex="004F"/>
  <outline>
    <contour>
      <point x="396" y="715" type="curve" smooth="yes"/>
      <point x="601" y="715"/>
      <point x="771" y="555"/>
      <point x="771" y="350" type="curve" smooth="yes"/>
      <point x="771" y="145"/>
      <point x="601" y="-15"/>
      <point x="396" y="-15" type="curve" smooth="yes"/>
      <point x="216" y="-15"/>
      <point x="24" y="146"/>
      <point x="24" y="350" type="curve" smooth="yes"/>
      <point x="24" y="556"/>
      <point x="216" y="715"/>
    </contour>
    <contour>
      <point x="396" y="20" type="curve" smooth="yes"/>
      <point x="576" y="20"/>
      <point x="651" y="175"/>
      <point x="651" y="350" type="curve" smooth="yes"/>
      <point x="651" y="510"/>
      <point x="576" y="680"/>
      <point x="396" y="680" type="curve" smooth="yes"/>
      <point x="226" y="680"/>
      <point x="144" y="510"/>
      <point x="144" y="350" type="curve" smooth="yes"/>
      <point x="144" y="176"/>
      <point x="226" y="20"/>
    </contour>
  </outline>
</glyph>
<glyph name="P" format="1">
  <advance width="599.0"/>
  <unicode hex="0050"/>
  <outline>
    <contour>
      <point x="180.0" y="269"/>
      <point x="175.0" y="272"/>
      <point x="175.0" y="284" type="curve"/>
      <point x="175.0" y="669.0" type="line"/>
      <point x="175.0" y="672.0"/>
      <point x="177.0" y="674.0"/>
      <point x="180.0" y="674.0" type="curve"/>
      <point x="247.0" y="674" type="line"/>
      <point x="370.0" y="674"/>
      <point x="453.0" y="575"/>
      <point x="453.0" y="442" type="curve" smooth="yes"/>
      <point x="453.0" y="332"/>
      <point x="386.0" y="247"/>
      <point x="285.0" y="247" type="curve" smooth="yes"/>
      <point x="215.0" y="247"/>
      <point x="184.0" y="266"/>
      <point x="184.0" y="266" type="curve"/>
    </contour>
    <contour>
      <point x="80.0" y="-74.0"/>
      <point x="82.0" y="-71.0"/>
      <point x="87.0" y="-67.0" type="curve" smooth="yes"/>
      <point x="171.0" y="17.0" type="line" smooth="yes"/>
      <point x="174.0" y="20.0"/>
      <point x="175.0" y="23.0"/>
      <point x="175.0" y="32.0" type="curve"/>
      <point x="175.0" y="222.0" type="line"/>
      <point x="175.0" y="232.0"/>
      <point x="179.0" y="234.0"/>
      <point x="185.0" y="232.0" type="curve" smooth="yes"/>
      <point x="399.0" y="161.0"/>
      <point x="573.0" y="266.0"/>
      <point x="573.0" y="442.0" type="curve" smooth="yes"/>
      <point x="573.0" y="601.0"/>
      <point x="450.0" y="700.0"/>
      <point x="320.0" y="700.0" type="curve" smooth="yes"/>
      <point x="40.0" y="700.0" type="line"/>
      <point x="34.0" y="700.0"/>
      <point x="30.0" y="696.0"/>
      <point x="30.0" y="690.0" type="curve"/>
      <point x="30.0" y="684.0" type="line"/>
      <point x="30.0" y="678.0"/>
      <point x="34.0" y="674.0"/>
      <point x="40.0" y="674.0" type="curve"/>
      <point x="65.0" y="674.0" type="line"/>
      <point x="68.0" y="674.0"/>
      <point x="70.0" y="672.0"/>
      <point x="70.0" y="669.0" type="curve"/>
      <point x="70.0" y="-67.0" type="line"/>
      <point x="70.0" y="-72.0"/>
      <point x="72.0" y="-74.0"/>
      <point x="76.0" y="-74.0" type="curve"/>
    </contour>
  </outline>
</glyph>
<glyph name="Q" format="1">
  <advance width="790.75"/>
  <unicode hex="0051"/>
  <outline>
    <contour>
      <point x="937.0" y="-232.0"/>
      <point x="982.0" y="-244.0"/>
      <point x="1028.0" y="-244.0" type="curve" smooth="yes"/>
      <point x="1107.0" y="-244.0"/>
      <point x="1159.0" y="-203.0"/>
      <point x="1209.0" y="-168.0" type="curve" smooth="yes"/>
      <point x="1213.0" y="-165.0"/>
      <point x="1214.0" y="-160.0"/>
      <point x="1209.0" y="-155.0" type="curve" smooth="yes"/>
      <point x="1203.0" y="-149.0" type="line" smooth="yes"/>
      <point x="1199.0" y="-145.0"/>
      <point x="1193.0" y="-146.0"/>
      <point x="1188.0" y="-149.0" type="curve" smooth="yes"/>
      <point x="1165.0" y="-161.0"/>
      <point x="1121.0" y="-174.0"/>
      <point x="1080.0" y="-174.0" type="curve"/>
      <point x="1043.0" y="-174.0"/>
      <point x="1001.0" y="-164.0"/>
      <point x="963.0" y="-149.0" type="curve" smooth="yes"/>
      <point x="613.0" y="-9.0" type="line" smooth="yes"/>
      <point x="581.0" y="4"/>
      <point x="551.0" y="4"/>
      <point x="539.0" y="4.0" type="curve" smooth="yes"/>
      <point x="536.0" y="4"/>
      <point x="534.0" y="5.0"/>
      <point x="534.0" y="7.0" type="curve" smooth="yes"/>
      <point x="534.0" y="10.0"/>
      <point x="536.0" y="11.0"/>
      <point x="539.0" y="12.0" type="curve" smooth="yes"/>
      <point x="677.0" y="58.0"/>
      <point x="771.0" y="195.0"/>
      <point x="771.0" y="350.0" type="curve" smooth="yes"/>
      <point x="771.0" y="555.0"/>
      <point x="601.0" y="715.0"/>
      <point x="396.0" y="715.0" type="curve" smooth="yes"/>
      <point x="216.0" y="715.0"/>
      <point x="26.0" y="555.0"/>
      <point x="26.0" y="350.0" type="curve" smooth="yes"/>
      <point x="26.0" y="145.0"/>
      <point x="216.0" y="-15.0"/>
      <point x="396.0" y="-15.0" type="curve" smooth="yes"/>
      <point x="405.0" y="-15.0"/>
      <point x="411.0" y="-16.0"/>
      <point x="411.0" y="-20.0" type="curve"/>
      <point x="411.0" y="-24.0"/>
      <point x="405.0" y="-26.0"/>
      <point x="397.0" y="-29.0" type="curve" smooth="yes"/>
      <point x="376.0" y="-38.0"/>
      <point x="365.0" y="-45.0"/>
      <point x="359.0" y="-50.0" type="curve" smooth="yes"/>
      <point x="354.0" y="-54.0"/>
      <point x="355.0" y="-60.0"/>
      <point x="359.0" y="-64.0" type="curve" smooth="yes"/>
      <point x="363.0" y="-68.0" type="line" smooth="yes"/>
      <point x="366.0" y="-71.0"/>
      <point x="371.0" y="-70.0"/>
      <point x="375.0" y="-68.0" type="curve" smooth="yes"/>
      <point x="397.0" y="-56.0"/>
      <point x="450.0" y="-41.0"/>
      <point x="498.0" y="-60.0" type="curve" smooth="yes"/>
      <point x="902.0" y="-218.0" type="line" smooth="yes"/>
    </contour>
    <contour>
      <point x="226.0" y="21.0"/>
      <point x="146.0" y="175.0"/>
      <point x="146.0" y="350.0" type="curve" smooth="yes"/>
      <point x="146.0" y="510.0"/>
      <point x="226.0" y="680.0"/>
      <point x="396.0" y="680.0" type="curve" smooth="yes"/>
      <point x="576.0" y="680.0"/>
      <point x="651.0" y="510.0"/>
      <point x="651.0" y="350.0" type="curve" smooth="yes"/>
      <point x="651.0" y="175.0"/>
      <point x="576.0" y="19.0"/>
      <point x="396.0" y="20.0" type="curve" smooth="yes"/>
    </contour>
  </outline>
</glyph>
<glyph name="R" format="1">
  <advance width="560.0"/>
  <unicode hex="0052"/>
  <outline>
    <contour>
      <point x="400.0" y="450.0"/>
      <point x="350.0" y="400.0"/>
      <point x="270.0" y="400.0" type="curve" smooth="yes"/>
      <point x="185.0" y="400.0" type="line" smooth="yes"/>
      <point x="181.0" y="400.0"/>
      <point x="180.0" y="402.0"/>
      <point x="180.0" y="405.0" type="curve"/>
      <point x="180.0" y="669.0" type="line"/>
      <point x="180.0" y="672.0"/>
      <point x="182.0" y="674.0"/>
      <point x="185.0" y="674.0" type="curve"/>
      <point x="237.0" y="674" type="line" smooth="yes"/>
      <point x="362.0" y="674"/>
      <point x="400.0" y="640.0"/>
      <point x="400.0" y="530.0" type="curve" smooth="yes"/>
    </contour>
    <contour>
      <point x="82.0" y="0.0" type="curve"/>
      <point x="210.0" y="0.0" type="line"/>
      <point x="216.0" y="0.0"/>
      <point x="220.0" y="4.0"/>
      <point x="220.0" y="10.0" type="curve"/>
      <point x="220.0" y="16.0" type="line"/>
      <point x="220.0" y="22.0"/>
      <point x="216.0" y="26.0"/>
      <point x="210.0" y="26.0" type="curve"/>
      <point x="187.0" y="26.0" type="line"/>
      <point x="183.0" y="26.0"/>
      <point x="180.0" y="29.0"/>
      <point x="180.0" y="33.0" type="curve"/>
      <point x="180.0" y="360.0" type="line"/>
      <point x="180.0" y="363.0"/>
      <point x="181.0" y="365.0"/>
      <point x="184.0" y="365.0" type="curve"/>
      <point x="187.0" y="365.0"/>
      <point x="188.0" y="363.0"/>
      <point x="190.0" y="360.0" type="curve" smooth="yes"/>
      <point x="400.0" y="10.0" type="line"/>
      <point x="404.0" y="5.0"/>
      <point x="410.0" y="0.0"/>
      <point x="420.0" y="0.0" type="curve"/>
      <point x="530.0" y="0.0" type="line"/>
      <point x="536.0" y="0.0"/>
      <point x="540.0" y="4.0"/>
      <point x="540.0" y="10.0" type="curve"/>
      <point x="540.0" y="16.0" type="line"/>
      <point x="540.0" y="22.0"/>
      <point x="536.0" y="26.0"/>
      <point x="530.0" y="26.0" type="curve"/>
      <point x="510.0" y="26.0" type="line"/>
      <point x="500.0" y="26.0"/>
      <point x="495.0" y="36.0"/>
      <point x="495.0" y="36.0" type="curve"/>
      <point x="315.0" y="360.0" type="line" smooth="yes"/>
      <point x="312.0" y="366.0"/>
      <point x="310.0" y="370.0"/>
      <point x="320.0" y="370.0" type="curve"/>
      <point x="335.0" y="370.0" type="line" smooth="yes"/>
      <point x="406.0" y="370.0"/>
      <point x="515.0" y="419.0"/>
      <point x="515.0" y="530.0" type="curve"/>
      <point x="515.0" y="658.0"/>
      <point x="433.0" y="700"/>
      <point x="272.0" y="700" type="curve" smooth="yes"/>
      <point x="40.0" y="700.0" type="line"/>
      <point x="34.0" y="700.0"/>
      <point x="30.0" y="696.0"/>
      <point x="30.0" y="690.0" type="curve"/>
      <point x="30.0" y="684.0" type="line"/>
      <point x="30.0" y="678.0"/>
      <point x="34.0" y="674.0"/>
      <point x="40.0" y="674.0" type="curve"/>
      <point x="70.0" y="674.0" type="line"/>
      <point x="73.0" y="674.0"/>
      <point x="75.0" y="672.0"/>
      <point x="75.0" y="669.0" type="curve"/>
      <point x="75.0" y="7.0" type="line"/>
      <point x="75.0" y="3.0"/>
      <point x="78.0" y="0.0"/>
    </contour>
  </outline>
</glyph>
<glyph name="S" format="1">
  <advance width="489.853853136"/>
  <unicode hex="0053"/>
  <outline>
    <contour>
      <point x="223.853853136" y="-15" type="curve" smooth="yes"/>
      <point x="154.853853136" y="-15"/>
      <point x="65.8538531364" y="15"/>
      <point x="28.8538531364" y="77" type="curve" smooth="yes"/>
      <point x="19.8538531364" y="92"/>
      <point x="23.8538531364" y="100"/>
      <point x="36.8538531364" y="106" type="curve" smooth="yes"/>
      <point x="104.853853136" y="140" type="line" smooth="yes"/>
      <point x="116.853853136" y="146"/>
      <point x="124.853853136" y="142"/>
      <point x="133.853853136" y="130" type="curve" smooth="yes"/>
      <point x="175.853853136" y="71"/>
      <point x="223.853853136" y="56"/>
      <point x="269.853853136" y="56" type="curve" smooth="yes"/>
      <point x="350.853853136" y="56"/>
      <point x="390.853853136" y="96"/>
      <point x="389.853853136" y="147" type="curve" smooth="yes"/>
      <point x="388.853853136" y="183"/>
      <point x="370.853853136" y="222"/>
      <point x="302.853853136" y="267" type="curve" smooth="yes"/>
      <point x="147.853853136" y="369" type="line" smooth="yes"/>
      <point x="82.8538531364" y="412"/>
      <point x="50.8538531364" y="457"/>
      <point x="50.8538531364" y="527" type="curve" smooth="yes"/>
      <point x="50.8538531364" y="633"/>
      <point x="140.853853136" y="715"/>
      <point x="250.853853136" y="715" type="curve" smooth="yes"/>
      <point x="355.853853136" y="715"/>
      <point x="410.853853136" y="672"/>
      <point x="437.853853136" y="631" type="curve" smooth="yes"/>
      <point x="445.853853136" y="619"/>
      <point x="440.853853136" y="613"/>
      <point x="428.853853136" y="608" type="curve" smooth="yes"/>
      <point x="351.853853136" y="578" type="line" smooth="yes"/>
      <point x="339.853853136" y="573"/>
      <point x="335.853853136" y="575"/>
      <point x="328.853853136" y="589" type="curve" smooth="yes"/>
      <point x="312.853853136" y="620"/>
      <point x="270.853853136" y="642"/>
      <point x="218.853853136" y="642" type="curve" smooth="yes"/>
      <point x="150.853853136" y="642"/>
      <point x="117.853853136" y="609"/>
      <point x="117.853853136" y="576" type="curve" smooth="yes"/>
      <point x="117.853853136" y="538"/>
      <point x="131.853853136" y="519"/>
      <point x="193.853853136" y="479" type="curve" smooth="yes"/>
      <point x="372.853853136" y="362" type="line" smooth="yes"/>
      <point x="431.853853136" y="324"/>
      <point x="465.853853136" y="277"/>
      <point x="465.853853136" y="205" type="curve"/>
      <point x="465.853853136" y="110"/>
      <point x="380.853853136" y="-15"/>
    </contour>
  </outline>
</glyph>
<glyph name="T" format="1">
  <advance width="525"/>
  <unicode hex="0054"/>
  <outline>
    <contour>
      <point x="356" y="0"/>
      <point x="360" y="2"/>
      <point x="360" y="8" type="curve"/>
      <point x="360" y="16" type="line"/>
      <point x="360" y="22"/>
      <point x="356" y="26"/>
      <point x="350" y="26" type="curve"/>
      <point x="320" y="26" type="line" smooth="yes"/>
      <point x="317" y="26"/>
      <point x="315" y="28"/>
      <point x="315" y="31" type="curve"/>
      <point x="315" y="669" type="line"/>
      <point x="315" y="672"/>
      <point x="317" y="674"/>
      <point x="320" y="674" type="curve"/>
      <point x="408" y="674" type="line"/>
      <point x="413" y="674"/>
      <point x="416" y="671"/>
      <point x="418" y="669" type="curve" smooth="yes"/>
      <point x="502" y="585" type="line" smooth="yes"/>
      <point x="507" y="580"/>
      <point x="509" y="578"/>
      <point x="513" y="578" type="curve"/>
      <point x="517" y="578"/>
      <point x="519" y="580"/>
      <point x="519" y="585" type="curve"/>
      <point x="519" y="695" type="line"/>
      <point x="519" y="698"/>
      <point x="517" y="700"/>
      <point x="514" y="700" type="curve"/>
      <point x="11" y="700" type="line"/>
      <point x="8" y="700"/>
      <point x="6" y="698"/>
      <point x="6" y="695" type="curve"/>
      <point x="6" y="585" type="line"/>
      <point x="6" y="580"/>
      <point x="8" y="578"/>
      <point x="12" y="578" type="curve"/>
      <point x="16" y="578"/>
      <point x="18" y="580"/>
      <point x="23" y="585" type="curve" smooth="yes"/>
      <point x="107" y="669" type="line" smooth="yes"/>
      <point x="109" y="671"/>
      <point x="112" y="674"/>
      <point x="117" y="674" type="curve"/>
      <point x="205" y="674" type="line"/>
      <point x="208" y="674"/>
      <point x="210" y="672"/>
      <point x="210" y="669" type="curve"/>
      <point x="210" y="31" type="line"/>
      <point x="210" y="28"/>
      <point x="208" y="26"/>
      <point x="205" y="26" type="curve" smooth="yes"/>
      <point x="175" y="26" type="line"/>
      <point x="169" y="26"/>
      <point x="165" y="22"/>
      <point x="165" y="16" type="curve"/>
      <point x="165" y="10" type="line"/>
      <point x="165" y="4"/>
      <point x="169" y="0"/>
      <point x="175" y="0" type="curve"/>
      <point x="350" y="0" type="line"/>
    </contour>
  </outline>
</glyph>
<glyph name="U" format="1">
  <advance width="765.0"/>
  <unicode hex="0055"/>
  <outline>
    <contour>
      <point x="585.0" y="5.0" type="line"/>
      <point x="585.0" y="2.0"/>
      <point x="587.0" y="0.0"/>
      <point x="590.0" y="0.0" type="curve"/>
      <point x="725.0" y="0.0" type="line"/>
      <point x="731.0" y="0.0"/>
      <point x="735.0" y="4.0"/>
      <point x="735.0" y="10.0" type="curve"/>
      <point x="735.0" y="16.0" type="line"/>
      <point x="735.0" y="22.0"/>
      <point x="731.0" y="26.0"/>
      <point x="725.0" y="26.0" type="curve"/>
      <point x="695.0" y="26.0" type="line"/>
      <point x="692.0" y="26.0"/>
      <point x="690.0" y="28.0"/>
      <point x="690.0" y="31.0" type="curve"/>
      <point x="690.0" y="695.0" type="line"/>
      <point x="690.0" y="698.0"/>
      <point x="688.0" y="700.0"/>
      <point x="685.0" y="700.0" type="curve"/>
      <point x="550.0" y="700.0" type="line"/>
      <point x="544.0" y="700.0"/>
      <point x="540.0" y="696.0"/>
      <point x="540.0" y="690.0" type="curve"/>
      <point x="540.0" y="684.0" type="line"/>
      <point x="540.0" y="678.0"/>
      <point x="544.0" y="674.0"/>
      <point x="550.0" y="674.0" type="curve"/>
      <point x="580.0" y="674.0" type="line"/>
      <point x="583.0" y="674.0"/>
      <point x="585.0" y="672.0"/>
      <point x="585.0" y="669.0" type="curve"/>
      <point x="585.0" y="141.0" type="line"/>
      <point x="585.0" y="130.0"/>
      <point x="583" y="119"/>
      <point x="575.0" y="111.0" type="curve" smooth="yes"/>
      <point x="551" y="84"/>
      <point x="486" y="36"/>
      <point x="351.0" y="36.0" type="curve"/>
      <point x="256.0" y="36.0"/>
      <point x="180.0" y="118.0"/>
      <point x="180.0" y="230.0" type="curve"/>
      <point x="180.0" y="695.0" type="line"/>
      <point x="180.0" y="698.0"/>
      <point x="178.0" y="700.0"/>
      <point x="175.0" y="700.0" type="curve"/>
      <point x="40.0" y="700.0" type="line"/>
      <point x="34.0" y="700.0"/>
      <point x="30.0" y="696.0"/>
      <point x="30.0" y="690.0" type="curve"/>
      <point x="30.0" y="684.0" type="line"/>
      <point x="30.0" y="678.0"/>
      <point x="34.0" y="674.0"/>
      <point x="40.0" y="674.0" type="curve"/>
      <point x="70.0" y="674.0" type="line"/>
      <point x="73.0" y="674.0"/>
      <point x="75.0" y="672.0"/>
      <point x="75.0" y="669.0" type="curve"/>
      <point x="75.0" y="228.0" type="line"/>
      <point x="75.0" y="83.0"/>
      <point x="185.0" y="-10.0"/>
      <point x="349.0" y="-10.0" type="curve"/>
      <point x="456" y="-10"/>
      <point x="505.0" y="13.0"/>
      <point x="575.0" y="64.0" type="curve" smooth="yes"/>
      <point x="582.0" y="69.0"/>
      <point x="585.0" y="67.0"/>
      <point x="585.0" y="62.0" type="curve"/>
    </contour>
  </outline>
</glyph>
<glyph name="V" format="1">
  <advance width="630"/>
  <unicode hex="0056"/>
  <outline>
    <contour>
      <point x="355" y="5" type="line"/>
      <point x="353" y="2"/>
      <point x="350" y="0"/>
      <point x="348" y="0" type="curve"/>
      <point x="323" y="0" type="line"/>
      <point x="321" y="0"/>
      <point x="318" y="2"/>
      <point x="316" y="5" type="curve"/>
      <point x="50" y="669" type="line"/>
      <point x="50" y="669"/>
      <point x="48" y="674"/>
      <point x="43" y="674" type="curve"/>
      <point x="18" y="674" type="line"/>
      <point x="12" y="674"/>
      <point x="8" y="678"/>
      <point x="8" y="684" type="curve"/>
      <point x="8" y="690" type="line"/>
      <point x="8" y="696"/>
      <point x="12" y="700"/>
      <point x="18" y="700" type="curve"/>
      <point x="143" y="700" type="line"/>
      <point x="148" y="700"/>
      <point x="150" y="695"/>
      <point x="150" y="695" type="curve"/>
      <point x="368" y="160" type="line"/>
      <point x="371" y="154"/>
      <point x="375" y="154"/>
      <point x="378" y="160" type="curve"/>
      <point x="523" y="518" type="line" smooth="yes"/>
      <point x="527" y="528"/>
      <point x="527" y="532"/>
      <point x="523" y="540" type="curve" smooth="yes"/>
      <point x="460" y="669" type="line"/>
      <point x="459" y="672"/>
      <point x="456" y="674"/>
      <point x="453" y="674" type="curve"/>
      <point x="428" y="674" type="line"/>
      <point x="422" y="674"/>
      <point x="418" y="678"/>
      <point x="418" y="684" type="curve"/>
      <point x="418" y="690" type="line"/>
      <point x="418" y="696"/>
      <point x="422" y="700"/>
      <point x="428" y="700" type="curve"/>
      <point x="553" y="700" type="line"/>
      <point x="556" y="700"/>
      <point x="558" y="698"/>
      <point x="560" y="695" type="curve"/>
      <point x="616" y="581" type="line"/>
      <point x="618" y="578"/>
      <point x="620" y="576"/>
      <point x="623" y="576" type="curve"/>
      <point x="648" y="576" type="line"/>
      <point x="654" y="576"/>
      <point x="658" y="572"/>
      <point x="658" y="566" type="curve"/>
      <point x="658" y="560" type="line"/>
      <point x="658" y="554"/>
      <point x="654" y="550"/>
      <point x="648" y="550" type="curve"/>
      <point x="588" y="550" type="line"/>
      <point x="585" y="550"/>
      <point x="582" y="548"/>
      <point x="581" y="545" type="curve"/>
    </contour>
  </outline>
</glyph>
<glyph name="W" format="1">
  <advance width="944.0"/>
  <unicode hex="0057"/>
  <outline>
    <contour>
      <point x="348.0" y="0.0" type="line"/>
      <point x="350.0" y="0.0"/>
      <point x="353.0" y="2.0"/>
      <point x="355.0" y="5.0" type="curve"/>
      <point x="488.0" y="320" type="line" smooth="yes"/>
      <point x="490.0" y="325"/>
      <point x="492.0" y="327"/>
      <point x="495.0" y="327" type="curve"/>
      <point x="498.0" y="327"/>
      <point x="500.0" y="325"/>
      <point x="502.0" y="320" type="curve" smooth="yes"/>
      <point x="630.0" y="5.0" type="line"/>
      <point x="632.0" y="2.0"/>
      <point x="635.0" y="0.0"/>
      <point x="637.0" y="0.0" type="curve"/>
      <point x="662.0" y="0.0" type="line"/>
      <point x="664.0" y="0.0"/>
      <point x="667.0" y="2.0"/>
      <point x="669.0" y="5.0" type="curve"/>
      <point x="895.0" y="545.0" type="line"/>
      <point x="896.0" y="548.0"/>
      <point x="899.0" y="550.0"/>
      <point x="902.0" y="550.0" type="curve"/>
      <point x="962.0" y="550.0" type="line"/>
      <point x="968.0" y="550.0"/>
      <point x="972.0" y="554.0"/>
      <point x="972.0" y="560.0" type="curve"/>
      <point x="972.0" y="566.0" type="line"/>
      <point x="972.0" y="572.0"/>
      <point x="968.0" y="576.0"/>
      <point x="962.0" y="576.0" type="curve"/>
      <point x="937.0" y="576.0" type="line"/>
      <point x="934.0" y="576.0"/>
      <point x="932.0" y="578.0"/>
      <point x="930.0" y="581.0" type="curve"/>
      <point x="874.0" y="695.0" type="line"/>
      <point x="872.0" y="698.0"/>
      <point x="870.0" y="700.0"/>
      <point x="867.0" y="700.0" type="curve"/>
      <point x="742.0" y="700.0" type="line"/>
      <point x="736.0" y="700.0"/>
      <point x="732.0" y="696.0"/>
      <point x="732.0" y="690.0" type="curve"/>
      <point x="732.0" y="684.0" type="line"/>
      <point x="732.0" y="678.0"/>
      <point x="736.0" y="674.0"/>
      <point x="742.0" y="674.0" type="curve"/>
      <point x="767.0" y="674.0" type="line"/>
      <point x="770.0" y="674.0"/>
      <point x="773.0" y="672.0"/>
      <point x="774.0" y="669.0" type="curve"/>
      <point x="837.0" y="540.0" type="line" smooth="yes"/>
      <point x="841.0" y="532.0"/>
      <point x="841.0" y="528.0"/>
      <point x="837.0" y="518.0" type="curve" smooth="yes"/>
      <point x="692.0" y="160.0" type="line"/>
      <point x="689.0" y="154.0"/>
      <point x="685.0" y="154.0"/>
      <point x="682.0" y="160.0" type="curve"/>
      <point x="464.0" y="695.0" type="line"/>
      <point x="464.0" y="695.0"/>
      <point x="462.0" y="700.0"/>
      <point x="457.0" y="700.0" type="curve"/>
      <point x="332.0" y="700.0" type="line"/>
      <point x="326.0" y="700.0"/>
      <point x="322.0" y="696.0"/>
      <point x="322.0" y="690.0" type="curve"/>
      <point x="322.0" y="684.0" type="line"/>
      <point x="322.0" y="678.0"/>
      <point x="326.0" y="674.0"/>
      <point x="332.0" y="674.0" type="curve"/>
      <point x="357.0" y="674.0" type="line"/>
      <point x="362.0" y="674.0"/>
      <point x="364.0" y="669.0"/>
      <point x="364.0" y="669.0" type="curve"/>
      <point x="466.0" y="415.0" type="line" smooth="yes"/>
      <point x="472.0" y="399.0"/>
      <point x="472.0" y="391.0"/>
      <point x="466.0" y="375.0" type="curve" smooth="yes"/>
      <point x="378.0" y="160.0" type="line"/>
      <point x="375.0" y="154.0"/>
      <point x="371.0" y="154.0"/>
      <point x="368.0" y="160.0" type="curve"/>
      <point x="150.0" y="695.0" type="line"/>
      <point x="150.0" y="695.0"/>
      <point x="148.0" y="700.0"/>
      <point x="143.0" y="700.0" type="curve"/>
      <point x="18.0" y="700.0" type="line"/>
      <point x="12.0" y="700.0"/>
      <point x="8.0" y="696.0"/>
      <point x="8.0" y="690.0" type="curve"/>
      <point x="8.0" y="684.0" type="line"/>
      <point x="8.0" y="678.0"/>
      <point x="12.0" y="674.0"/>
      <point x="18.0" y="674.0" type="curve"/>
      <point x="43.0" y="674.0" type="line"/>
      <point x="48.0" y="674.0"/>
      <point x="50.0" y="669.0"/>
      <point x="50.0" y="669.0" type="curve"/>
      <point x="316.0" y="5.0" type="line"/>
      <point x="318.0" y="2.0"/>
      <point x="321.0" y="0.0"/>
      <point x="323.0" y="0.0" type="curve"/>
    </contour>
  </outline>
</glyph>
<glyph name="X" format="1">
  <advance width="591"/>
  <unicode hex="0058"/>
  <outline>
    <contour>
      <point x="99.0" y="0.0"/>
      <point x="101.0" y="2.0"/>
      <point x="103.0" y="5.0" type="curve"/>
      <point x="278" y="284" type="line" smooth="yes"/>
      <point x="280" y="287"/>
      <point x="282" y="289"/>
      <point x="285" y="289" type="curve" smooth="yes"/>
      <point x="287" y="289"/>
      <point x="289" y="286"/>
      <point x="290" y="284" type="curve" smooth="yes"/>
      <point x="433.0" y="5.0" type="line"/>
      <point x="435.0" y="2.0"/>
      <point x="437.0" y="0.0"/>
      <point x="443.0" y="0.0" type="curve"/>
      <point x="570.0" y="0.0" type="line"/>
      <point x="575.0" y="0.0"/>
      <point x="578.0" y="3.0"/>
      <point x="578.0" y="8.0" type="curve"/>
      <point x="578.0" y="18.0" type="line"/>
      <point x="578.0" y="23.0"/>
      <point x="575.0" y="26.0"/>
      <point x="570.0" y="26.0" type="curve"/>
      <point x="543.0" y="26.0" type="line" smooth="yes"/>
      <point x="537.0" y="26.0"/>
      <point x="535.0" y="28.0"/>
      <point x="533.0" y="31.0" type="curve"/>
      <point x="357" y="374" type="line" smooth="yes"/>
      <point x="351" y="386"/>
      <point x="349" y="392"/>
      <point x="349" y="395" type="curve"/>
      <point x="349" y="398"/>
      <point x="350" y="401"/>
      <point x="357" y="411" type="curve" smooth="yes"/>
      <point x="508" y="649" type="line" smooth="yes"/>
      <point x="516" y="661"/>
      <point x="536" y="674"/>
      <point x="563" y="674" type="curve" smooth="yes"/>
      <point x="575.0" y="674.0" type="line"/>
      <point x="580.0" y="674.0"/>
      <point x="583.0" y="677.0"/>
      <point x="583.0" y="682.0" type="curve"/>
      <point x="583.0" y="692.0" type="line"/>
      <point x="583.0" y="697.0"/>
      <point x="580.0" y="700.0"/>
      <point x="575.0" y="700.0" type="curve"/>
      <point x="498.0" y="700.0" type="line"/>
      <point x="492.0" y="700.0"/>
      <point x="490.0" y="698.0"/>
      <point x="488.0" y="695.0" type="curve"/>
      <point x="332" y="451" type="line" smooth="yes"/>
      <point x="329" y="446"/>
      <point x="327" y="445"/>
      <point x="325" y="445" type="curve"/>
      <point x="323" y="445"/>
      <point x="320" y="446"/>
      <point x="318" y="451" type="curve" smooth="yes"/>
      <point x="193.0" y="695.0" type="line"/>
      <point x="191.0" y="698.0"/>
      <point x="189.0" y="700.0"/>
      <point x="183.0" y="700.0" type="curve"/>
      <point x="56.0" y="700.0" type="line"/>
      <point x="51.0" y="700.0"/>
      <point x="48.0" y="697.0"/>
      <point x="48.0" y="692.0" type="curve"/>
      <point x="48.0" y="682.0" type="line"/>
      <point x="48.0" y="677.0"/>
      <point x="51.0" y="674.0"/>
      <point x="56.0" y="674.0" type="curve"/>
      <point x="83.0" y="674.0" type="line"/>
      <point x="90.0" y="674.0"/>
      <point x="91.0" y="672.0"/>
      <point x="93.0" y="669.0" type="curve"/>
      <point x="250" y="363" type="line" smooth="yes"/>
      <point x="256" y="351"/>
      <point x="257" y="347"/>
      <point x="257" y="341" type="curve"/>
      <point x="257" y="337"/>
      <point x="257" y="335"/>
      <point x="250" y="324" type="curve" smooth="yes"/>
      <point x="78" y="56" type="line" smooth="yes"/>
      <point x="66" y="38"/>
      <point x="49.0" y="26.0"/>
      <point x="28.0" y="26.0" type="curve" smooth="yes"/>
      <point x="16.0" y="26.0" type="line"/>
      <point x="11.0" y="26.0"/>
      <point x="8.0" y="23.0"/>
      <point x="8.0" y="18.0" type="curve"/>
      <point x="8.0" y="8.0" type="line"/>
      <point x="8.0" y="3.0"/>
      <point x="11.0" y="0.0"/>
      <point x="16.0" y="0.0" type="curve"/>
      <point x="93.0" y="0.0" type="line"/>
    </contour>
  </outline>
</glyph>
<glyph name="Y" format="1">
  <advance width="576"/>
  <unicode hex="0059"/>
  <outline>
    <contour>
      <point x="401" y="0" type="line"/>
      <point x="407" y="0"/>
      <point x="411" y="4"/>
      <point x="411" y="10" type="curve"/>
      <point x="411" y="16" type="line"/>
      <point x="411" y="22"/>
      <point x="407" y="26"/>
      <point x="401" y="26" type="curve"/>
      <point x="371" y="26" type="line" smooth="yes"/>
      <point x="368" y="26"/>
      <point x="366" y="28"/>
      <point x="366" y="31" type="curve"/>
      <point x="366" y="246" type="line" smooth="yes"/>
      <point x="366" y="255"/>
      <point x="367" y="258"/>
      <point x="369" y="262" type="curve" smooth="yes"/>
      <point x="537" y="550" type="line"/>
      <point x="538" y="553"/>
      <point x="541" y="555"/>
      <point x="544" y="555" type="curve"/>
      <point x="614" y="555" type="line"/>
      <point x="620" y="555"/>
      <point x="624" y="559"/>
      <point x="624" y="565" type="curve"/>
      <point x="624" y="571" type="line"/>
      <point x="624" y="577"/>
      <point x="620" y="581"/>
      <point x="614" y="581" type="curve"/>
      <point x="589" y="581" type="line"/>
      <point x="586" y="581"/>
      <point x="584" y="583"/>
      <point x="582" y="586" type="curve"/>
      <point x="526" y="695" type="line"/>
      <point x="524" y="698"/>
      <point x="522" y="700"/>
      <point x="519" y="700" type="curve"/>
      <point x="409" y="700" type="line"/>
      <point x="403" y="700"/>
      <point x="399" y="696"/>
      <point x="399" y="690" type="curve"/>
      <point x="399" y="684" type="line"/>
      <point x="399" y="678"/>
      <point x="403" y="674"/>
      <point x="409" y="674" type="curve"/>
      <point x="434" y="674" type="line"/>
      <point x="437" y="674"/>
      <point x="440" y="672"/>
      <point x="441" y="669" type="curve"/>
      <point x="492" y="569" type="line" smooth="yes"/>
      <point x="494" y="565"/>
      <point x="496" y="561"/>
      <point x="496" y="555" type="curve"/>
      <point x="496" y="552"/>
      <point x="494" y="547"/>
      <point x="492" y="543" type="curve" smooth="yes"/>
      <point x="349" y="292" type="line"/>
      <point x="346" y="286"/>
      <point x="342" y="286"/>
      <point x="339" y="292" type="curve"/>
      <point x="126" y="695" type="line"/>
      <point x="126" y="695"/>
      <point x="124" y="700"/>
      <point x="119" y="700" type="curve"/>
      <point x="-6" y="700" type="line"/>
      <point x="-12" y="700"/>
      <point x="-16" y="696"/>
      <point x="-16" y="690" type="curve"/>
      <point x="-16" y="684" type="line"/>
      <point x="-16" y="678"/>
      <point x="-12" y="674"/>
      <point x="-6" y="674" type="curve"/>
      <point x="19" y="674" type="line"/>
      <point x="24" y="674"/>
      <point x="26" y="669"/>
      <point x="26" y="669" type="curve"/>
      <point x="261" y="225" type="line" smooth="yes"/>
      <point x="266" y="216"/>
      <point x="266" y="213"/>
      <point x="266" y="206" type="curve"/>
      <point x="266" y="5" type="line"/>
      <point x="266" y="2"/>
      <point x="268" y="0"/>
      <point x="271" y="0" type="curve"/>
    </contour>
  </outline>
</glyph>
<glyph name="Z" format="1">
  <advance width="607.633534503"/>
  <unicode hex="005A"/>
  <outline>
    <contour>
      <point x="33" y="37" type="line"/>
      <point x="22" y="23"/>
      <point x="20" y="17"/>
      <point x="20" y="14" type="curve" smooth="yes"/>
      <point x="20" y="9"/>
      <point x="21" y="0"/>
      <point x="38" y="0" type="curve"/>
      <point x="489" y="0" type="line" smooth="yes"/>
      <point x="497" y="0"/>
      <point x="500" y="2"/>
      <point x="507" y="10" type="curve" smooth="yes"/>
      <point x="583" y="105" type="line" smooth="yes"/>
      <point x="589" y="113"/>
      <point x="589" y="116"/>
      <point x="584" y="121" type="curve" smooth="yes"/>
      <point x="576" y="129" type="line" smooth="yes"/>
      <point x="571" y="134"/>
      <point x="566" y="135"/>
      <point x="560" y="129" type="curve" smooth="yes"/>
      <point x="541" y="110" type="line" smooth="yes"/>
      <point x="533" y="102"/>
      <point x="529" y="100"/>
      <point x="521" y="100" type="curve" smooth="yes"/>
      <point x="163" y="100" type="line"/>
      <point x="158" y="100"/>
      <point x="153" y="105"/>
      <point x="153" y="110" type="curve"/>
      <point x="153" y="119"/>
      <point x="159" y="126"/>
      <point x="163" y="131" type="curve"/>
      <point x="566" y="663" type="line"/>
      <point x="577" y="677"/>
      <point x="579" y="683"/>
      <point x="579" y="686" type="curve" smooth="yes"/>
      <point x="579" y="691"/>
      <point x="578" y="700"/>
      <point x="561" y="700" type="curve"/>
      <point x="145" y="700" type="line" smooth="yes"/>
      <point x="137" y="700"/>
      <point x="134" y="698"/>
      <point x="127" y="690" type="curve" smooth="yes"/>
      <point x="51" y="595" type="line" smooth="yes"/>
      <point x="45" y="587"/>
      <point x="45" y="584"/>
      <point x="50" y="579" type="curve" smooth="yes"/>
      <point x="58" y="571" type="line" smooth="yes"/>
      <point x="63" y="566"/>
      <point x="68" y="565"/>
      <point x="74" y="571" type="curve" smooth="yes"/>
      <point x="93" y="590" type="line" smooth="yes"/>
      <point x="101" y="598"/>
      <point x="105" y="600"/>
      <point x="113" y="600" type="curve" smooth="yes"/>
      <point x="436" y="600" type="line"/>
      <point x="441" y="600"/>
      <point x="446" y="595"/>
      <point x="446" y="590" type="curve"/>
      <point x="446" y="581"/>
      <point x="440" y="574"/>
      <point x="436" y="569" type="curve"/>
    </contour>
  </outline>
</glyph>
<glyph name="bracketleft" format="1">
  <advance width="211"/>
  <unicode hex="005B"/>
  <outline>
    <contour>
      <point x="55" y="0" type="curve"/>
      <point x="151" y="0" type="line"/>
      <point x="157" y="0"/>
      <point x="161" y="4"/>
      <point x="161" y="10" type="curve"/>
      <point x="161" y="16" type="line"/>
      <point x="161" y="22"/>
      <point x="157" y="26"/>
      <point x="151" y="26" type="curve"/>
      <point x="121" y="26" type="line"/>
      <point x="118" y="26"/>
      <point x="116" y="28"/>
      <point x="116" y="31" type="curve"/>
      <point x="116" y="669" type="line"/>
      <point x="116" y="672"/>
      <point x="118" y="674"/>
      <point x="121" y="674" type="curve"/>
      <point x="151" y="674" type="line"/>
      <point x="157" y="674"/>
      <point x="161" y="678"/>
      <point x="161" y="684" type="curve"/>
      <point x="161" y="690" type="line"/>
      <point x="161" y="696"/>
      <point x="157" y="700"/>
      <point x="151" y="700" type="curve"/>
      <point x="55" y="700" type="line"/>
      <point x="52" y="700"/>
      <point x="50" y="698"/>
      <point x="50" y="695" type="curve"/>
      <point x="50" y="5" type="line"/>
      <point x="50" y="2"/>
      <point x="52" y="0"/>
    </contour>
  </outline>
</glyph>
<glyph name="backslash" format="1">
  <advance width="256.0"/>
  <unicode hex="005C"/>
  <outline>
    <contour>
      <point x="307" y="-150"/>
      <point x="309" y="-148"/>
      <point x="309" y="-145" type="curve"/>
      <point x="-121" y="845" type="line"/>
      <point x="-121" y="848"/>
      <point x="-123" y="850"/>
      <point x="-126" y="850" type="curve"/>
      <point x="-172" y="850" type="line"/>
      <point x="-175" y="850"/>
      <point x="-177" y="848"/>
      <point x="-177" y="845" type="curve"/>
      <point x="253" y="-145" type="line"/>
      <point x="253" y="-148"/>
      <point x="255" y="-150"/>
      <point x="258" y="-150" type="curve"/>
      <point x="304" y="-150" type="line"/>
    </contour>
  </outline>
</glyph>
<glyph name="bracketright" format="1">
  <advance width="211"/>
  <unicode hex="005D"/>
  <outline>
    <contour>
      <point x="156" y="0" type="line"/>
      <point x="159" y="0"/>
      <point x="161" y="2"/>
      <point x="161" y="5" type="curve"/>
      <point x="161" y="695" type="line"/>
      <point x="161" y="698"/>
      <point x="159" y="700"/>
      <point x="156" y="700" type="curve"/>
      <point x="60" y="700" type="line"/>
      <point x="54" y="700"/>
      <point x="50" y="696"/>
      <point x="50" y="690" type="curve"/>
      <point x="50" y="684" type="line"/>
      <point x="50" y="678"/>
      <point x="54" y="674"/>
      <point x="60" y="674" type="curve"/>
      <point x="90" y="674" type="line"/>
      <point x="93" y="674"/>
      <point x="95" y="672"/>
      <point x="95" y="669" type="curve"/>
      <point x="95" y="31" type="line"/>
      <point x="95" y="28"/>
      <point x="93" y="26"/>
      <point x="90" y="26" type="curve"/>
      <point x="60" y="26" type="line"/>
      <point x="54" y="26"/>
      <point x="50" y="22"/>
      <point x="50" y="16" type="curve"/>
      <point x="50" y="10" type="line"/>
      <point x="50" y="4"/>
      <point x="54" y="0"/>
      <point x="60" y="0" type="curve"/>
    </contour>
  </outline>
</glyph>
<glyph name="a" format="1">
  <advance width="420.0"/>
  <unicode hex="0061"/>
  <outline>
    <contour>
      <point x="236.0" y="67.0"/>
      <point x="212.0" y="46.0"/>
      <point x="187.0" y="46.0" type="curve" smooth="yes"/>
      <point x="157.0" y="46.0"/>
      <point x="121.0" y="58.0"/>
      <point x="121.0" y="108.0" type="curve" smooth="yes"/>
      <point x="121.0" y="200.0" type="line" smooth="yes"/>
      <point x="121.0" y="242.0"/>
      <point x="140.0" y="265.0"/>
      <point x="196.0" y="265.0" type="curve" smooth="yes"/>
      <point x="251.0" y="265.0" type="line"/>
      <point x="254.0" y="265.0"/>
      <point x="256.0" y="263.0"/>
      <point x="256.0" y="260.0" type="curve"/>
      <point x="256.0" y="107" type="line"/>
      <point x="256.0" y="98"/>
      <point x="256.0" y="87.0"/>
      <point x="251.0" y="82.0" type="curve"/>
    </contour>
    <contour>
      <point x="251.0" y="49.0" type="curve" smooth="yes"/>
      <point x="255.0" y="49.0"/>
      <point x="256.0" y="47.0"/>
      <point x="256.0" y="43.0" type="curve"/>
      <point x="256.0" y="16.0"/>
      <point x="277.0" y="0.0"/>
      <point x="318.0" y="0.0" type="curve"/>
      <point x="386.0" y="0.0" type="line"/>
      <point x="392.0" y="0.0"/>
      <point x="396.0" y="4.0"/>
      <point x="396.0" y="10.0" type="curve"/>
      <point x="396.0" y="16.0" type="line"/>
      <point x="396.0" y="22.0"/>
      <point x="392.0" y="26.0"/>
      <point x="386.0" y="26.0" type="curve" smooth="yes"/>
      <point x="366.0" y="26.0" type="line" smooth="yes"/>
      <point x="356.0" y="26.0"/>
      <point x="351.0" y="31.0"/>
      <point x="351.0" y="41.0" type="curve" smooth="yes"/>
      <point x="351.0" y="326.0" type="line" smooth="yes"/>
      <point x="351.0" y="381.0"/>
      <point x="340.0" y="400.0"/>
      <point x="271.0" y="400.0" type="curve" smooth="yes"/>
      <point x="199.0" y="400.0"/>
      <point x="126.0" y="395.0"/>
      <point x="111.0" y="393.0" type="curve" smooth="yes"/>
      <point x="105.0" y="392.0"/>
      <point x="101.0" y="389.0"/>
      <point x="101.0" y="383.0" type="curve" smooth="yes"/>
      <point x="101.0" y="377.0" type="line" smooth="yes"/>
      <point x="101.0" y="371.0"/>
      <point x="105.0" y="367.0"/>
      <point x="111.0" y="367.0" type="curve" smooth="yes"/>
      <point x="133.0" y="368.0"/>
      <point x="168.0" y="369.0"/>
      <point x="220.0" y="369.0" type="curve"/>
      <point x="245.0" y="369.0"/>
      <point x="256.0" y="354.0"/>
      <point x="256.0" y="329.0" type="curve" smooth="yes"/>
      <point x="256.0" y="300.0" type="line"/>
      <point x="256.0" y="297.0"/>
      <point x="254.0" y="295.0"/>
      <point x="251.0" y="295.0" type="curve"/>
      <point x="115.0" y="295.0" type="line" smooth="yes"/>
      <point x="47.0" y="295.0"/>
      <point x="26.0" y="261.0"/>
      <point x="26.0" y="204.0" type="curve" smooth="yes"/>
      <point x="26.0" y="115.0" type="line" smooth="yes"/>
      <point x="26.0" y="37.0"/>
      <point x="51.0" y="-5.0"/>
      <point x="141.0" y="-5.0" type="curve" smooth="yes"/>
      <point x="192.0" y="-5.0"/>
      <point x="226.0" y="28.0"/>
      <point x="242.0" y="43.0" type="curve"/>
      <point x="245.0" y="46.0"/>
      <point x="248.0" y="49.0"/>
    </contour>
  </outline>
</glyph>
<glyph name="b" format="1">
  <advance width="511.0"/>
  <unicode hex="0062"/>
  <outline>
    <contour>
      <point x="166" y="26"/>
      <point x="164.0" y="28.0"/>
      <point x="164.0" y="31.0" type="curve" smooth="yes"/>
      <point x="164" y="343" type="line" smooth="yes"/>
      <point x="164" y="351"/>
      <point x="168" y="354"/>
      <point x="172" y="356" type="curve"/>
      <point x="184" y="363"/>
      <point x="210.0" y="381.0"/>
      <point x="272.0" y="381.0" type="curve" smooth="yes"/>
      <point x="324.0" y="381.0"/>
      <point x="381.0" y="347.0"/>
      <point x="381.0" y="213.0" type="curve" smooth="yes"/>
      <point x="381.0" y="86.0"/>
      <point x="315" y="26"/>
      <point x="248" y="26" type="curve" smooth="yes"/>
      <point x="169" y="26" type="line" smooth="yes"/>
    </contour>
    <contour>
      <point x="24" y="4"/>
      <point x="28" y="0"/>
      <point x="34" y="0" type="curve" smooth="yes"/>
      <point x="284.0" y="0.0" type="line" smooth="yes"/>
      <point x="378" y="0"/>
      <point x="477.0" y="70.0"/>
      <point x="477.0" y="213.0" type="curve" smooth="yes"/>
      <point x="477.0" y="376.0"/>
      <point x="370.0" y="415.0"/>
      <point x="272.0" y="415.0" type="curve" smooth="yes"/>
      <point x="207.0" y="415.0"/>
      <point x="175" y="395"/>
      <point x="175" y="395" type="curve" smooth="yes"/>
      <point x="170" y="392"/>
      <point x="164" y="396"/>
      <point x="164" y="403" type="curve" smooth="yes"/>
      <point x="164" y="695" type="line"/>
      <point x="164" y="698"/>
      <point x="162" y="700"/>
      <point x="159" y="700" type="curve"/>
      <point x="34" y="700" type="line"/>
      <point x="28" y="700"/>
      <point x="24" y="696"/>
      <point x="24" y="690" type="curve"/>
      <point x="24" y="684" type="line"/>
      <point x="24" y="678"/>
      <point x="28" y="674"/>
      <point x="34" y="674" type="curve"/>
      <point x="64" y="674" type="line"/>
      <point x="67" y="674"/>
      <point x="69" y="672"/>
      <point x="69" y="669" type="curve"/>
      <point x="69" y="31" type="line" smooth="yes"/>
      <point x="69" y="28"/>
      <point x="67" y="26"/>
      <point x="64.0" y="26.0" type="curve" smooth="yes"/>
      <point x="34" y="26" type="line" smooth="yes"/>
      <point x="28" y="26"/>
      <point x="24" y="22"/>
      <point x="24" y="16" type="curve" smooth="yes"/>
      <point x="24" y="10" type="line" smooth="yes"/>
    </contour>
  </outline>
</glyph>
<glyph name="c" format="1">
  <advance width="472"/>
  <unicode hex="0063"/>
  <outline>
    <contour>
      <point x="338" y="-10"/>
      <point x="396" y="45"/>
      <point x="424" y="78" type="curve" smooth="yes"/>
      <point x="429" y="84"/>
      <point x="425" y="90"/>
      <point x="422" y="93" type="curve" smooth="yes"/>
      <point x="418" y="97" type="line" smooth="yes"/>
      <point x="413" y="102"/>
      <point x="409" y="101"/>
      <point x="402" y="94" type="curve" smooth="yes"/>
      <point x="360" y="52"/>
      <point x="329" y="34"/>
      <point x="270" y="32" type="curve"/>
      <point x="204" y="32"/>
      <point x="136" y="90"/>
      <point x="136" y="200" type="curve"/>
      <point x="136" y="329"/>
      <point x="185" y="378"/>
      <point x="239" y="378" type="curve"/>
      <point x="295" y="378"/>
      <point x="316" y="336"/>
      <point x="316" y="279" type="curve"/>
      <point x="316" y="272"/>
      <point x="321" y="269"/>
      <point x="326" y="269" type="curve"/>
      <point x="438" y="269" type="line"/>
      <point x="444" y="269"/>
      <point x="448" y="273"/>
      <point x="448" y="279" type="curve"/>
      <point x="448" y="282" type="line"/>
      <point x="448" y="288"/>
      <point x="444" y="292"/>
      <point x="438" y="292" type="curve"/>
      <point x="434" y="292" type="line"/>
      <point x="426" y="292"/>
      <point x="423" y="296"/>
      <point x="421" y="301" type="curve" smooth="yes"/>
      <point x="401" y="364"/>
      <point x="338" y="410"/>
      <point x="255" y="410" type="curve" smooth="yes"/>
      <point x="130" y="410"/>
      <point x="34" y="315"/>
      <point x="34" y="200" type="curve"/>
      <point x="34" y="70"/>
      <point x="109" y="-10"/>
      <point x="249" y="-10" type="curve" smooth="yes"/>
    </contour>
  </outline>
</glyph>
<glyph name="d" format="1">
  <advance width="516.0"/>
  <unicode hex="0064"/>
  <outline>
    <contour>
      <point x="352.0" y="28"/>
      <point x="350.0" y="26"/>
      <point x="347.0" y="26" type="curve"/>
      <point x="293" y="26" type="line"/>
      <point x="186" y="26"/>
      <point x="130" y="86"/>
      <point x="130" y="213" type="curve" smooth="yes"/>
      <point x="130" y="347"/>
      <point x="192.0" y="381.0"/>
      <point x="244.0" y="381.0" type="curve" smooth="yes"/>
      <point x="306.0" y="381.0"/>
      <point x="332.0" y="344"/>
      <point x="344.0" y="331" type="curve" smooth="yes"/>
      <point x="348.0" y="327"/>
      <point x="352.0" y="321"/>
      <point x="352.0" y="313" type="curve"/>
      <point x="352.0" y="31" type="line" smooth="yes"/>
    </contour>
    <contour>
      <point x="482.0" y="0" type="line"/>
      <point x="488.0" y="0"/>
      <point x="492.0" y="4"/>
      <point x="492.0" y="10" type="curve"/>
      <point x="492.0" y="16" type="line"/>
      <point x="492.0" y="22"/>
      <point x="488.0" y="26"/>
      <point x="482.0" y="26" type="curve"/>
      <point x="452.0" y="26" type="line" smooth="yes"/>
      <point x="449.0" y="26"/>
      <point x="447.0" y="28"/>
      <point x="447.0" y="31" type="curve"/>
      <point x="447.0" y="645" type="line"/>
      <point x="447.0" y="648"/>
      <point x="445.0" y="650"/>
      <point x="442.0" y="650" type="curve"/>
      <point x="317.0" y="650" type="line"/>
      <point x="311.0" y="650"/>
      <point x="307.0" y="646"/>
      <point x="307.0" y="640" type="curve"/>
      <point x="307.0" y="634" type="line"/>
      <point x="307.0" y="628"/>
      <point x="311.0" y="624"/>
      <point x="317.0" y="624" type="curve"/>
      <point x="347.0" y="624" type="line"/>
      <point x="350.0" y="624"/>
      <point x="352.0" y="622"/>
      <point x="352.0" y="619" type="curve"/>
      <point x="352.0" y="403.0" type="line"/>
      <point x="352.0" y="396.0"/>
      <point x="346.0" y="392.0"/>
      <point x="341.0" y="395.0" type="curve"/>
      <point x="341.0" y="395.0"/>
      <point x="309.0" y="415.0"/>
      <point x="244.0" y="415.0" type="curve" smooth="yes"/>
      <point x="146.0" y="415.0"/>
      <point x="34" y="376"/>
      <point x="34" y="213" type="curve" smooth="yes"/>
      <point x="34" y="70"/>
      <point x="113" y="0"/>
      <point x="232.0" y="0.0" type="curve" smooth="yes"/>
    </contour>
  </outline>
</glyph>
<glyph name="e" format="1">
  <advance width="458.0"/>
  <unicode hex="0065"/>
  <outline>
    <contour>
      <point x="425.0" y="78" type="curve" smooth="yes"/>
      <point x="430.0" y="84"/>
      <point x="426.0" y="90"/>
      <point x="423.0" y="93" type="curve" smooth="yes"/>
      <point x="419.0" y="97" type="line" smooth="yes"/>
      <point x="414.0" y="102"/>
      <point x="410.0" y="101"/>
      <point x="403.0" y="94" type="curve" smooth="yes"/>
      <point x="361.0" y="52"/>
      <point x="330.0" y="34"/>
      <point x="271.0" y="32" type="curve"/>
      <point x="260.0" y="-10" type="line"/>
      <point x="339.0" y="-10"/>
      <point x="397.0" y="45"/>
    </contour>
    <contour>
      <point x="260.0" y="-10.0" type="line"/>
      <point x="135.0" y="-10.0"/>
      <point x="34.0" y="65.0"/>
      <point x="34.0" y="200.0" type="curve" smooth="yes"/>
      <point x="34.0" y="315.0"/>
      <point x="115.0" y="410.0"/>
      <point x="240.0" y="410.0" type="curve" smooth="yes"/>
      <point x="365.0" y="410.0"/>
      <point x="434.0" y="335"/>
      <point x="434.0" y="245" type="curve"/>
      <point x="434.0" y="237"/>
      <point x="432.0" y="235"/>
      <point x="424.0" y="235" type="curve"/>
      <point x="149.0" y="235.0" type="line"/>
      <point x="144.0" y="235.0"/>
      <point x="144.0" y="230.0"/>
      <point x="144.0" y="230.0" type="curve"/>
      <point x="144.0" y="100"/>
      <point x="180.0" y="32"/>
      <point x="271.0" y="32.0" type="curve"/>
    </contour>
    <contour>
      <point x="314.0" y="265.0" type="curve" smooth="yes"/>
      <point x="314.0" y="265.0"/>
      <point x="319.0" y="265.0"/>
      <point x="319.0" y="270.0" type="curve" smooth="yes"/>
      <point x="319.0" y="330.0"/>
      <point x="287.0" y="385"/>
      <point x="235.0" y="385.0" type="curve" smooth="yes"/>
      <point x="196.0" y="385"/>
      <point x="148.0" y="340"/>
      <point x="148.0" y="270" type="curve"/>
      <point x="148.0" y="267"/>
      <point x="150.0" y="265"/>
      <point x="153.0" y="265" type="curve" smooth="yes"/>
      <point x="178.0" y="265"/>
      <point x="314.0" y="265.0"/>
    </contour>
  </outline>
</glyph>
<glyph name="f" format="1">
  <advance width="299.0"/>
  <unicode hex="0066"/>
  <outline>
    <contour>
      <point x="205.0" y="0.0"/>
      <point x="209.0" y="4.0"/>
      <point x="209.0" y="10.0" type="curve"/>
      <point x="209.0" y="16.0" type="line"/>
      <point x="209.0" y="22.0"/>
      <point x="205.0" y="26.0"/>
      <point x="199.0" y="26.0" type="curve"/>
      <point x="169.0" y="26.0" type="line"/>
      <point x="166.0" y="26.0"/>
      <point x="164.0" y="28.0"/>
      <point x="164.0" y="31.0" type="curve"/>
      <point x="164.0" y="369.0" type="line"/>
      <point x="164.0" y="372.0"/>
      <point x="166.0" y="374.0"/>
      <point x="169.0" y="374.0" type="curve"/>
      <point x="259.0" y="374.0" type="line"/>
      <point x="265.0" y="374.0"/>
      <point x="269.0" y="378.0"/>
      <point x="269.0" y="384.0" type="curve"/>
      <point x="269.0" y="390.0" type="line"/>
      <point x="269.0" y="396.0"/>
      <point x="265.0" y="400.0"/>
      <point x="259.0" y="400.0" type="curve"/>
      <point x="169.0" y="400.0" type="line"/>
      <point x="166.0" y="400.0"/>
      <point x="164.0" y="402.0"/>
      <point x="164.0" y="405.0" type="curve"/>
      <point x="164.0" y="632.0" type="line"/>
      <point x="164.0" y="657.0"/>
      <point x="171.0" y="674.0"/>
      <point x="192.0" y="674.0" type="curve"/>
      <point x="213.0" y="674.0"/>
      <point x="219.0" y="657.0"/>
      <point x="219.0" y="632.0" type="curve"/>
      <point x="219.0" y="595.0" type="line"/>
      <point x="219.0" y="592.0"/>
      <point x="221.0" y="590.0"/>
      <point x="224.0" y="590.0" type="curve"/>
      <point x="324.0" y="590.0" type="line"/>
      <point x="327.0" y="590.0"/>
      <point x="329.0" y="592.0"/>
      <point x="329.0" y="595.0" type="curve"/>
      <point x="329.0" y="600.0" type="line"/>
      <point x="329.0" y="603.0"/>
      <point x="327.0" y="605.0"/>
      <point x="324.0" y="605.0" type="curve"/>
      <point x="316.0" y="605.0" type="line"/>
      <point x="313.0" y="605.0"/>
      <point x="311.0" y="607.0"/>
      <point x="311.0" y="610.0" type="curve"/>
      <point x="311.0" y="664.0"/>
      <point x="264.0" y="700.0"/>
      <point x="196.0" y="700.0" type="curve"/>
      <point x="83.0" y="700.0"/>
      <point x="69.0" y="624.0"/>
      <point x="69.0" y="565.0" type="curve"/>
      <point x="69.0" y="405.0" type="line"/>
      <point x="69.0" y="402.0"/>
      <point x="67.0" y="400.0"/>
      <point x="64.0" y="400.0" type="curve"/>
      <point x="34.0" y="400.0" type="line"/>
      <point x="28.0" y="400.0"/>
      <point x="24.0" y="396.0"/>
      <point x="24.0" y="390.0" type="curve"/>
      <point x="24.0" y="384.0" type="line"/>
      <point x="24.0" y="378.0"/>
      <point x="28.0" y="374.0"/>
      <point x="34.0" y="374.0" type="curve"/>
      <point x="64.0" y="374.0" type="line"/>
      <point x="67.0" y="374.0"/>
      <point x="69.0" y="372.0"/>
      <point x="69.0" y="369.0" type="curve"/>
      <point x="69.0" y="5.0" type="line"/>
      <point x="69.0" y="2.0"/>
      <point x="71.0" y="0.0"/>
      <point x="74.0" y="0.0" type="curve"/>
      <point x="199.0" y="0.0" type="line"/>
    </contour>
  </outline>
</glyph>
<glyph name="g" format="1">
  <advance width="485"/>
  <unicode hex="0067"/>
  <outline>
    <contour>
      <point x="185" y="-180" type="curve"/>
      <point x="275" y="-180"/>
      <point x="316" y="-121"/>
      <point x="325" y="-110" type="curve" smooth="yes"/>
      <point x="332" y="-102"/>
      <point x="336" y="-100"/>
      <point x="340" y="-100" type="curve"/>
      <point x="405" y="-100" type="line"/>
      <point x="408" y="-100"/>
      <point x="410" y="-98"/>
      <point x="410" y="-95" type="curve"/>
      <point x="410" y="369" type="line"/>
      <point x="410" y="372"/>
      <point x="412" y="374"/>
      <point x="415" y="374" type="curve"/>
      <point x="445" y="374" type="line"/>
      <point x="451" y="374"/>
      <point x="455" y="378"/>
      <point x="455" y="384" type="curve"/>
      <point x="455" y="390" type="line"/>
      <point x="455" y="396"/>
      <point x="451" y="400"/>
      <point x="445" y="400" type="curve"/>
      <point x="225" y="400" type="line" smooth="yes"/>
      <point x="155" y="400"/>
      <point x="20" y="340"/>
      <point x="20" y="200" type="curve" smooth="yes"/>
      <point x="20" y="117"/>
      <point x="57" y="63"/>
      <point x="106" y="30" type="curve"/>
      <point x="109" y="28"/>
      <point x="111" y="26"/>
      <point x="108" y="21" type="curve"/>
      <point x="25" y="-99" type="line" smooth="yes"/>
      <point x="23" y="-102"/>
      <point x="23" y="-103"/>
      <point x="23" y="-105" type="curve"/>
      <point x="23" y="-107"/>
      <point x="24" y="-109"/>
      <point x="25" y="-111" type="curve" smooth="yes"/>
      <point x="33" y="-127"/>
      <point x="78" y="-180"/>
    </contour>
    <contour>
      <point x="292.0" y="30.0"/>
      <point x="261.0" y="30.0"/>
      <point x="229.0" y="30.0" type="curve" smooth="yes"/>
      <point x="163.0" y="30.0"/>
      <point x="130.0" y="112.0"/>
      <point x="130.0" y="200.0" type="curve"/>
      <point x="130.0" y="270.0"/>
      <point x="170.0" y="374.0"/>
      <point x="250.0" y="374.0" type="curve" smooth="yes"/>
      <point x="310.0" y="374.0" type="line"/>
      <point x="312.0" y="374.0"/>
      <point x="315.0" y="372.0"/>
      <point x="315.0" y="369.0" type="curve"/>
      <point x="315.0" y="80.0" type="line"/>
      <point x="315.0" y="72.0"/>
      <point x="313.0" y="65.0"/>
      <point x="310.0" y="60.0" type="curve" smooth="yes"/>
    </contour>
    <contour>
      <point x="286" y="-98"/>
      <point x="264" y="-110"/>
      <point x="220" y="-110" type="curve" smooth="yes"/>
      <point x="165" y="-110"/>
      <point x="130" y="-87"/>
      <point x="110" y="-65" type="curve" smooth="yes"/>
      <point x="108" y="-63"/>
      <point x="107" y="-60"/>
      <point x="107" y="-58" type="curve"/>
      <point x="107" y="-56"/>
      <point x="108" y="-52"/>
      <point x="110" y="-49" type="curve" smooth="yes"/>
      <point x="139" y="0" type="line"/>
      <point x="143" y="6"/>
      <point x="145" y="7"/>
      <point x="150" y="5" type="curve"/>
      <point x="174" y="-6"/>
      <point x="189" y="-10"/>
      <point x="209" y="-10" type="curve" smooth="yes"/>
      <point x="251" y="-10"/>
      <point x="281" y="-1"/>
      <point x="308" y="22" type="curve" smooth="yes"/>
      <point x="310" y="23"/>
      <point x="315" y="24"/>
      <point x="315" y="17" type="curve"/>
      <point x="315" y="-65" type="line"/>
      <point x="315" y="-74"/>
      <point x="311" y="-81"/>
      <point x="305" y="-85" type="curve" smooth="yes"/>
    </contour>
  </outline>
</glyph>
<glyph name="h" format="1">
  <advance width="473"/>
  <unicode hex="0068"/>
  <outline>
    <contour>
      <point x="324" y="7" type="line"/>
      <point x="324" y="3"/>
      <point x="327" y="0"/>
      <point x="331" y="0" type="curve"/>
      <point x="439" y="0" type="line"/>
      <point x="446" y="0"/>
      <point x="449" y="4"/>
      <point x="449" y="10" type="curve"/>
      <point x="449" y="16" type="line"/>
      <point x="449" y="22"/>
      <point x="445" y="26"/>
      <point x="439" y="26" type="curve"/>
      <point x="426" y="26" type="line"/>
      <point x="422" y="26"/>
      <point x="419" y="29"/>
      <point x="419" y="33" type="curve"/>
      <point x="419" y="280" type="line" smooth="yes"/>
      <point x="419" y="345"/>
      <point x="389" y="400"/>
      <point x="299" y="400" type="curve" smooth="yes"/>
      <point x="160" y="400" type="line"/>
      <point x="157" y="400"/>
      <point x="155" y="402"/>
      <point x="155" y="405" type="curve"/>
      <point x="155" y="695" type="line"/>
      <point x="155" y="698"/>
      <point x="153" y="700"/>
      <point x="150" y="700" type="curve"/>
      <point x="31" y="700" type="line"/>
      <point x="27" y="700"/>
      <point x="24" y="697"/>
      <point x="24" y="693" type="curve"/>
      <point x="24" y="681" type="line"/>
      <point x="24" y="677"/>
      <point x="27" y="674"/>
      <point x="31" y="674" type="curve"/>
      <point x="52" y="674" type="line"/>
      <point x="57" y="674"/>
      <point x="59" y="672"/>
      <point x="59" y="667" type="curve"/>
      <point x="59" y="667"/>
      <point x="59" y="7"/>
      <point x="59" y="7" type="curve"/>
      <point x="59" y="3"/>
      <point x="62" y="0"/>
      <point x="66" y="0" type="curve"/>
      <point x="174" y="0" type="line"/>
      <point x="180" y="0"/>
      <point x="184" y="4"/>
      <point x="184" y="10" type="curve"/>
      <point x="184" y="10"/>
      <point x="184" y="16"/>
      <point x="184" y="16" type="curve"/>
      <point x="184" y="22"/>
      <point x="180" y="26"/>
      <point x="174" y="26" type="curve"/>
      <point x="161" y="26" type="line"/>
      <point x="157" y="26"/>
      <point x="154" y="29"/>
      <point x="154" y="33" type="curve"/>
      <point x="154" y="33"/>
      <point x="154" y="362"/>
      <point x="154" y="362" type="curve"/>
      <point x="154" y="367"/>
      <point x="157" y="370"/>
      <point x="162" y="370" type="curve"/>
      <point x="274" y="370" type="line" smooth="yes"/>
      <point x="304" y="370"/>
      <point x="324" y="340"/>
      <point x="324" y="310" type="curve" smooth="yes"/>
    </contour>
  </outline>
</glyph>
<glyph name="i" format="1">
  <advance width="241"/>
  <unicode hex="0069"/>
  <outline>
    <contour>
      <point x="73" y="2"/>
      <point x="75" y="0"/>
      <point x="78" y="0" type="curve"/>
      <point x="203" y="0" type="line"/>
      <point x="209" y="0"/>
      <point x="213" y="4"/>
      <point x="213" y="10" type="curve"/>
      <point x="213" y="16" type="line"/>
      <point x="213" y="22"/>
      <point x="209" y="26"/>
      <point x="203" y="26" type="curve"/>
      <point x="173" y="26" type="line"/>
      <point x="170" y="26"/>
      <point x="168" y="28"/>
      <point x="168" y="31" type="curve"/>
      <point x="168" y="395" type="line"/>
      <point x="168" y="398"/>
      <point x="166" y="400"/>
      <point x="163" y="400" type="curve"/>
      <point x="38" y="400" type="line"/>
      <point x="32" y="400"/>
      <point x="28" y="396"/>
      <point x="28" y="390" type="curve"/>
      <point x="28" y="384" type="line"/>
      <point x="28" y="378"/>
      <point x="32" y="374"/>
      <point x="38" y="374" type="curve"/>
      <point x="68" y="374" type="line"/>
      <point x="71" y="374"/>
      <point x="73" y="372"/>
      <point x="73" y="369" type="curve"/>
      <point x="73" y="5" type="line"/>
    </contour>
    <contour>
      <point x="123" y="570" type="curve" smooth="yes"/>
      <point x="153" y="570"/>
      <point x="179" y="596"/>
      <point x="179" y="625" type="curve" smooth="yes"/>
      <point x="179" y="655"/>
      <point x="153" y="681"/>
      <point x="123" y="681" type="curve" smooth="yes"/>
      <point x="94" y="681"/>
      <point x="68" y="655"/>
      <point x="68" y="625" type="curve" smooth="yes"/>
      <point x="68" y="596"/>
      <point x="94" y="570"/>
    </contour>
  </outline>
</glyph>
<glyph name="j" format="1">
  <advance width="208"/>
  <unicode hex="006A"/>
  <outline>
    <contour>
      <point x="28" y="-158" type="curve"/>
      <point x="28" y="-168" type="line"/>
      <point x="28" y="-174"/>
      <point x="32" y="-178"/>
      <point x="38" y="-178" type="curve"/>
      <point x="117" y="-178"/>
      <point x="173" y="-131"/>
      <point x="173" y="20" type="curve" smooth="yes"/>
      <point x="173" y="186"/>
      <point x="173.0" y="395.0"/>
      <point x="173.0" y="395.0" type="curve"/>
      <point x="173.0" y="398.0"/>
      <point x="171.0" y="400.0"/>
      <point x="168.0" y="400.0" type="curve"/>
      <point x="48" y="400" type="line"/>
      <point x="41" y="400"/>
      <point x="38" y="397"/>
      <point x="38" y="390" type="curve"/>
      <point x="38" y="384" type="line"/>
      <point x="38" y="377"/>
      <point x="41" y="374"/>
      <point x="48" y="374" type="curve"/>
      <point x="78" y="374" type="line"/>
      <point x="81" y="374"/>
      <point x="83" y="372"/>
      <point x="83" y="369" type="curve"/>
      <point x="83.0" y="0.0" type="line"/>
      <point x="83" y="-69"/>
      <point x="85" y="-148"/>
      <point x="38" y="-148" type="curve"/>
      <point x="32" y="-148"/>
      <point x="28" y="-152"/>
    </contour>
    <contour>
      <point x="128" y="575" type="curve" smooth="yes"/>
      <point x="156" y="575"/>
      <point x="178" y="598"/>
      <point x="178" y="625" type="curve" smooth="yes"/>
      <point x="178" y="653"/>
      <point x="156" y="675"/>
      <point x="128" y="675" type="curve" smooth="yes"/>
      <point x="101" y="675"/>
      <point x="78" y="653"/>
      <point x="78" y="625" type="curve" smooth="yes"/>
      <point x="78" y="598"/>
      <point x="101" y="575"/>
    </contour>
  </outline>
</glyph>
<glyph name="k" format="1">
  <advance width="436.0"/>
  <unicode hex="006B"/>
  <outline>
    <contour>
      <point x="196" y="0"/>
      <point x="200" y="4"/>
      <point x="200" y="10" type="curve"/>
      <point x="200" y="16" type="line"/>
      <point x="200" y="22"/>
      <point x="196" y="26"/>
      <point x="190" y="26" type="curve"/>
      <point x="160" y="26" type="line" smooth="yes"/>
      <point x="157" y="26"/>
      <point x="155" y="28"/>
      <point x="155" y="31" type="curve" smooth="yes"/>
      <point x="155" y="181" type="line" smooth="yes"/>
      <point x="155" y="186"/>
      <point x="157" y="190"/>
      <point x="162" y="190" type="curve"/>
      <point x="166" y="190"/>
      <point x="169" y="189"/>
      <point x="174" y="183" type="curve" smooth="yes"/>
      <point x="311" y="8" type="line" smooth="yes"/>
      <point x="315" y="3"/>
      <point x="321" y="0"/>
      <point x="327" y="0" type="curve"/>
      <point x="426" y="0" type="line"/>
      <point x="432" y="0"/>
      <point x="436" y="4"/>
      <point x="436" y="10" type="curve"/>
      <point x="436" y="16" type="line"/>
      <point x="436" y="22"/>
      <point x="432" y="26"/>
      <point x="426" y="26" type="curve"/>
      <point x="413" y="26" type="line"/>
      <point x="405" y="26"/>
      <point x="402" y="27"/>
      <point x="398" y="32" type="curve"/>
      <point x="235" y="237" type="line" smooth="yes"/>
      <point x="232" y="241"/>
      <point x="231" y="243"/>
      <point x="231" y="247" type="curve"/>
      <point x="231" y="250"/>
      <point x="232" y="253"/>
      <point x="235" y="256" type="curve" smooth="yes"/>
      <point x="361" y="374" type="line" smooth="yes"/>
      <point x="372" y="384"/>
      <point x="372" y="385"/>
      <point x="372" y="390" type="curve" smooth="yes"/>
      <point x="372" y="396"/>
      <point x="368" y="400"/>
      <point x="362" y="400" type="curve"/>
      <point x="239" y="400" type="line"/>
      <point x="233" y="400"/>
      <point x="229" y="396"/>
      <point x="229" y="390" type="curve"/>
      <point x="229" y="384" type="line"/>
      <point x="229" y="378"/>
      <point x="233" y="374"/>
      <point x="239" y="374" type="curve"/>
      <point x="245" y="374" type="line"/>
      <point x="260" y="374"/>
      <point x="269" y="364"/>
      <point x="269" y="350" type="curve"/>
      <point x="269" y="330"/>
      <point x="260" y="321"/>
      <point x="246" y="308" type="curve" smooth="yes"/>
      <point x="170" y="234" type="line" smooth="yes"/>
      <point x="167" y="231"/>
      <point x="165" y="230"/>
      <point x="162" y="230" type="curve" smooth="yes"/>
      <point x="159" y="230"/>
      <point x="155" y="232"/>
      <point x="155" y="239" type="curve" smooth="yes"/>
      <point x="155" y="695" type="line"/>
      <point x="155" y="698"/>
      <point x="153" y="700"/>
      <point x="150" y="700" type="curve"/>
      <point x="25" y="700" type="line"/>
      <point x="19" y="700"/>
      <point x="15" y="696"/>
      <point x="15" y="690" type="curve"/>
      <point x="15" y="684" type="line"/>
      <point x="15" y="678"/>
      <point x="19" y="674"/>
      <point x="25" y="674" type="curve"/>
      <point x="55" y="674" type="line"/>
      <point x="58" y="674"/>
      <point x="60" y="672"/>
      <point x="60" y="669" type="curve"/>
      <point x="60" y="5" type="line" smooth="yes"/>
      <point x="60" y="2"/>
      <point x="62" y="0"/>
      <point x="65" y="0" type="curve" smooth="yes"/>
      <point x="190" y="0" type="line"/>
    </contour>
  </outline>
</glyph>
<glyph name="l" format="1">
  <advance width="233"/>
  <unicode hex="006C"/>
  <outline>
    <contour>
      <point x="69" y="2"/>
      <point x="71" y="0"/>
      <point x="74" y="0" type="curve"/>
      <point x="199" y="0" type="line"/>
      <point x="205" y="0"/>
      <point x="209" y="4"/>
      <point x="209" y="10" type="curve"/>
      <point x="209" y="16" type="line"/>
      <point x="209" y="22"/>
      <point x="205" y="26"/>
      <point x="199" y="26" type="curve"/>
      <point x="169" y="26" type="line" smooth="yes"/>
      <point x="166" y="26"/>
      <point x="164" y="28"/>
      <point x="164" y="31" type="curve"/>
      <point x="164" y="695" type="line"/>
      <point x="164" y="698"/>
      <point x="162" y="700"/>
      <point x="159" y="700" type="curve"/>
      <point x="33" y="700" type="line"/>
      <point x="28" y="700"/>
      <point x="24" y="696"/>
      <point x="24" y="691" type="curve"/>
      <point x="24" y="683" type="line"/>
      <point x="24" y="678"/>
      <point x="28" y="674"/>
      <point x="33" y="674" type="curve"/>
      <point x="64" y="674" type="line"/>
      <point x="67" y="674"/>
      <point x="69" y="672"/>
      <point x="69" y="669" type="curve"/>
      <point x="69" y="5" type="line"/>
    </contour>
  </outline>
</glyph>
<glyph name="m" format="1">
  <advance width="726"/>
  <unicode hex="006D"/>
  <outline>
    <contour>
      <point x="172.0" y="0.0"/>
      <point x="176.0" y="4.0"/>
      <point x="176.0" y="10.0" type="curve"/>
      <point x="176.0" y="16.0" type="line"/>
      <point x="176.0" y="22.0"/>
      <point x="172.0" y="26.0"/>
      <point x="166.0" y="26.0" type="curve"/>
      <point x="153.0" y="26.0" type="line"/>
      <point x="149.0" y="26.0"/>
      <point x="146.0" y="29.0"/>
      <point x="146.0" y="33.0" type="curve"/>
      <point x="146.0" y="369.0" type="line"/>
      <point x="146.0" y="372.0"/>
      <point x="148.0" y="374.0"/>
      <point x="151.0" y="374.0" type="curve"/>
      <point x="263.0" y="374.0" type="line" smooth="yes"/>
      <point x="298.0" y="374.0"/>
      <point x="316.0" y="346.0"/>
      <point x="316.0" y="309.0" type="curve" smooth="yes"/>
      <point x="316.0" y="7.0" type="line"/>
      <point x="316.0" y="3.0"/>
      <point x="319.0" y="0.0"/>
      <point x="323.0" y="0.0" type="curve"/>
      <point x="431.0" y="0.0" type="line"/>
      <point x="437.0" y="0.0"/>
      <point x="441.0" y="4.0"/>
      <point x="441.0" y="10.0" type="curve"/>
      <point x="441.0" y="16.0" type="line"/>
      <point x="441.0" y="22.0"/>
      <point x="437.0" y="26.0"/>
      <point x="431.0" y="26.0" type="curve"/>
      <point x="418.0" y="26.0" type="line"/>
      <point x="414.0" y="26.0"/>
      <point x="411.0" y="29.0"/>
      <point x="411.0" y="33.0" type="curve"/>
      <point x="411.0" y="279.0" type="line" smooth="yes"/>
      <point x="411.0" y="296.0"/>
      <point x="407.0" y="308.0"/>
      <point x="403.0" y="324.0" type="curve" smooth="yes"/>
      <point x="401.0" y="330.0"/>
      <point x="399.0" y="334.0"/>
      <point x="399.0" y="341.0" type="curve"/>
      <point x="399.0" y="345.0"/>
      <point x="401.0" y="348.0"/>
      <point x="404.0" y="351.0" type="curve" smooth="yes"/>
      <point x="421.0" y="367.0"/>
      <point x="451.0" y="374.0"/>
      <point x="484.0" y="374.0" type="curve" smooth="yes"/>
      <point x="499.0" y="374.0" type="line"/>
      <point x="559.0" y="374.0"/>
      <point x="571.0" y="334.0"/>
      <point x="571.0" y="289.0" type="curve" smooth="yes"/>
      <point x="571.0" y="7.0" type="line"/>
      <point x="571.0" y="3.0"/>
      <point x="574.0" y="0.0"/>
      <point x="578.0" y="0.0" type="curve"/>
      <point x="686.0" y="0.0" type="line"/>
      <point x="692.0" y="0.0"/>
      <point x="696.0" y="4.0"/>
      <point x="696.0" y="10.0" type="curve"/>
      <point x="696.0" y="16.0" type="line"/>
      <point x="696.0" y="22.0"/>
      <point x="692.0" y="26.0"/>
      <point x="686.0" y="26.0" type="curve"/>
      <point x="673.0" y="26.0" type="line"/>
      <point x="669.0" y="26.0"/>
      <point x="666.0" y="29.0"/>
      <point x="666.0" y="33.0" type="curve"/>
      <point x="666.0" y="279.0" type="line" smooth="yes"/>
      <point x="666.0" y="349.0"/>
      <point x="632.0" y="400.0"/>
      <point x="544.0" y="400.0" type="curve"/>
      <point x="479.0" y="400.0" type="line" smooth="yes"/>
      <point x="441.0" y="400.0"/>
      <point x="410.0" y="390.0"/>
      <point x="388.0" y="373.0" type="curve"/>
      <point x="386.0" y="371.0"/>
      <point x="383.0" y="370.0"/>
      <point x="381.0" y="370.0" type="curve" smooth="yes"/>
      <point x="379.0" y="370.0"/>
      <point x="376.0" y="371.0"/>
      <point x="374.0" y="373.0" type="curve"/>
      <point x="354.0" y="390.0"/>
      <point x="325.0" y="400.0"/>
      <point x="286.0" y="400.0" type="curve" smooth="yes"/>
      <point x="26.0" y="400.0" type="line"/>
      <point x="20.0" y="400.0"/>
      <point x="16.0" y="396.0"/>
      <point x="16.0" y="390.0" type="curve"/>
      <point x="16.0" y="384.0" type="line"/>
      <point x="16.0" y="378.0"/>
      <point x="20.0" y="374.0"/>
      <point x="26.0" y="374.0" type="curve"/>
      <point x="46.0" y="374.0" type="line"/>
      <point x="49.0" y="374.0"/>
      <point x="51.0" y="372.0"/>
      <point x="51.0" y="369.0" type="curve"/>
      <point x="51.0" y="7.0" type="line"/>
      <point x="51.0" y="3.0"/>
      <point x="54.0" y="0.0"/>
      <point x="58.0" y="0.0" type="curve"/>
      <point x="166.0" y="0.0" type="line"/>
    </contour>
  </outline>
</glyph>
<glyph name="n" format="1">
  <advance width="460"/>
  <unicode hex="006E"/>
  <outline>
    <contour>
      <point x="315" y="5" type="line"/>
      <point x="315" y="2"/>
      <point x="317" y="0"/>
      <point x="320" y="0" type="curve"/>
      <point x="430" y="0" type="line"/>
      <point x="436" y="0"/>
      <point x="440" y="4"/>
      <point x="440" y="10" type="curve"/>
      <point x="440" y="16" type="line"/>
      <point x="440" y="22"/>
      <point x="436" y="26"/>
      <point x="430" y="26" type="curve"/>
      <point x="415" y="26" type="line"/>
      <point x="412" y="26"/>
      <point x="410" y="28"/>
      <point x="410" y="31" type="curve"/>
      <point x="410" y="280" type="line" smooth="yes"/>
      <point x="410" y="345"/>
      <point x="380" y="400"/>
      <point x="290" y="400" type="curve" smooth="yes"/>
      <point x="30" y="400" type="line"/>
      <point x="24" y="400"/>
      <point x="20" y="396"/>
      <point x="20" y="390" type="curve"/>
      <point x="20" y="384" type="line"/>
      <point x="20" y="378"/>
      <point x="24" y="374"/>
      <point x="30" y="374" type="curve"/>
      <point x="50" y="374" type="line"/>
      <point x="53" y="374"/>
      <point x="55" y="372"/>
      <point x="55" y="369" type="curve"/>
      <point x="55" y="369"/>
      <point x="55" y="5"/>
      <point x="55" y="5" type="curve"/>
      <point x="55" y="2"/>
      <point x="57" y="0"/>
      <point x="60" y="0" type="curve"/>
      <point x="170" y="0" type="line"/>
      <point x="176" y="0"/>
      <point x="180" y="4"/>
      <point x="180" y="10" type="curve"/>
      <point x="180" y="10"/>
      <point x="180" y="16"/>
      <point x="180" y="16" type="curve"/>
      <point x="180" y="22"/>
      <point x="176" y="26"/>
      <point x="170" y="26" type="curve"/>
      <point x="155" y="26" type="line"/>
      <point x="152" y="26"/>
      <point x="150" y="28"/>
      <point x="150" y="31" type="curve"/>
      <point x="150" y="31"/>
      <point x="150" y="369"/>
      <point x="150" y="369" type="curve"/>
      <point x="150" y="372"/>
      <point x="152" y="374"/>
      <point x="155" y="374" type="curve"/>
      <point x="265" y="374" type="line" smooth="yes"/>
      <point x="295" y="374"/>
      <point x="315" y="344"/>
      <point x="315" y="314" type="curve" smooth="yes"/>
    </contour>
  </outline>
</glyph>
<glyph name="o" format="1">
  <advance width="503"/>
  <unicode hex="006F"/>
  <outline>
    <contour>
      <point x="254" y="-10" type="curve" smooth="yes"/>
      <point x="129" y="-10"/>
      <point x="34" y="65"/>
      <point x="34" y="200" type="curve" smooth="yes"/>
      <point x="34" y="315"/>
      <point x="129" y="410"/>
      <point x="254" y="410" type="curve"/>
      <point x="379" y="410"/>
      <point x="469" y="315"/>
      <point x="469" y="200" type="curve" smooth="yes"/>
      <point x="469" y="65"/>
      <point x="374" y="-10"/>
    </contour>
    <contour>
      <point x="254" y="20" type="curve" smooth="yes"/>
      <point x="344" y="20"/>
      <point x="379" y="115"/>
      <point x="379" y="200" type="curve" smooth="yes"/>
      <point x="379" y="280"/>
      <point x="344" y="380"/>
      <point x="254" y="380" type="curve" smooth="yes"/>
      <point x="164" y="380"/>
      <point x="124" y="280"/>
      <point x="124" y="200" type="curve" smooth="yes"/>
      <point x="124" y="115"/>
      <point x="164" y="20"/>
    </contour>
  </outline>
</glyph>
<glyph name="p" format="1">
  <advance width="497"/>
  <unicode hex="0070"/>
  <outline>
    <contour>
      <point x="176" y="30"/>
      <point x="156" y="50"/>
      <point x="156" y="85" type="curve"/>
      <point x="156" y="369" type="line"/>
      <point x="156" y="372"/>
      <point x="158" y="374"/>
      <point x="161" y="374" type="curve"/>
      <point x="231" y="374" type="line" smooth="yes"/>
      <point x="311" y="374"/>
      <point x="366" y="295"/>
      <point x="366" y="200" type="curve" smooth="yes"/>
      <point x="366" y="115"/>
      <point x="341" y="30"/>
      <point x="256" y="30" type="curve" smooth="yes"/>
    </contour>
    <contour>
      <point x="156" y="10" type="line"/>
      <point x="156" y="15"/>
      <point x="159" y="19"/>
      <point x="166" y="15" type="curve" smooth="yes"/>
      <point x="172" y="11"/>
      <point x="211" y="-10"/>
      <point x="256" y="-10" type="curve" smooth="yes"/>
      <point x="331" y="-10"/>
      <point x="471" y="45"/>
      <point x="471" y="200" type="curve" smooth="yes"/>
      <point x="471" y="320"/>
      <point x="361" y="400"/>
      <point x="266" y="400" type="curve" smooth="yes"/>
      <point x="26" y="400" type="line"/>
      <point x="20" y="400"/>
      <point x="16" y="396"/>
      <point x="16" y="390" type="curve"/>
      <point x="16" y="384" type="line"/>
      <point x="16" y="378"/>
      <point x="20" y="374"/>
      <point x="26" y="374" type="curve"/>
      <point x="56" y="374" type="line"/>
      <point x="59" y="374"/>
      <point x="61" y="372"/>
      <point x="61" y="369" type="curve"/>
      <point x="61" y="-214" type="line"/>
      <point x="61" y="-219"/>
      <point x="63" y="-220"/>
      <point x="65" y="-220" type="curve" smooth="yes"/>
      <point x="67" y="-220"/>
      <point x="69" y="-219"/>
      <point x="75" y="-214" type="curve" smooth="yes"/>
      <point x="146" y="-158" type="line"/>
      <point x="153" y="-152"/>
      <point x="156" y="-150"/>
      <point x="156" y="-140" type="curve"/>
    </contour>
  </outline>
</glyph>
<glyph name="q" format="1">
  <advance width="509"/>
  <unicode hex="0071"/>
  <outline>
    <contour>
      <point x="345" y="50"/>
      <point x="325" y="30"/>
      <point x="245" y="30" type="curve" smooth="yes"/>
      <point x="160" y="30"/>
      <point x="135" y="115"/>
      <point x="135" y="200" type="curve" smooth="yes"/>
      <point x="135" y="295"/>
      <point x="190" y="374"/>
      <point x="270" y="374" type="curve" smooth="yes"/>
      <point x="340" y="374" type="line"/>
      <point x="343" y="374"/>
      <point x="345" y="372"/>
      <point x="345" y="369" type="curve"/>
      <point x="345" y="85" type="line"/>
    </contour>
    <contour>
      <point x="345" y="10" type="curve"/>
      <point x="345" y="-140" type="line"/>
      <point x="345" y="-150"/>
      <point x="348" y="-152"/>
      <point x="355" y="-158" type="curve"/>
      <point x="426" y="-214" type="line" smooth="yes"/>
      <point x="432" y="-219"/>
      <point x="434" y="-220"/>
      <point x="436" y="-220" type="curve" smooth="yes"/>
      <point x="438" y="-220"/>
      <point x="440" y="-219"/>
      <point x="440" y="-214" type="curve"/>
      <point x="440" y="369" type="line"/>
      <point x="440" y="372"/>
      <point x="442" y="374"/>
      <point x="445" y="374" type="curve"/>
      <point x="475" y="374" type="line"/>
      <point x="481" y="374"/>
      <point x="485" y="378"/>
      <point x="485" y="384" type="curve"/>
      <point x="485" y="390" type="line"/>
      <point x="485" y="396"/>
      <point x="481" y="400"/>
      <point x="475" y="400" type="curve"/>
      <point x="235" y="400" type="line" smooth="yes"/>
      <point x="140" y="400"/>
      <point x="30" y="320"/>
      <point x="30" y="200" type="curve" smooth="yes"/>
      <point x="30" y="45"/>
      <point x="170" y="-10"/>
      <point x="245" y="-10" type="curve" smooth="yes"/>
      <point x="290" y="-10"/>
      <point x="329" y="11"/>
      <point x="335" y="15" type="curve" smooth="yes"/>
      <point x="342" y="19"/>
      <point x="345" y="15"/>
    </contour>
  </outline>
</glyph>
<glyph name="r" format="1">
  <advance width="326.0"/>
  <unicode hex="0072"/>
  <outline>
    <contour>
      <point x="183.0" y="0.0" type="line"/>
      <point x="191.0" y="0.0"/>
      <point x="194.0" y="3.0"/>
      <point x="194.0" y="11.0" type="curve"/>
      <point x="194.0" y="15.0" type="line"/>
      <point x="194.0" y="23.0"/>
      <point x="191.0" y="26.0"/>
      <point x="183.0" y="26.0" type="curve"/>
      <point x="166.0" y="26.0" type="line"/>
      <point x="161.0" y="26.0"/>
      <point x="159.0" y="28.0"/>
      <point x="159.0" y="33.0" type="curve"/>
      <point x="159.0" y="367.0" type="line"/>
      <point x="159.0" y="372.0"/>
      <point x="161.0" y="374.0"/>
      <point x="166.0" y="374.0" type="curve"/>
      <point x="209.0" y="374" type="line"/>
      <point x="216.0" y="374"/>
      <point x="214.0" y="369"/>
      <point x="213.0" y="368" type="curve"/>
      <point x="207.0" y="360"/>
      <point x="201.0" y="352.0"/>
      <point x="201.0" y="339.0" type="curve" smooth="yes"/>
      <point x="201.0" y="306.0"/>
      <point x="227.0" y="279.0"/>
      <point x="259.0" y="279.0" type="curve" smooth="yes"/>
      <point x="293.0" y="279.0"/>
      <point x="320.0" y="306.0"/>
      <point x="320.0" y="339.0" type="curve" smooth="yes"/>
      <point x="320.0" y="372.0"/>
      <point x="293.0" y="400.0"/>
      <point x="259.0" y="400.0" type="curve"/>
      <point x="259.0" y="400.0"/>
      <point x="34.0" y="400.0"/>
      <point x="34.0" y="400.0" type="curve"/>
      <point x="27.0" y="400.0"/>
      <point x="24.0" y="397.0"/>
      <point x="24.0" y="390.0" type="curve"/>
      <point x="24.0" y="384.0" type="line"/>
      <point x="24.0" y="377.0"/>
      <point x="27.0" y="374.0"/>
      <point x="34.0" y="374.0" type="curve"/>
      <point x="59.0" y="374.0" type="line"/>
      <point x="62.0" y="374.0"/>
      <point x="64.0" y="372.0"/>
      <point x="64.0" y="369.0" type="curve"/>
      <point x="64.0" y="5.0" type="line"/>
      <point x="64.0" y="2.0"/>
      <point x="66.0" y="0.0"/>
      <point x="69.0" y="0.0" type="curve"/>
    </contour>
  </outline>
</glyph>
<glyph name="s" format="1">
  <advance width="336"/>
  <unicode hex="0073"/>
  <outline>
    <contour>
      <point x="166" y="280" type="curve" smooth="yes"/>
      <point x="277" y="145" type="line" smooth="yes"/>
      <point x="301" y="116"/>
      <point x="306" y="90"/>
      <point x="306" y="65" type="curve" smooth="yes"/>
      <point x="306" y="15"/>
      <point x="276" y="0"/>
      <point x="225" y="0" type="curve" smooth="yes"/>
      <point x="40" y="0" type="line"/>
      <point x="33" y="0"/>
      <point x="30" y="3"/>
      <point x="30" y="10" type="curve"/>
      <point x="30" y="16" type="line"/>
      <point x="30" y="23"/>
      <point x="33" y="26"/>
      <point x="40" y="26" type="curve"/>
      <point x="146" y="30" type="line" smooth="yes"/>
      <point x="187" y="32"/>
      <point x="196" y="51"/>
      <point x="196" y="71" type="curve" smooth="yes"/>
      <point x="196" y="81"/>
      <point x="193" y="96"/>
      <point x="172" y="121" type="curve" smooth="yes"/>
      <point x="61" y="255" type="line" smooth="yes"/>
      <point x="46" y="273"/>
      <point x="31" y="296"/>
      <point x="31" y="326" type="curve" smooth="yes"/>
      <point x="31" y="372"/>
      <point x="73" y="400"/>
      <point x="111" y="400" type="curve" smooth="yes"/>
      <point x="290" y="400" type="line"/>
      <point x="296" y="400"/>
      <point x="300" y="396"/>
      <point x="300" y="390" type="curve"/>
      <point x="300" y="384" type="line"/>
      <point x="300" y="378"/>
      <point x="296" y="374"/>
      <point x="290" y="374" type="curve"/>
      <point x="186" y="370" type="line" smooth="yes"/>
      <point x="153" y="369"/>
      <point x="143" y="348"/>
      <point x="143" y="330" type="curve" smooth="yes"/>
      <point x="143" y="317"/>
      <point x="148" y="302"/>
    </contour>
  </outline>
</glyph>
<glyph name="t" format="1">
  <advance width="260.0"/>
  <unicode hex="0074"/>
  <outline>
    <contour>
      <point x="246" y="0"/>
      <point x="250" y="4"/>
      <point x="250" y="10" type="curve"/>
      <point x="250" y="16" type="line"/>
      <point x="250" y="22"/>
      <point x="246" y="26"/>
      <point x="240" y="26" type="curve"/>
      <point x="213" y="26" type="line"/>
      <point x="178" y="26"/>
      <point x="163" y="51"/>
      <point x="163" y="86" type="curve"/>
      <point x="163" y="369" type="line"/>
      <point x="163" y="372"/>
      <point x="165" y="374"/>
      <point x="168" y="374" type="curve"/>
      <point x="240" y="374" type="line"/>
      <point x="246" y="374"/>
      <point x="250" y="378"/>
      <point x="250" y="384" type="curve"/>
      <point x="250" y="390" type="line"/>
      <point x="250" y="396"/>
      <point x="246" y="400"/>
      <point x="240" y="400" type="curve"/>
      <point x="168" y="400" type="line"/>
      <point x="165" y="400"/>
      <point x="163" y="402"/>
      <point x="163" y="405" type="curve"/>
      <point x="163" y="600" type="line"/>
      <point x="163" y="603"/>
      <point x="161" y="605"/>
      <point x="158" y="605" type="curve"/>
      <point x="108" y="605" type="line"/>
      <point x="102" y="605"/>
      <point x="98" y="601"/>
      <point x="98" y="595" type="curve"/>
      <point x="98" y="590" type="line"/>
      <point x="98" y="494"/>
      <point x="75" y="400"/>
      <point x="25" y="400" type="curve"/>
      <point x="18" y="400" type="line"/>
      <point x="12" y="400"/>
      <point x="8" y="396"/>
      <point x="8" y="390" type="curve"/>
      <point x="8" y="384" type="line"/>
      <point x="8" y="378"/>
      <point x="12" y="374"/>
      <point x="18" y="374" type="curve"/>
      <point x="63" y="374" type="line"/>
      <point x="66" y="374"/>
      <point x="68" y="372"/>
      <point x="68" y="369" type="curve"/>
      <point x="68" y="70" type="line"/>
      <point x="68" y="25"/>
      <point x="93" y="0"/>
      <point x="133" y="0" type="curve"/>
      <point x="240" y="0" type="line"/>
    </contour>
  </outline>
</glyph>
<glyph name="u" format="1">
  <advance width="462"/>
  <unicode hex="0075"/>
  <outline>
    <contour>
      <point x="140" y="395" type="line"/>
      <point x="140" y="398"/>
      <point x="138" y="400"/>
      <point x="135" y="400" type="curve"/>
      <point x="25" y="400" type="line"/>
      <point x="19" y="400"/>
      <point x="15" y="396"/>
      <point x="15" y="390" type="curve"/>
      <point x="15" y="384" type="line"/>
      <point x="15" y="378"/>
      <point x="19" y="374"/>
      <point x="25" y="374" type="curve"/>
      <point x="40" y="374" type="line"/>
      <point x="43" y="374"/>
      <point x="45" y="372"/>
      <point x="45" y="369" type="curve"/>
      <point x="45" y="120" type="line" smooth="yes"/>
      <point x="45" y="55"/>
      <point x="75" y="0"/>
      <point x="165" y="0" type="curve" smooth="yes"/>
      <point x="425" y="0" type="line"/>
      <point x="431" y="0"/>
      <point x="435" y="4"/>
      <point x="435" y="10" type="curve"/>
      <point x="435" y="16" type="line"/>
      <point x="435" y="22"/>
      <point x="431" y="26"/>
      <point x="425" y="26" type="curve"/>
      <point x="405" y="26" type="line"/>
      <point x="402" y="26"/>
      <point x="400" y="28"/>
      <point x="400" y="31" type="curve"/>
      <point x="400" y="31"/>
      <point x="400" y="395"/>
      <point x="400" y="395" type="curve"/>
      <point x="400" y="398"/>
      <point x="398" y="400"/>
      <point x="395" y="400" type="curve"/>
      <point x="285" y="400" type="line"/>
      <point x="279" y="400"/>
      <point x="275" y="396"/>
      <point x="275" y="390" type="curve"/>
      <point x="275" y="390"/>
      <point x="275" y="384"/>
      <point x="275" y="384" type="curve"/>
      <point x="275" y="378"/>
      <point x="279" y="374"/>
      <point x="285" y="374" type="curve"/>
      <point x="300" y="374" type="line"/>
      <point x="303" y="374"/>
      <point x="305" y="372"/>
      <point x="305" y="369" type="curve"/>
      <point x="305" y="369"/>
      <point x="305" y="31"/>
      <point x="305" y="31" type="curve"/>
      <point x="305" y="28"/>
      <point x="303" y="26"/>
      <point x="300" y="26" type="curve"/>
      <point x="190" y="26" type="line" smooth="yes"/>
      <point x="160" y="26"/>
      <point x="140" y="56"/>
      <point x="140" y="86" type="curve" smooth="yes"/>
    </contour>
  </outline>
</glyph>
<glyph name="v" format="1">
  <advance width="435.032344688"/>
  <unicode hex="0076"/>
  <outline>
    <contour>
      <point x="215.0" y="4" type="line" smooth="yes"/>
      <point x="216.0" y="2"/>
      <point x="218.0" y="0"/>
      <point x="221.0" y="0" type="curve" smooth="yes"/>
      <point x="243.0" y="0" type="line" smooth="yes"/>
      <point x="246.0" y="0"/>
      <point x="248.0" y="1"/>
      <point x="250.0" y="5" type="curve" smooth="yes"/>
      <point x="250.0" y="5"/>
      <point x="376.0" y="286"/>
      <point x="376.0" y="286" type="curve" smooth="yes"/>
      <point x="377.0" y="288"/>
      <point x="379.0" y="290"/>
      <point x="383.0" y="290" type="curve" smooth="yes"/>
      <point x="413.0" y="290" type="line" smooth="yes"/>
      <point x="423.0" y="290"/>
      <point x="420.0" y="296"/>
      <point x="418.0" y="300" type="curve" smooth="yes"/>
      <point x="375.0" y="395" type="line" smooth="yes"/>
      <point x="374.0" y="398"/>
      <point x="371.0" y="400"/>
      <point x="368.0" y="400" type="curve" smooth="yes"/>
      <point x="277.0" y="400" type="line"/>
      <point x="271.0" y="400"/>
      <point x="267.0" y="396"/>
      <point x="267.0" y="390" type="curve"/>
      <point x="267.0" y="384" type="line"/>
      <point x="267.0" y="378"/>
      <point x="271.0" y="374"/>
      <point x="277.0" y="374" type="curve"/>
      <point x="294.0" y="374" type="line" smooth="yes"/>
      <point x="297.0" y="374"/>
      <point x="298.0" y="372"/>
      <point x="299.0" y="370" type="curve" smooth="yes"/>
      <point x="332.0" y="300" type="line" smooth="yes"/>
      <point x="334.0" y="296"/>
      <point x="334.0" y="292"/>
      <point x="334.0" y="289" type="curve"/>
      <point x="334.0" y="285"/>
      <point x="334.0" y="283"/>
      <point x="332.0" y="279" type="curve" smooth="yes"/>
      <point x="265.0" y="125" type="line" smooth="yes"/>
      <point x="262.0" y="119"/>
      <point x="258.0" y="119"/>
      <point x="255.0" y="125" type="curve" smooth="yes"/>
      <point x="132.0" y="395" type="line" smooth="yes"/>
      <point x="131.0" y="398"/>
      <point x="128.0" y="400"/>
      <point x="125.0" y="400" type="curve"/>
      <point x="20.0" y="400" type="line"/>
      <point x="14.0" y="400"/>
      <point x="10.0" y="397"/>
      <point x="10.0" y="390" type="curve"/>
      <point x="10.0" y="384" type="line"/>
      <point x="10.0" y="378"/>
      <point x="14.0" y="374"/>
      <point x="20.0" y="374" type="curve"/>
      <point x="40.0" y="374" type="line"/>
      <point x="43.0" y="374"/>
      <point x="46.0" y="372"/>
      <point x="47.0" y="370" type="curve" smooth="yes"/>
    </contour>
  </outline>
</glyph>
<glyph name="w" format="1">
  <advance width="648.032344688"/>
  <unicode hex="0077"/>
  <outline>
    <contour>
      <point x="248.0" y="0.0"/>
      <point x="250.0" y="1.0"/>
      <point x="252.0" y="5.0" type="curve" smooth="yes"/>
      <point x="329.0" y="178.0" type="line" smooth="yes"/>
      <point x="331.0" y="183.0"/>
      <point x="334.0" y="186.0"/>
      <point x="338.0" y="186.0" type="curve" smooth="yes"/>
      <point x="342.0" y="186.0"/>
      <point x="345.0" y="183.0"/>
      <point x="347.0" y="178.0" type="curve" smooth="yes"/>
      <point x="426.0" y="4.0" type="line" smooth="yes"/>
      <point x="427.0" y="2.0"/>
      <point x="430.0" y="0.0"/>
      <point x="433.0" y="0.0" type="curve" smooth="yes"/>
      <point x="455.0" y="0.0" type="line" smooth="yes"/>
      <point x="458.0" y="0.0"/>
      <point x="460.0" y="1.0"/>
      <point x="462.0" y="5.0" type="curve" smooth="yes"/>
      <point x="588.0" y="286.0" type="line" smooth="yes"/>
      <point x="589.0" y="288.0"/>
      <point x="591.0" y="290.0"/>
      <point x="595.0" y="290.0" type="curve" smooth="yes"/>
      <point x="625.0" y="290.0" type="line" smooth="yes"/>
      <point x="635.0" y="290.0"/>
      <point x="632.0" y="296.0"/>
      <point x="630.0" y="300.0" type="curve" smooth="yes"/>
      <point x="587.0" y="395.0" type="line" smooth="yes"/>
      <point x="586.0" y="398.0"/>
      <point x="583.0" y="400.0"/>
      <point x="580.0" y="400.0" type="curve" smooth="yes"/>
      <point x="489.0" y="400.0" type="line"/>
      <point x="483.0" y="400.0"/>
      <point x="479.0" y="396.0"/>
      <point x="479.0" y="390.0" type="curve"/>
      <point x="479.0" y="384.0" type="line"/>
      <point x="479.0" y="378.0"/>
      <point x="483.0" y="374.0"/>
      <point x="489.0" y="374.0" type="curve"/>
      <point x="506.0" y="374.0" type="line" smooth="yes"/>
      <point x="509.0" y="374.0"/>
      <point x="510.0" y="372.0"/>
      <point x="511.0" y="370.0" type="curve" smooth="yes"/>
      <point x="544.0" y="300.0" type="line" smooth="yes"/>
      <point x="546.0" y="296.0"/>
      <point x="546.0" y="292.0"/>
      <point x="546.0" y="289.0" type="curve"/>
      <point x="546.0" y="285.0"/>
      <point x="546.0" y="283.0"/>
      <point x="544.0" y="279.0" type="curve" smooth="yes"/>
      <point x="477.0" y="125.0" type="line" smooth="yes"/>
      <point x="474.0" y="119.0"/>
      <point x="470.0" y="119.0"/>
      <point x="467.0" y="125.0" type="curve" smooth="yes"/>
      <point x="344.0" y="395.0" type="line" smooth="yes"/>
      <point x="343.0" y="398.0"/>
      <point x="340.0" y="400.0"/>
      <point x="337.0" y="400.0" type="curve"/>
      <point x="232.0" y="400.0" type="line"/>
      <point x="226.0" y="400.0"/>
      <point x="222.0" y="397.0"/>
      <point x="222.0" y="390.0" type="curve"/>
      <point x="222.0" y="384.0" type="line"/>
      <point x="222.0" y="378.0"/>
      <point x="226.0" y="374.0"/>
      <point x="232.0" y="374.0" type="curve"/>
      <point x="252.0" y="374.0" type="line"/>
      <point x="255.0" y="374.0"/>
      <point x="258.0" y="372.0"/>
      <point x="259.0" y="370.0" type="curve" smooth="yes"/>
      <point x="313.0" y="252" type="line" smooth="yes"/>
      <point x="315.0" y="248"/>
      <point x="316.0" y="245"/>
      <point x="316.0" y="242" type="curve" smooth="yes"/>
      <point x="316.0" y="238"/>
      <point x="314.0" y="234"/>
      <point x="313.0" y="231" type="curve" smooth="yes"/>
      <point x="267.0" y="125.0" type="line" smooth="yes"/>
      <point x="264.0" y="119.0"/>
      <point x="260.0" y="119.0"/>
      <point x="257.0" y="125.0" type="curve" smooth="yes"/>
      <point x="134.0" y="395.0" type="line" smooth="yes"/>
      <point x="133.0" y="398.0"/>
      <point x="130.0" y="400.0"/>
      <point x="127.0" y="400.0" type="curve"/>
      <point x="22.0" y="400.0" type="line"/>
      <point x="16.0" y="400.0"/>
      <point x="12.0" y="397.0"/>
      <point x="12.0" y="390.0" type="curve"/>
      <point x="12.0" y="384.0" type="line"/>
      <point x="12.0" y="378.0"/>
      <point x="16.0" y="374.0"/>
      <point x="22.0" y="374.0" type="curve"/>
      <point x="42.0" y="374.0" type="line"/>
      <point x="45.0" y="374.0"/>
      <point x="48.0" y="372.0"/>
      <point x="49.0" y="370.0" type="curve" smooth="yes"/>
      <point x="217.0" y="4.0" type="line" smooth="yes"/>
      <point x="218.0" y="2.0"/>
      <point x="220.0" y="0.0"/>
      <point x="223.0" y="0.0" type="curve" smooth="yes"/>
      <point x="245.0" y="0.0" type="line" smooth="yes"/>
    </contour>
  </outline>
</glyph>
<glyph name="x" format="1">
  <advance width="425.0"/>
  <unicode hex="0078"/>
  <outline>
    <contour>
      <point x="141.0" y="0.0"/>
      <point x="145.0" y="4.0"/>
      <point x="145.0" y="10.0" type="curve"/>
      <point x="145.0" y="16.0" type="line"/>
      <point x="145.0" y="22.0"/>
      <point x="141.0" y="26.0"/>
      <point x="135.0" y="26.0" type="curve"/>
      <point x="115.0" y="26.0" type="line"/>
      <point x="109.0" y="26.0"/>
      <point x="104.0" y="30.0"/>
      <point x="105.0" y="36.0" type="curve" smooth="yes"/>
      <point x="110.0" y="85.0"/>
      <point x="126.0" y="132"/>
      <point x="164.0" y="160" type="curve" smooth="yes"/>
      <point x="168.0" y="163"/>
      <point x="169.0" y="164"/>
      <point x="173.0" y="164" type="curve" smooth="yes"/>
      <point x="177.0" y="164"/>
      <point x="179.0" y="162"/>
      <point x="180.0" y="160" type="curve" smooth="yes"/>
      <point x="270.0" y="5.0" type="line"/>
      <point x="272.0" y="2.0"/>
      <point x="274.0" y="0.0"/>
      <point x="277.0" y="0.0" type="curve"/>
      <point x="400.0" y="0.0" type="line"/>
      <point x="406.0" y="0.0"/>
      <point x="410.0" y="4.0"/>
      <point x="410.0" y="10.0" type="curve"/>
      <point x="410.0" y="16.0" type="line"/>
      <point x="410.0" y="22.0"/>
      <point x="406.0" y="26.0"/>
      <point x="400.0" y="26.0" type="curve"/>
      <point x="372.0" y="26.0" type="line" smooth="yes"/>
      <point x="369.0" y="26.0"/>
      <point x="367.0" y="28.0"/>
      <point x="365.0" y="31.0" type="curve"/>
      <point x="257.0" y="217" type="line" smooth="yes"/>
      <point x="256.0" y="219"/>
      <point x="254.0" y="222"/>
      <point x="254.0" y="225" type="curve" smooth="yes"/>
      <point x="254.0" y="228"/>
      <point x="255.0" y="230"/>
      <point x="257.0" y="231" type="curve" smooth="yes"/>
      <point x="332.0" y="265"/>
      <point x="375.0" y="344.0"/>
      <point x="375.0" y="395.0" type="curve"/>
      <point x="375.0" y="398.0"/>
      <point x="373.0" y="400.0"/>
      <point x="370.0" y="400.0" type="curve"/>
      <point x="265.0" y="400.0" type="line"/>
      <point x="259.0" y="400.0"/>
      <point x="255.0" y="396.0"/>
      <point x="255.0" y="390.0" type="curve"/>
      <point x="255.0" y="384.0" type="line"/>
      <point x="255.0" y="378.0"/>
      <point x="259.0" y="374.0"/>
      <point x="265.0" y="374.0" type="curve"/>
      <point x="280.0" y="374.0" type="line"/>
      <point x="286.0" y="374.0"/>
      <point x="290.0" y="370.0"/>
      <point x="290.0" y="364.0" type="curve"/>
      <point x="290.0" y="320.0"/>
      <point x="273.0" y="282.0"/>
      <point x="249.0" y="261.0" type="curve"/>
      <point x="245.0" y="257.0"/>
      <point x="243.0" y="257"/>
      <point x="239.0" y="257" type="curve" smooth="yes"/>
      <point x="236.0" y="257"/>
      <point x="234.25" y="258.75"/>
      <point x="233.0" y="261.0" type="curve"/>
      <point x="155.0" y="395.0" type="line"/>
      <point x="154.0" y="397.0"/>
      <point x="150.0" y="400.0"/>
      <point x="147.0" y="400.0" type="curve"/>
      <point x="25.0" y="400.0" type="line"/>
      <point x="19.0" y="400.0"/>
      <point x="15.0" y="396.0"/>
      <point x="15.0" y="390.0" type="curve"/>
      <point x="15.0" y="383.0" type="line"/>
      <point x="15.0" y="378.0"/>
      <point x="20.0" y="374.0"/>
      <point x="25.0" y="374.0" type="curve"/>
      <point x="50.0" y="374.0" type="line"/>
      <point x="55.0" y="374.0"/>
      <point x="59.0" y="371.0"/>
      <point x="60.0" y="369.0" type="curve"/>
      <point x="155.0" y="209" type="line" smooth="yes"/>
      <point x="158.0" y="203"/>
      <point x="159.0" y="200"/>
      <point x="159.0" y="198" type="curve" smooth="yes"/>
      <point x="159.0" y="195"/>
      <point x="158.0" y="193"/>
      <point x="155.0" y="191" type="curve" smooth="yes"/>
      <point x="92.0" y="149"/>
      <point x="20.0" y="82.0"/>
      <point x="20.0" y="5.0" type="curve"/>
      <point x="20.0" y="2.0"/>
      <point x="22.0" y="0.0"/>
      <point x="25.0" y="0.0" type="curve"/>
      <point x="135.0" y="0.0" type="line"/>
    </contour>
  </outline>
</glyph>
<glyph name="y" format="1">
  <advance width="445.032344688"/>
  <unicode hex="0079"/>
  <outline>
    <contour>
      <point x="221.0" y="15.0"/>
      <point x="222.0" y="9.0"/>
      <point x="222.0" y="5.0" type="curve"/>
      <point x="222.0" y="1.0"/>
      <point x="221.0" y="-4"/>
      <point x="219.0" y="-9" type="curve" smooth="yes"/>
      <point x="185.0" y="-77" type="line" smooth="yes"/>
      <point x="163.0" y="-120"/>
      <point x="121.0" y="-136"/>
      <point x="83.0" y="-106" type="curve" smooth="yes"/>
      <point x="75.0" y="-99"/>
      <point x="69.0" y="-100"/>
      <point x="65.0" y="-106" type="curve" smooth="yes"/>
      <point x="34.0" y="-151" type="line" smooth="yes"/>
      <point x="29.0" y="-159"/>
      <point x="28.0" y="-168"/>
      <point x="37.0" y="-171" type="curve" smooth="yes"/>
      <point x="111.0" y="-197"/>
      <point x="171.0" y="-182"/>
      <point x="208.0" y="-102" type="curve" smooth="yes"/>
      <point x="386.0" y="286.0" type="line"/>
      <point x="387.0" y="288.0"/>
      <point x="389.0" y="290.0"/>
      <point x="393.0" y="290.0" type="curve"/>
      <point x="423.0" y="290.0" type="line"/>
      <point x="433.0" y="290.0"/>
      <point x="430.0" y="296.0"/>
      <point x="428.0" y="300.0" type="curve"/>
      <point x="385.0" y="395.0" type="line"/>
      <point x="383.0" y="398.0"/>
      <point x="381.0" y="400.0"/>
      <point x="378.0" y="400.0" type="curve"/>
      <point x="287.0" y="400.0" type="line"/>
      <point x="281.0" y="400.0"/>
      <point x="277.0" y="396.0"/>
      <point x="277.0" y="390.0" type="curve"/>
      <point x="277.0" y="384.0" type="line"/>
      <point x="277.0" y="378.0"/>
      <point x="281.0" y="374.0"/>
      <point x="287.0" y="374.0" type="curve"/>
      <point x="304.0" y="374.0" type="line"/>
      <point x="307.0" y="374.0"/>
      <point x="308.0" y="372.0"/>
      <point x="309.0" y="370.0" type="curve"/>
      <point x="343.0" y="298" type="line" smooth="yes"/>
      <point x="344.0" y="296"/>
      <point x="345.0" y="294"/>
      <point x="345.0" y="291" type="curve"/>
      <point x="345.0" y="287"/>
      <point x="344.0" y="284"/>
      <point x="343.0" y="282" type="curve" smooth="yes"/>
      <point x="275.0" y="125.0" type="line"/>
      <point x="272.0" y="119.0"/>
      <point x="268.0" y="119.0"/>
      <point x="265.0" y="125.0" type="curve"/>
      <point x="142.0" y="395.0" type="line"/>
      <point x="140.0" y="398.0"/>
      <point x="138.0" y="400.0"/>
      <point x="135.0" y="400.0" type="curve"/>
      <point x="30.0" y="400.0" type="line"/>
      <point x="23.0" y="400.0"/>
      <point x="20.0" y="397.0"/>
      <point x="20.0" y="390.0" type="curve"/>
      <point x="20.0" y="384.0" type="line"/>
      <point x="20.0" y="378.0"/>
      <point x="24.0" y="374.0"/>
      <point x="30.0" y="374.0" type="curve"/>
      <point x="50.0" y="374.0" type="line"/>
      <point x="53.0" y="374.0"/>
      <point x="56.0" y="372.0"/>
      <point x="57.0" y="370.0" type="curve"/>
      <point x="219.0" y="18.0" type="line"/>
    </contour>
  </outline>
</glyph>
